<svg width="77" height="50" viewBox="0 0 77 50" fill="none" xmlns="http://www.w3.org/2000/svg">
<path d="M76.0625 33.7812C76.0625 36.0312 75.5938 38.1406 74.6562 40.1094C73.8125 42.0781 72.6406 43.8125 71.1406 45.3125C69.7344 46.7188 68.0469 47.8438 66.0781 48.6875C64.1094 49.5312 62 49.9531 59.75 49.9531C57.5 49.9531 55.3906 49.5312 53.4219 48.6875C51.4531 47.8438 49.7188 46.7188 48.2188 45.3125C46.8125 43.8125 45.6875 42.0781 44.8438 40.1094C44 38.1406 43.5781 36.0312 43.5781 33.7812C43.5781 30.0312 44.1875 26.5625 45.4062 23.375C46.625 20.0938 48.2656 17.0469 50.3281 14.2344C52.4844 11.4219 54.9219 8.84375 57.6406 6.5C60.4531 4.15625 63.3594 2.04687 66.3594 0.171875L71.5625 4.67188C69.7812 6.26562 68.1406 8.28125 66.6406 10.7188C65.1406 13.1562 64.1562 15.5938 63.6875 18.0312C67.25 18.875 70.2031 20.7969 72.5469 23.7969C74.8906 26.7031 76.0625 30.0312 76.0625 33.7812ZM32.8906 33.7812C32.8906 36.0312 32.4219 38.1406 31.4844 40.1094C30.6406 42.0781 29.4688 43.8125 27.9688 45.3125C26.5625 46.7188 24.8281 47.8438 22.7656 48.6875C20.7969 49.5312 18.6875 49.9531 16.4375 49.9531C14.1875 49.9531 12.0781 49.5312 10.1094 48.6875C8.23438 47.8438 6.54688 46.7188 5.04688 45.3125C3.64062 43.8125 2.51562 42.0781 1.67188 40.1094C0.828125 38.1406 0.40625 36.0312 0.40625 33.7812C0.40625 30.0312 1.01562 26.5625 2.23438 23.375C3.45312 20.0938 5.09375 17.0469 7.15625 14.2344C9.3125 11.4219 11.75 8.84375 14.4688 6.5C17.2812 4.15625 20.1875 2.04687 23.1875 0.171875L28.25 4.67188C26.5625 6.26562 24.9688 8.28125 23.4688 10.7188C21.9688 13.1562 20.9844 15.5938 20.5156 18.0312C24.0781 18.875 27.0312 20.7969 29.375 23.7969C31.7188 26.7031 32.8906 30.0312 32.8906 33.7812Z" fill="#F8982C"/>
</svg>
