<svg width="1440" height="1024" viewBox="0 0 1440 1024" fill="none" xmlns="http://www.w3.org/2000/svg">
<g id="BG" opacity="0.5">
<g id="Graphic Design Icon" opacity="0.2">
<ellipse id="Ellipse 1" cx="155.682" cy="181" rx="257.682" ry="258" fill="#5398E9" fill-opacity="0.25"/>
<g id="vector 1" clip-path="url(#clip0)">
<g id="Group">
<g id="Group_2">
<path id="Vector" d="M305.735 29.2354H268.714C263.682 29.2354 259.61 33.3121 259.61 38.3501V47.4649H185.105C181.334 36.8784 171.324 29.2354 159.471 29.2354C147.619 29.2354 137.608 36.8784 133.838 47.4649H59.3326V38.3501C59.3326 33.3121 55.2609 29.2354 50.229 29.2354H13.208C8.1762 29.2354 4.10449 33.3121 4.10449 38.3501V74.8092C4.10449 79.8473 8.1762 83.924 13.208 83.924H50.229C55.2609 83.924 59.3326 79.8473 59.3326 74.8092V65.5729H96.7202C65.1267 85.3344 44.2948 120.043 41.8046 158.917C30.8816 162.497 22.9185 172.678 22.9185 184.794C22.9185 199.872 35.1694 212.139 50.229 212.139C65.2887 212.139 77.5396 199.872 77.5396 184.794C77.5396 173.164 70.2198 163.275 59.9759 159.329C63.082 115.989 93.2863 79.459 135.3 69.0365C139.844 77.8335 148.916 83.924 159.471 83.924C170.027 83.924 179.099 77.8335 183.642 69.0365C225.656 79.4584 255.861 115.988 258.967 159.329C248.723 163.275 241.403 173.164 241.403 184.794C241.403 199.872 253.654 212.139 268.714 212.139C283.773 212.139 296.024 199.872 296.024 184.794C296.024 172.678 288.061 162.497 277.138 158.917C274.648 120.043 253.816 85.4559 222.223 65.6945H259.61V74.8092C259.61 79.8473 263.682 83.924 268.714 83.924H305.735C310.767 83.924 314.838 79.8473 314.838 74.8092V38.3501C314.838 33.3121 310.767 29.2354 305.735 29.2354Z" fill="#5398E9"/>
</g>
</g>
<g id="Group_3">
<g id="Group_4">
<path id="Vector_2" d="M221.406 329.048C216.644 314.459 202.925 303.286 186.782 303.286H132.161C116.017 303.286 102.299 314.459 97.5369 329.048C95.701 334.673 100.48 340.353 106.392 340.353H212.551C218.461 340.353 223.241 334.673 221.406 329.048Z" fill="#5398E9"/>
</g>
</g>
<g id="Group_5">
<g id="Group_6">
<path id="Vector_3" d="M239.873 216.198L168.574 109.117V195.588C179.148 199.363 186.781 209.386 186.781 221.253C186.781 236.331 174.531 248.598 159.471 248.598C144.411 248.598 132.16 236.331 132.16 221.253C132.16 209.386 139.794 199.363 150.367 195.588V109.117L79.0685 216.198C76.6591 219.811 77.1392 224.627 80.2065 227.698C96.9187 244.431 107.601 265.987 111.724 289.11C118.048 286.542 124.926 285.057 132.16 285.057H186.781C194.016 285.057 200.894 286.541 207.218 289.109C211.34 265.985 222.023 244.431 238.735 227.698C241.803 224.627 242.283 219.811 239.873 216.198Z" fill="#5398E9"/>
</g>
</g>
<g id="Group_7">
<g id="Group_8">
<path id="Vector_4" d="M159.471 212.139C154.448 212.139 150.368 216.224 150.368 221.253C150.368 226.282 154.448 230.368 159.471 230.368C164.494 230.368 168.575 226.282 168.575 221.253C168.575 216.224 164.494 212.139 159.471 212.139Z" fill="#5398E9"/>
</g>
</g>
</g>
</g>
<g id="Graphic Design Icon_2" opacity="0.2">
<ellipse id="Ellipse 1_2" rx="62.9631" ry="62.9592" transform="matrix(0.688857 -0.724898 0.724048 0.68975 140.7 910)" fill="#5398E9" fill-opacity="0.25"/>
<g id="vector 1_2" clip-path="url(#clip1)">
<g id="Group_9">
<g id="Group_10">
<path id="Vector_5" d="M139.141 857.877L132.91 864.435C132.063 865.326 132.098 866.733 132.988 867.581L134.599 869.115L122.058 882.312C119.553 881.198 116.518 881.685 114.523 883.784C112.528 885.883 112.193 888.943 113.429 891.393L100.888 904.589L99.2779 903.055C98.3878 902.207 96.9821 902.242 96.1352 903.134L89.9039 909.691C89.0569 910.582 89.0919 911.99 89.9821 912.838L96.4239 918.974C97.3141 919.822 98.7197 919.787 99.5667 918.896L105.798 912.339C106.645 911.447 106.61 910.04 105.72 909.192L104.088 907.637L110.381 901.015C108.555 909.937 111.181 919.469 117.63 926.454C116.424 928.991 116.883 932.115 119.024 934.154C121.688 936.692 125.917 936.587 128.452 933.919C130.987 931.252 130.882 927.018 128.217 924.48C126.162 922.522 123.183 922.154 120.762 923.304C113.627 915.459 112.256 903.961 117.487 894.765C119.806 895.44 122.409 894.859 124.185 892.989C125.962 891.119 126.413 888.488 125.623 886.202C134.537 880.514 146.075 881.313 154.256 888.058C153.229 890.537 153.744 893.498 155.799 895.455C158.463 897.993 162.692 897.888 165.227 895.22C167.762 892.553 167.657 888.318 164.992 885.781C162.852 883.741 159.712 883.438 157.241 884.77C149.954 878.668 140.336 876.536 131.527 878.806L137.82 872.184L139.43 873.718C140.32 874.566 141.726 874.531 142.573 873.64L148.804 867.082C149.651 866.191 149.616 864.784 148.726 863.936L142.284 857.799C141.394 856.951 139.988 856.986 139.141 857.877Z" fill="#5398E9"/>
</g>
</g>
<g id="Group_11">
<g id="Group_12">
<path id="Vector_6" d="M177.921 923.278C174.542 921.666 170.258 922.215 167.541 925.075L158.347 934.749C155.63 937.609 155.295 941.919 157.071 945.218C157.756 946.49 159.564 946.6 160.559 945.553L178.428 926.749C179.423 925.702 179.224 923.899 177.921 923.278Z" fill="#5398E9"/>
</g>
</g>
<g id="Group_13">
<g id="Group_14">
<path id="Vector_7" d="M161.09 901.012L130.169 895.617L145.448 910.172C147.894 908.934 150.95 909.269 153.047 911.267C155.711 913.805 155.816 918.039 153.281 920.707C150.747 923.374 146.517 923.48 143.853 920.942C141.756 918.944 141.27 915.905 142.383 913.397L127.105 898.842L134.024 929.494C134.256 930.529 135.188 931.255 136.247 931.229C142.017 931.085 147.623 932.821 152.403 935.983C153.013 934.43 153.909 932.962 155.126 931.681L164.32 922.006C165.538 920.725 166.958 919.756 168.476 919.068C165.084 914.446 163.074 908.926 162.93 903.149C162.904 902.089 162.134 901.193 161.09 901.012Z" fill="#5398E9"/>
</g>
</g>
<g id="Group_15">
<g id="Group_16">
<path id="Vector_8" d="M146.839 914.57C145.994 915.46 146.029 916.87 146.918 917.717C147.806 918.563 149.215 918.528 150.06 917.638C150.906 916.749 150.871 915.338 149.982 914.492C149.094 913.645 147.685 913.68 146.839 914.57Z" fill="#5398E9"/>
</g>
</g>
</g>
</g>
<g id="Developer Icon" opacity="0.2">
<g id="code 1" clip-path="url(#clip2)">
<g id="Group_17">
<g id="Group_18">
<g id="Group_19">
<path id="Vector_9" d="M1385.38 805.25L1302.53 757.412C1288.54 749.333 1271.16 749.334 1257.17 757.412L1174.32 805.25C1160.31 813.343 1151.6 828.437 1151.6 844.64V940.242C1151.6 956.445 1160.31 971.539 1174.32 979.632L1257.17 1027.47C1271.16 1035.55 1288.55 1035.55 1302.53 1027.47L1385.38 979.632C1399.4 971.539 1408.11 956.445 1408.11 940.242V844.64C1408.11 828.437 1399.4 813.344 1385.38 805.25ZM1386.09 940.242C1386.09 948.588 1381.6 956.363 1374.38 960.532L1291.53 1008.37C1284.33 1012.53 1275.37 1012.53 1268.17 1008.37L1185.32 960.532C1178.1 956.362 1173.62 948.588 1173.62 940.242V844.64C1173.62 836.294 1178.1 828.519 1185.32 824.351L1268.17 776.512C1275.38 772.35 1284.33 772.352 1291.54 776.512L1374.38 824.35C1381.6 828.519 1386.09 836.294 1386.09 844.64V940.242Z" fill="#2BBC5D"/>
<path id="Vector_10" d="M1269.39 884.025L1228.5 849.38C1223.86 845.447 1216.91 846.026 1212.99 850.674C1209.06 855.322 1209.64 862.278 1214.28 866.211L1245.24 892.441L1214.28 918.671C1209.64 922.604 1209.06 929.56 1212.99 934.208C1216.92 938.866 1223.87 939.425 1228.5 935.502L1269.39 900.856C1274.59 896.449 1274.58 888.42 1269.39 884.025Z" fill="#2BBC5D"/>
<path id="Vector_11" d="M1338.31 916.062H1288.78C1282.69 916.062 1277.77 920.998 1277.77 927.086C1277.77 933.175 1282.69 938.111 1288.78 938.111H1338.31C1344.39 938.111 1349.32 933.175 1349.32 927.086C1349.32 920.998 1344.39 916.062 1338.31 916.062Z" fill="#2BBC5D"/>
</g>
</g>
</g>
</g>
<ellipse id="Ellipse 2" cx="1283.29" cy="889" rx="233.711" ry="234" fill="#2BBC5D" fill-opacity="0.15"/>
</g>
<g id="Writing Icon" opacity="0.2">
<ellipse id="Ellipse 1_3" cx="1283.29" cy="152" rx="135.832" ry="136" fill="#BE49E8" fill-opacity="0.25"/>
<g id="quill 1" clip-path="url(#clip3)">
<g id="Group_20">
<g id="Group_21">
<path id="Vector_12" d="M1356.95 72C1287.57 72 1230.51 125.437 1224.46 193.346C1235.99 177.069 1250.11 161.407 1267.74 143.401C1269.05 142.048 1271.22 142.021 1272.56 143.354C1273.91 144.672 1273.93 146.839 1272.61 148.185C1269.96 150.891 1267.26 153.7 1264.55 156.542C1263 158.162 1261.49 159.775 1260 161.36C1259.73 161.654 1259.45 161.948 1259.18 162.248C1237.4 185.604 1221.82 205.933 1210.51 231.182C1209.74 232.904 1210.51 234.927 1212.22 235.699C1212.68 235.904 1213.15 236 1213.62 236C1214.93 236 1216.18 235.248 1216.74 233.984C1220.77 224.999 1225.44 216.662 1230.7 208.55C1278.36 207.327 1321.75 180.78 1344.49 138.536C1345.06 137.477 1345.03 136.199 1344.42 135.16C1343.8 134.135 1342.68 133.5 1341.48 133.5H1328.84L1351.51 120.53C1352.22 120.12 1352.78 119.457 1353.04 118.678C1357.9 104.533 1360.36 89.9785 1360.36 75.4168C1360.36 73.5308 1358.83 72 1356.95 72Z" fill="#BE49E8"/>
</g>
</g>
</g>
</g>
<g id="Writing Icon_2" opacity="0.2">
<ellipse id="Ellipse 1_4" rx="102.424" ry="101.119" transform="matrix(0.776612 -0.62998 0.629041 0.777372 368.918 699.169)" fill="#BE49E8" fill-opacity="0.25"/>
<g id="quill 1_2" clip-path="url(#clip4)">
<g id="Group_22">
<g id="Group_23">
<path id="Vector_13" d="M374.636 617.939C334.01 650.894 325.586 708.887 353.807 751.011C352.945 736.127 353.889 720.367 355.791 701.585C355.925 700.181 357.183 699.134 358.594 699.266C359.998 699.389 361.023 700.631 360.882 702.035C360.592 704.861 360.327 707.765 360.07 710.695C359.92 712.367 359.787 714.019 359.658 715.642C359.635 715.941 359.613 716.241 359.593 716.544C357.76 740.393 358.148 759.541 363.334 779.507C363.688 780.869 365.086 781.672 366.45 781.304C366.814 781.205 367.134 781.037 367.41 780.813C368.173 780.194 368.553 779.166 368.294 778.167C366.449 771.06 365.287 764.021 364.571 756.836C391.912 733.486 404.902 697.532 398.461 662.313C398.298 661.432 397.684 660.706 396.839 660.398C395.996 660.1 395.047 660.262 394.343 660.832L386.942 666.836L394.149 648.573C394.376 647.996 394.39 647.35 394.182 646.773C390.412 636.289 385.043 626.709 378.232 618.293C377.35 617.203 375.739 617.044 374.636 617.939Z" fill="#BE49E8"/>
</g>
</g>
</g>
</g>
<g id="Developer Icon_2" opacity="0.2">
<g id="code 1_2" clip-path="url(#clip5)">
<g id="Group_24">
<g id="Group_25">
<g id="Group_26">
<path id="Vector_14" d="M688.312 76.1767L663.442 53.9903C659.242 50.2437 653.314 49.0116 647.972 50.7745L616.337 61.2156C610.984 62.9819 606.948 67.5119 605.802 73.0375L599.042 105.64C597.896 111.165 599.798 116.93 604.006 120.683L628.876 142.87C633.076 146.617 639.004 147.848 644.346 146.085L675.981 135.644C681.333 133.878 685.37 129.348 686.516 123.822L693.276 91.2204C694.422 85.695 692.52 79.9305 688.312 76.1767ZM679.007 122.262C678.417 125.108 676.338 127.441 673.581 128.351L641.946 138.792C639.194 139.701 636.14 139.066 633.977 137.136L609.107 114.949C606.94 113.016 605.96 110.047 606.55 107.2L613.31 74.5982C613.901 71.7522 615.98 69.4188 618.737 68.509L650.372 58.0679C653.124 57.1595 656.178 57.7949 658.341 59.7244L683.21 81.9107C685.378 83.8443 686.358 86.8134 685.767 89.6596L679.007 122.262Z" fill="#2BBC5D"/>
<path id="Vector_15" d="M643.186 94.8184L631.693 80.1053C630.388 78.4352 627.978 78.1403 626.31 79.447C624.642 80.7537 624.348 83.1668 625.652 84.837L634.354 95.9763L621.943 102.727C620.082 103.739 619.393 106.07 620.403 107.933C621.416 109.801 623.747 110.484 625.603 109.475L641.996 100.558C644.082 99.424 644.644 96.685 643.186 94.8184Z" fill="#2BBC5D"/>
<path id="Vector_16" d="M664.425 110.629L647.532 107.118C645.458 106.687 643.428 108.02 642.998 110.097C642.567 112.173 643.899 114.206 645.973 114.637L662.866 118.148C664.939 118.579 666.969 117.246 667.399 115.169C667.83 113.093 666.498 111.06 664.425 110.629Z" fill="#2BBC5D"/>
</g>
</g>
</g>
</g>
<ellipse id="Ellipse 2_2" rx="81.4036" ry="81.4958" transform="matrix(0.979072 0.203516 -0.203035 0.979172 647.574 97.5001)" fill="#2BBC5D" fill-opacity="0.15"/>
</g>
<g id="Graphic Design Icon_3" opacity="0.2">
<ellipse id="Ellipse 1_5" rx="64.9362" ry="64.9836" transform="matrix(0.891815 -0.452401 0.451513 0.892264 1086.53 484)" fill="#5398E9" fill-opacity="0.25"/>
<g id="vector 1_3" clip-path="url(#clip6)">
<g id="Group_27">
<g id="Group_28">
<path id="Vector_17" d="M1103 432.786L1094.67 437.006C1093.54 437.58 1093.09 438.961 1093.67 440.093L1094.7 442.141L1077.96 450.635C1075.91 448.686 1072.79 448.109 1070.12 449.461C1067.46 450.812 1066.08 453.671 1066.44 456.48L1049.69 464.974L1048.66 462.926C1048.08 461.793 1046.7 461.341 1045.57 461.915L1037.25 466.136C1036.12 466.709 1035.67 468.09 1036.24 469.222L1040.39 477.416C1040.96 478.548 1042.34 479 1043.47 478.426L1051.79 474.206C1052.92 473.632 1053.37 472.252 1052.8 471.119L1051.75 469.044L1060.15 464.781C1055.3 472.824 1054.57 482.999 1058.43 492.02C1056.38 494.07 1055.75 497.266 1057.13 499.989C1058.84 503.377 1062.99 504.737 1066.37 503.02C1069.76 501.304 1071.12 497.15 1069.4 493.762C1068.08 491.148 1065.31 489.76 1062.56 490.041C1058.33 479.946 1060.96 468.293 1069.22 461.161C1071.24 462.62 1073.97 462.955 1076.34 461.751C1078.72 460.548 1080.06 458.145 1080.08 455.65C1090.71 453.202 1101.65 457.968 1107.28 467.355C1105.43 469.41 1104.91 472.466 1106.23 475.08C1107.94 478.469 1112.09 479.829 1115.48 478.112C1118.86 476.395 1120.22 472.242 1118.5 468.853C1117.13 466.13 1114.18 464.75 1111.32 465.191C1106.34 456.738 1097.72 451.34 1088.37 450.5L1096.78 446.238L1097.81 448.287C1098.38 449.419 1099.76 449.871 1100.89 449.297L1109.21 445.077C1110.35 444.503 1110.8 443.122 1110.22 441.99L1106.08 433.796C1105.5 432.664 1104.13 432.212 1103 432.786Z" fill="#5398E9"/>
</g>
</g>
<g id="Group_29">
<g id="Group_30">
<path id="Vector_18" d="M1118.14 509.779C1115.41 507.043 1111.06 506.097 1107.43 507.937L1095.15 514.164C1091.52 516.005 1089.71 520.079 1090.3 523.901C1090.53 525.375 1092.25 526.106 1093.58 525.432L1117.43 513.33C1118.76 512.656 1119.19 510.834 1118.14 509.779Z" fill="#5398E9"/>
</g>
</g>
<g id="Group_31">
<g id="Group_32">
<path id="Vector_19" d="M1109.46 482.312L1081.25 466.375L1091.09 485.809C1093.89 485.452 1096.75 486.834 1098.1 489.501C1099.81 492.89 1098.46 497.043 1095.07 498.76C1091.69 500.477 1087.54 499.117 1085.82 495.728C1084.47 493.061 1085.05 489.938 1087 487.884L1077.16 468.451L1073.32 500.645C1073.19 501.732 1073.84 502.759 1074.88 503.1C1080.54 504.955 1085.39 508.582 1088.95 513.308C1090.08 512.01 1091.45 510.892 1093.08 510.067L1105.35 503.84C1106.98 503.015 1108.7 502.565 1110.41 502.421C1108.71 496.754 1108.65 490.692 1110.51 485.026C1110.85 483.987 1110.41 482.85 1109.46 482.312Z" fill="#5398E9"/>
</g>
</g>
<g id="Group_33">
<g id="Group_34">
<path id="Vector_20" d="M1090.92 490.566C1089.8 491.139 1089.34 492.522 1089.92 493.652C1090.49 494.783 1091.87 495.236 1093 494.663C1094.13 494.09 1094.58 492.707 1094.01 491.577C1093.44 490.447 1092.05 489.994 1090.92 490.566Z" fill="#5398E9"/>
</g>
</g>
</g>
</g>
</g>
<defs>
<clipPath id="clip0">
<rect width="310.734" height="311.118" fill="white" transform="translate(4.10449 29.2354)"/>
</clipPath>
<clipPath id="clip1">
<rect width="75.9261" height="75.9214" fill="white" transform="matrix(0.688857 -0.724898 0.724048 0.68975 88.3716 911.303)"/>
</clipPath>
<clipPath id="clip2">
<rect width="281.828" height="282.176" fill="white" transform="translate(1138.94 751.353)"/>
</clipPath>
<clipPath id="clip3">
<rect width="163.798" height="164" fill="white" transform="translate(1203.39 72)"/>
</clipPath>
<clipPath id="clip4">
<rect width="123.511" height="121.938" fill="white" transform="matrix(0.776612 -0.62998 0.629041 0.777372 284.711 690.885)"/>
</clipPath>
<clipPath id="clip5">
<rect width="98.1632" height="98.2744" fill="white" transform="matrix(0.979072 0.203516 -0.203035 0.979172 608.081 40.3274)"/>
</clipPath>
<clipPath id="clip6">
<rect width="78.3054" height="78.3626" fill="white" transform="matrix(0.891815 -0.452401 0.451513 0.892264 1035.21 467.173)"/>
</clipPath>
</defs>
</svg>
