<svg width="1297" height="142" viewBox="0 0 1297 142" fill="none" xmlns="http://www.w3.org/2000/svg">
<g id="Companies">
<g id="logo-24 1">
<path id="Vector" d="M1137.86 70.339L1137.58 70.3988L1146.32 79.1528V102.95H1138.84L1130.04 94.1362H1137.52V70.3389H1130.04V62.8474H1137.52V39.05L1146.32 47.8638V62.8472L1137.52 62.8474V70.3389L1137.86 70.339Z" fill="#515151"/>
<path id="Vector_2" d="M1161.28 70.339L1170.09 79.1528V71.6612L1161.28 62.8472V70.339Z" fill="#515151"/>
<path id="Vector_3" d="M1137.58 70.3988L1137.86 70.339H1161.28L1170.09 79.1528H1146.32L1137.58 70.3988Z" fill="#515151"/>
<path id="Vector_4" d="M1130.04 70.3388L1106.27 70.339L1115.07 79.1528H1130.04L1130.04 70.3388Z" fill="#515151"/>
<path id="Vector_5" d="M1178.26 45.0207H1181.91V56.3785H1188.18V59.4555H1178.26V45.0207Z" fill="#515151"/>
<path id="Vector_6" d="M1194.81 59.7653C1193.59 59.7653 1192.52 59.545 1191.59 59.1044C1190.67 58.6501 1189.96 58.0307 1189.45 57.2459C1188.96 56.4474 1188.71 55.532 1188.71 54.4993C1188.71 53.4668 1188.96 52.5582 1189.45 51.7735C1189.96 50.975 1190.67 50.3555 1191.59 49.915C1192.52 49.4606 1193.59 49.2334 1194.81 49.2334C1196.04 49.2334 1197.11 49.4606 1198.03 49.915C1198.95 50.3555 1199.66 50.975 1200.15 51.7735C1200.66 52.5582 1200.92 53.4668 1200.92 54.4993C1200.92 55.532 1200.66 56.4474 1200.15 57.2459C1199.66 58.0307 1198.95 58.6501 1198.03 59.1044C1197.11 59.545 1196.04 59.7653 1194.81 59.7653ZM1194.81 56.9362C1195.54 56.9362 1196.12 56.7228 1196.54 56.2961C1196.98 55.8554 1197.2 55.2566 1197.2 54.4993C1197.2 53.7422 1196.98 53.1502 1196.54 52.7233C1196.12 52.2829 1195.54 52.0626 1194.81 52.0626C1194.08 52.0626 1193.5 52.2829 1193.06 52.7233C1192.63 53.1502 1192.42 53.7422 1192.42 54.4993C1192.42 55.2566 1192.63 55.8554 1193.06 56.2961C1193.5 56.7228 1194.08 56.9362 1194.81 56.9362Z" fill="#515151"/>
<path id="Vector_7" d="M1207.73 64.2052C1207.07 64.2052 1206.41 64.1433 1205.73 64.0193C1205.07 63.8955 1204.5 63.7302 1204.02 63.5237V61.0043C1205.11 61.4724 1206.34 61.7065 1207.73 61.7065C1208.74 61.7065 1209.46 61.4999 1209.9 61.0869C1210.35 60.6739 1210.58 60.0683 1210.58 59.2697V58.6707C1210.18 59.0149 1209.69 59.2835 1209.1 59.4761C1208.52 59.669 1207.9 59.7653 1207.24 59.7653C1206.19 59.7653 1205.27 59.545 1204.48 59.1044C1203.68 58.6639 1203.05 58.0444 1202.6 57.2459C1202.16 56.4474 1201.94 55.5319 1201.94 54.4993C1201.94 53.4531 1202.16 52.5306 1202.6 51.7322C1203.04 50.9337 1203.66 50.3211 1204.45 49.8943C1205.25 49.4538 1206.17 49.2334 1207.2 49.2334C1208.61 49.2334 1209.78 49.6671 1210.7 50.5344V49.5432H1214.21V58.7741C1214.21 60.495 1213.68 61.8304 1212.62 62.7803C1211.58 63.7302 1209.95 64.2052 1207.73 64.2052ZM1208.15 56.9568C1208.71 56.9568 1209.21 56.8122 1209.65 56.5231C1210.09 56.234 1210.4 55.8486 1210.58 55.3667V53.6321C1210.39 53.1502 1210.07 52.7716 1209.63 52.4963C1209.19 52.2072 1208.7 52.0626 1208.15 52.0626C1207.4 52.0626 1206.81 52.2829 1206.35 52.7233C1205.9 53.1502 1205.67 53.7354 1205.67 54.4787C1205.67 55.2359 1205.9 55.8417 1206.35 56.2961C1206.81 56.7365 1207.4 56.9568 1208.15 56.9568Z" fill="#515151"/>
<path id="Vector_8" d="M1221.23 59.7653C1220.01 59.7653 1218.94 59.545 1218.02 59.1044C1217.1 58.6501 1216.38 58.0307 1215.87 57.2459C1215.38 56.4474 1215.13 55.532 1215.13 54.4993C1215.13 53.4668 1215.38 52.5582 1215.87 51.7735C1216.38 50.975 1217.1 50.3555 1218.02 49.915C1218.94 49.4606 1220.01 49.2334 1221.23 49.2334C1222.46 49.2334 1223.53 49.4606 1224.45 49.915C1225.37 50.3555 1226.08 50.975 1226.58 51.7735C1227.08 52.5582 1227.34 53.4668 1227.34 54.4993C1227.34 55.532 1227.08 56.4474 1226.58 57.2459C1226.08 58.0307 1225.37 58.6501 1224.45 59.1044C1223.53 59.545 1222.46 59.7653 1221.23 59.7653ZM1221.23 56.9362C1221.96 56.9362 1222.54 56.7228 1222.97 56.2961C1223.41 55.8554 1223.63 55.2566 1223.63 54.4993C1223.63 53.7422 1223.41 53.1502 1222.97 52.7233C1222.54 52.2829 1221.96 52.0626 1221.23 52.0626C1220.51 52.0626 1219.92 52.2829 1219.48 52.7233C1219.06 53.1502 1218.84 53.7422 1218.84 54.4993C1218.84 55.2566 1219.06 55.8554 1219.48 56.2961C1219.92 56.7228 1220.51 56.9362 1221.23 56.9362Z" fill="#515151"/>
<path id="Vector_9" d="M1178.26 64.7683H1181.91V79.2032H1178.26V64.7683Z" fill="#515151"/>
<path id="Vector_10" d="M1183.76 69.2909H1187.27V70.2821C1188.19 69.4147 1189.36 68.981 1190.77 68.981C1191.81 68.981 1192.72 69.2014 1193.52 69.6419C1194.31 70.0688 1194.93 70.6814 1195.37 71.4798C1195.81 72.2645 1196.03 73.1801 1196.03 74.2264C1196.03 75.2589 1195.81 76.1813 1195.37 76.9935C1194.93 77.792 1194.31 78.4116 1193.52 78.852C1192.73 79.2927 1191.82 79.5129 1190.77 79.5129C1190.11 79.5129 1189.48 79.4097 1188.88 79.2032C1188.29 79.0105 1187.79 78.742 1187.39 78.3978V83.7258H1183.76V69.2909ZM1189.83 76.6838C1190.57 76.6838 1191.17 76.4635 1191.62 76.023C1192.07 75.5825 1192.3 74.9835 1192.3 74.2264C1192.3 73.4691 1192.07 72.8772 1191.62 72.4504C1191.17 72.0099 1190.57 71.7897 1189.83 71.7897C1189.28 71.7897 1188.78 71.9342 1188.34 72.2233C1187.9 72.4985 1187.58 72.8772 1187.39 73.3591V75.1143C1187.58 75.5963 1187.9 75.9816 1188.34 76.2708C1188.78 76.5461 1189.28 76.6838 1189.83 76.6838Z" fill="#515151"/>
<path id="Vector_11" d="M1201.44 79.5129C1200.65 79.5129 1199.81 79.4303 1198.95 79.2651C1198.08 79.1137 1197.4 78.8935 1196.89 78.6044V75.9403C1197.45 76.2708 1198.12 76.5461 1198.91 76.7665C1199.71 76.973 1200.43 77.0762 1201.09 77.0762C1201.57 77.0762 1201.93 77.0417 1202.15 76.973C1202.37 76.9041 1202.48 76.7665 1202.48 76.5599C1202.48 76.3947 1202.4 76.2639 1202.25 76.1675C1202.11 76.0573 1201.85 75.9473 1201.47 75.8371C1201.09 75.7131 1200.66 75.5825 1200.17 75.4447C1199.33 75.197 1198.67 74.9422 1198.19 74.6806C1197.7 74.4191 1197.35 74.0888 1197.11 73.6895C1196.88 73.2903 1196.76 72.7876 1196.76 72.1819C1196.76 71.1081 1197.18 70.3096 1198.02 69.7865C1198.87 69.2496 1200.04 68.981 1201.51 68.981C1202.22 68.981 1202.97 69.0569 1203.75 69.2082C1204.55 69.3596 1205.15 69.5593 1205.55 69.8072V72.4298C1205.14 72.1545 1204.59 71.9273 1203.9 71.7482C1203.23 71.5693 1202.59 71.4798 1202 71.4798C1201.53 71.4798 1201.17 71.528 1200.91 71.6244C1200.65 71.707 1200.52 71.8584 1200.52 72.0788C1200.52 72.2852 1200.65 72.4436 1200.91 72.5536C1201.17 72.6638 1201.64 72.8016 1202.31 72.9667C1202.75 73.0768 1202.94 73.125 1202.87 73.1113C1203.75 73.3453 1204.43 73.6068 1204.91 73.896C1205.39 74.1851 1205.73 74.5293 1205.92 74.9286C1206.13 75.314 1206.23 75.8095 1206.23 76.4153C1206.23 77.3653 1205.82 78.1224 1204.99 78.6869C1204.18 79.2376 1203 79.5129 1201.44 79.5129Z" fill="#515151"/>
<path id="Vector_12" d="M1211.65 79.5129C1210.29 79.5129 1209.26 79.1343 1208.58 78.3772C1207.9 77.6199 1207.56 76.6219 1207.56 75.3828V69.2909H1211.19V74.9698C1211.19 76.1126 1211.71 76.6839 1212.74 76.6839C1213.21 76.6839 1213.64 76.5737 1214.02 76.3534C1214.41 76.1332 1214.72 75.8096 1214.97 75.3828V69.2909H1218.6V79.2032H1215.09V78.1294C1214.67 78.5838 1214.15 78.9279 1213.55 79.1619C1212.94 79.3959 1212.31 79.5129 1211.65 79.5129Z" fill="#515151"/>
<path id="Vector_13" d="M1220.46 69.2909H1223.82V70.3647C1224.23 69.9242 1224.71 69.5868 1225.24 69.3528C1225.78 69.105 1226.35 68.981 1226.95 68.981C1227.7 68.981 1228.29 69.0912 1228.73 69.3115C1229.18 69.5317 1229.54 69.8622 1229.82 70.3028C1230.23 69.8897 1230.73 69.5662 1231.32 69.3321C1231.92 69.0981 1232.51 68.981 1233.12 68.981C1234.42 68.981 1235.35 69.3184 1235.9 69.9929C1236.45 70.6538 1236.73 71.6106 1236.73 72.8635V79.2032H1233.26V73.3796C1233.26 72.8291 1233.16 72.4298 1232.95 72.1819C1232.75 71.9342 1232.4 71.8103 1231.92 71.8103C1231.3 71.8103 1230.8 72.0305 1230.42 72.471C1230.43 72.7051 1230.44 73.0631 1230.44 73.5449V79.2032H1226.97V73.2352C1226.97 72.7257 1226.88 72.3609 1226.71 72.1407C1226.53 71.9203 1226.21 71.8103 1225.76 71.8103C1225.06 71.8103 1224.45 72.2026 1223.94 72.9873V79.2032H1220.46V69.2909Z" fill="#515151"/>
<path id="Vector_14" d="M1178.78 85.9789H1184.12C1185.63 85.9789 1186.81 86.3369 1187.65 87.0528C1188.5 87.7686 1188.93 88.8287 1188.93 90.2329C1188.93 91.6509 1188.51 92.7111 1187.67 93.4131C1186.83 94.1153 1185.65 94.4664 1184.12 94.4664H1180.39V100.414H1178.78V85.9789ZM1184 93.1035C1185.03 93.1035 1185.84 92.897 1186.43 92.4839C1187.02 92.0572 1187.32 91.3069 1187.32 90.2329C1187.32 89.1453 1187.02 88.395 1186.43 87.9821C1185.84 87.5552 1185.03 87.3419 1184 87.3419H1180.39V93.1035H1184Z" fill="#515151"/>
<path id="Vector_15" d="M1190.98 85.1529H1192.57V100.414H1190.98V85.1529Z" fill="#515151"/>
<path id="Vector_16" d="M1199.46 100.723C1198.14 100.723 1197.12 100.366 1196.4 99.6496C1195.7 98.9338 1195.35 97.977 1195.35 96.7793V90.5014H1196.94V96.8619C1196.94 98.5964 1197.84 99.4638 1199.64 99.4638C1200.4 99.4638 1201.06 99.2986 1201.62 98.9682C1202.2 98.6378 1202.71 98.1146 1203.17 97.3988V90.5014H1204.76V100.414H1203.21V98.9269C1202.32 100.125 1201.07 100.723 1199.46 100.723Z" fill="#515151"/>
<path id="Vector_17" d="M1211.08 100.723C1210.44 100.723 1209.74 100.627 1209 100.434C1208.26 100.255 1207.68 100.028 1207.27 99.7529V98.4107C1207.79 98.7274 1208.39 98.982 1209.06 99.1747C1209.75 99.3675 1210.41 99.4638 1211.04 99.4638C1211.9 99.4638 1212.51 99.3468 1212.88 99.1127C1213.26 98.865 1213.46 98.5002 1213.46 98.0182C1213.46 97.6466 1213.37 97.3575 1213.21 97.151C1213.04 96.9306 1212.77 96.7379 1212.38 96.5728C1212 96.4075 1211.4 96.2148 1210.59 95.9946C1209.79 95.7742 1209.15 95.5471 1208.67 95.3131C1208.2 95.0652 1207.85 94.7555 1207.6 94.3837C1207.35 94.0121 1207.23 93.537 1207.23 92.9589C1207.23 92.064 1207.58 91.3826 1208.3 90.9144C1209.03 90.4326 1209.99 90.1917 1211.19 90.1917C1211.83 90.1917 1212.44 90.2537 1213 90.3775C1213.58 90.4877 1214.06 90.646 1214.45 90.8526V92.1948C1214.05 91.9746 1213.57 91.8024 1213 91.6785C1212.44 91.5409 1211.85 91.472 1211.25 91.472C1210.45 91.472 1209.85 91.589 1209.43 91.823C1209.02 92.0572 1208.82 92.4358 1208.82 92.9589C1208.82 93.3169 1208.88 93.5921 1209.02 93.7849C1209.17 93.9776 1209.44 94.1567 1209.83 94.3218C1210.22 94.4733 1210.86 94.666 1211.72 94.9C1212.96 95.2442 1213.82 95.6504 1214.3 96.1184C1214.8 96.5728 1215.04 97.2061 1215.04 98.0182C1215.04 98.858 1214.71 99.5189 1214.05 100.001C1213.41 100.483 1212.42 100.723 1211.08 100.723Z" fill="#515151"/>
</g>
<g id="logo-8 1">
<path id="Vector_18" d="M883.353 68.3986C882.865 68.8904 882.491 69.4841 882.258 70.1371C882.025 70.7902 881.939 71.4867 882.005 72.177L881.982 72.1538C882.051 72.9663 881.941 73.784 881.662 74.5498C881.382 75.3156 880.939 76.011 880.363 76.5876C879.787 77.1642 879.093 77.608 878.328 77.888C877.564 78.1681 876.747 78.2776 875.936 78.209L875.959 78.2322C874.989 78.1418 874.014 78.3533 873.168 78.8379C872.322 79.3226 871.645 80.0567 871.231 80.9403C870.817 81.824 870.685 82.814 870.853 83.7755C871.022 84.7369 871.482 85.623 872.171 86.3129C872.861 87.0028 873.746 87.463 874.706 87.6306C875.667 87.7982 876.655 87.6652 877.537 87.2496C878.419 86.834 879.151 86.1561 879.635 85.3084C880.118 84.4607 880.328 83.4843 880.237 82.5125L880.261 82.5357C880.193 81.7232 880.302 80.9055 880.582 80.1397C880.862 79.3739 881.305 78.6784 881.88 78.1019C882.456 77.5253 883.151 77.0815 883.915 76.8014C884.68 76.5214 885.496 76.4118 886.308 76.4804L886.283 76.4572C887.076 76.5286 887.874 76.3984 888.603 76.0788C889.332 75.7591 889.969 75.2603 890.455 74.6285C890.94 73.9967 891.258 73.2525 891.38 72.4647C891.502 71.677 891.423 70.8712 891.151 70.1221C890.879 69.3729 890.422 68.7047 889.824 68.1793C889.225 67.6539 888.504 67.2883 887.726 67.1165C886.949 66.9446 886.141 66.972 885.377 67.1961C884.613 67.4202 883.918 67.8338 883.357 68.3986H883.353Z" fill="#515151"/>
<path id="Vector_19" d="M873.85 75.1905L873.826 75.1672C874.515 75.2368 875.212 75.1521 875.865 74.9191C876.518 74.6861 877.111 74.3108 877.601 73.8202C878.091 73.3296 878.466 72.736 878.699 72.0824C878.933 71.4287 879.018 70.7314 878.949 70.0408L878.973 70.064C878.905 69.2515 879.014 68.4338 879.294 67.668C879.573 66.9022 880.017 66.2068 880.592 65.6302C881.168 65.0536 881.862 64.6098 882.627 64.3298C883.392 64.0497 884.208 63.9401 885.02 64.0087L884.995 63.9855C885.966 64.0768 886.941 63.866 887.787 63.3819C888.634 62.8978 889.311 62.164 889.726 61.2805C890.14 60.397 890.273 59.4069 890.105 58.4452C889.937 57.4835 889.478 56.5971 888.788 55.9067C888.099 55.2164 887.214 54.7558 886.253 54.5878C885.293 54.4198 884.304 54.5526 883.422 54.968C882.54 55.3834 881.807 56.0612 881.324 56.909C880.84 57.7568 880.63 58.7333 880.721 59.7053L880.698 59.6808C880.767 60.4933 880.657 61.3111 880.378 62.077C880.098 62.8429 879.655 63.5385 879.079 64.1151C878.504 64.6917 877.809 65.1355 877.044 65.4155C876.28 65.6955 875.463 65.8049 874.652 65.736L874.675 65.7606C873.985 65.691 873.289 65.7757 872.636 66.0087C871.983 66.2417 871.39 66.617 870.9 67.1076C870.41 67.5982 870.034 68.1918 869.801 68.8454C869.568 69.499 869.483 70.1964 869.552 70.887L869.529 70.8638C869.597 71.6763 869.487 72.4938 869.208 73.2595C868.928 74.0252 868.485 74.7206 867.909 75.2971C867.333 75.8736 866.639 76.3174 865.874 76.5976C865.11 76.8777 864.293 76.9874 863.482 76.9191L863.505 76.9423C862.535 76.851 861.56 77.0618 860.713 77.5459C859.867 78.0299 859.19 78.7638 858.775 79.6473C858.36 80.5307 858.228 81.5209 858.395 82.4826C858.563 83.4443 859.023 84.3307 859.712 85.0211C860.402 85.7114 861.287 86.172 862.247 86.3399C863.207 86.5079 864.196 86.3752 865.078 85.9598C865.961 85.5444 866.693 84.8666 867.177 84.0188C867.66 83.171 867.871 82.1945 867.779 81.2225L867.804 81.2457C867.735 80.4332 867.845 79.6155 868.124 78.8497C868.404 78.0839 868.847 77.3885 869.423 76.8119C869.999 76.2353 870.693 75.7915 871.458 75.5115C872.222 75.2314 873.039 75.1219 873.85 75.1905Z" fill="#515151"/>
<path id="Vector_20" d="M865.218 72.6014C865.706 72.1096 866.08 71.516 866.312 70.8629C866.545 70.2097 866.631 69.5132 866.564 68.823L866.588 68.8462C866.52 68.0335 866.629 67.2155 866.909 66.4496C867.189 65.6836 867.632 64.988 868.208 64.4113C868.784 63.8347 869.479 63.391 870.244 63.1111C871.009 62.8312 871.826 62.722 872.637 62.791L872.613 62.7677C873.583 62.8588 874.558 62.6479 875.404 62.1638C876.25 61.6798 876.926 60.9461 877.341 60.0629C877.755 59.1797 877.888 58.1899 877.72 57.2286C877.552 56.2673 877.093 55.3811 876.404 54.6911C875.715 54.001 874.83 53.5406 873.87 53.3726C872.91 53.2046 871.921 53.3372 871.04 53.7524C870.158 54.1675 869.425 54.845 868.942 55.6924C868.458 56.5398 868.248 57.5159 868.339 58.4875L868.315 58.4643C868.384 59.2768 868.275 60.0945 867.995 60.8603C867.715 61.6261 867.272 62.3215 866.696 62.8981C866.121 63.4747 865.426 63.9185 864.662 64.1985C863.897 64.4786 863.08 64.5881 862.269 64.5196L862.292 64.5428C861.499 64.4716 860.702 64.6019 859.973 64.9218C859.243 65.2416 858.607 65.7405 858.122 66.3723C857.636 67.0041 857.318 67.7484 857.197 68.5361C857.075 69.3239 857.154 70.1296 857.426 70.8787C857.698 71.6277 858.155 72.2958 858.753 72.8211C859.352 73.3465 860.073 73.7119 860.851 73.8837C861.628 74.0555 862.436 74.0281 863.2 73.8039C863.963 73.5798 864.658 73.1661 865.22 72.6014H865.218Z" fill="#515151"/>
<path id="Vector_21" d="M905.12 59.735H908.945V78.3793H905.12V59.735Z" fill="#515151"/>
<path id="Vector_22" d="M911.112 71.9951C911.107 70.6552 911.498 69.3439 912.238 68.2273C912.977 67.1106 914.031 66.2389 915.266 65.7224C916.5 65.206 917.86 65.068 919.173 65.3261C920.486 65.5842 921.692 66.2268 922.64 67.1723C923.588 68.1178 924.235 69.3238 924.498 70.6375C924.761 71.9512 924.628 73.3136 924.118 74.5519C923.607 75.7903 922.741 76.8491 921.629 77.594C920.516 78.339 919.209 78.7366 917.871 78.7366C916.983 78.7468 916.101 78.5795 915.279 78.2447C914.456 77.9098 913.708 77.414 913.079 76.7864C912.449 76.1587 911.951 75.4117 911.614 74.589C911.276 73.7663 911.105 72.8845 911.112 71.9951ZM920.804 71.9951C920.788 71.4176 920.602 70.8576 920.27 70.3851C919.938 69.9126 919.474 69.5486 918.937 69.3387C918.4 69.1287 917.812 69.0821 917.248 69.2046C916.685 69.3271 916.169 69.6133 915.767 70.0274C915.365 70.4416 915.093 70.9653 914.987 71.5331C914.88 72.1009 914.943 72.6876 915.168 73.2198C915.392 73.752 915.768 74.2062 916.249 74.5254C916.73 74.8447 917.294 75.015 917.871 75.015C918.266 75.0255 918.659 74.954 919.025 74.8049C919.391 74.6558 919.722 74.4323 919.998 74.1486C920.274 73.8648 920.487 73.527 920.626 73.1564C920.765 72.7857 920.825 72.3903 920.804 71.9951Z" fill="#515151"/>
<path id="Vector_23" d="M939.877 65.6096V77.7356C939.877 82.0261 936.536 83.8399 933.144 83.8399C931.95 83.9294 930.754 83.6878 929.688 83.1417C928.622 82.5956 927.727 81.766 927.1 80.7439L930.364 78.854C930.628 79.3868 931.047 79.8264 931.567 80.1138C932.086 80.4013 932.681 80.523 933.272 80.4627C933.649 80.515 934.033 80.4817 934.396 80.3653C934.759 80.2488 935.091 80.0521 935.368 79.7898C935.644 79.5274 935.859 79.2061 935.995 78.8497C936.131 78.4932 936.185 78.1107 936.153 77.7304V76.563C935.705 77.1119 935.135 77.5481 934.488 77.8364C933.841 78.1247 933.136 78.2572 932.429 78.2232C930.747 78.1701 929.151 77.4634 927.979 76.2527C926.808 75.042 926.153 73.4223 926.153 71.7365C926.153 70.0506 926.808 68.4309 927.979 67.2202C929.151 66.0095 930.747 65.3028 932.429 65.2497C933.136 65.2157 933.841 65.3482 934.488 65.6365C935.135 65.9248 935.705 66.361 936.153 66.9099V65.607L939.877 65.6096ZM936.154 71.7384C936.18 71.1209 936.021 70.5099 935.697 69.9839C935.373 69.458 934.899 69.0412 934.336 68.7871C933.774 68.5331 933.148 68.4534 932.54 68.5584C931.932 68.6634 931.369 68.9483 930.924 69.3763C930.479 69.8044 930.172 70.3561 930.043 70.9603C929.913 71.5646 929.968 72.1938 930.198 72.7669C930.429 73.3401 930.826 73.831 931.337 74.1765C931.849 74.5219 932.452 74.7061 933.069 74.7054C933.471 74.7335 933.875 74.677 934.253 74.5394C934.632 74.4019 934.978 74.1865 935.269 73.907C935.559 73.6275 935.788 73.2901 935.941 72.9166C936.093 72.5431 936.166 72.1417 936.154 71.7384Z" fill="#515151"/>
<path id="Vector_24" d="M942.044 71.9951C942.038 70.6552 942.43 69.3439 943.17 68.2273C943.909 67.1106 944.963 66.2389 946.197 65.7224C947.432 65.206 948.791 65.068 950.104 65.3261C951.417 65.5842 952.624 66.2268 953.572 67.1723C954.52 68.1178 955.166 69.3238 955.429 70.6375C955.692 71.9512 955.56 73.3136 955.049 74.5519C954.539 75.7903 953.672 76.8491 952.56 77.594C951.448 78.339 950.14 78.7366 948.802 78.7366C947.914 78.7468 947.033 78.5795 946.21 78.2447C945.387 77.9098 944.64 77.414 944.01 76.7864C943.381 76.1587 942.883 75.4117 942.545 74.589C942.208 73.7663 942.037 72.8845 942.044 71.9951ZM951.735 71.9951C951.72 71.4176 951.534 70.8576 951.202 70.3851C950.87 69.9126 950.406 69.5486 949.869 69.3387C949.331 69.1287 948.744 69.0821 948.18 69.2046C947.616 69.3271 947.101 69.6133 946.699 70.0274C946.297 70.4416 946.025 70.9653 945.918 71.5331C945.812 72.1009 945.875 72.6876 946.099 73.2198C946.324 73.752 946.7 74.2062 947.181 74.5254C947.661 74.8447 948.226 75.015 948.802 75.015C949.198 75.0255 949.591 74.954 949.957 74.8049C950.323 74.6558 950.654 74.4323 950.93 74.1486C951.205 73.8648 951.419 73.527 951.558 73.1564C951.696 72.7857 951.757 72.3903 951.735 71.9951Z" fill="#515151"/>
<path id="Vector_25" d="M957.345 62.1872C957.345 61.7326 957.48 61.2881 957.732 60.9101C957.984 60.5321 958.343 60.2374 958.762 60.0634C959.182 59.8895 959.643 59.8439 960.088 59.9326C960.534 60.0213 960.943 60.2403 961.264 60.5618C961.585 60.8832 961.803 61.2928 961.892 61.7388C961.981 62.1847 961.935 62.6469 961.761 63.0669C961.588 63.487 961.293 63.846 960.916 64.0986C960.538 64.3512 960.095 64.486 959.641 64.486C959.034 64.48 958.453 64.2358 958.024 63.806C957.595 63.3762 957.351 62.795 957.345 62.1872ZM957.732 65.6096H961.559V78.3806H957.726L957.732 65.6096Z" fill="#515151"/>
<path id="Vector_26" d="M978.078 71.9951C978.122 72.8391 977.999 73.6836 977.716 74.4799C977.433 75.2762 976.996 76.0087 976.43 76.6352C975.863 77.2617 975.179 77.7699 974.416 78.1306C973.652 78.4912 972.825 78.6972 971.982 78.7367C971.273 78.7754 970.565 78.6557 969.908 78.3861C969.251 78.1166 968.662 77.704 968.184 77.1783V83.4877H964.358V65.6096H968.184V66.8093C968.662 66.284 969.251 65.8718 969.908 65.6025C970.565 65.3332 971.273 65.2136 971.982 65.2523C972.826 65.2916 973.653 65.4975 974.416 65.8582C975.179 66.2188 975.864 66.7271 976.431 67.3538C976.997 67.9805 977.434 68.7132 977.717 69.5098C978 70.3063 978.122 71.151 978.078 71.9951ZM974.252 71.9951C974.237 71.3974 974.046 70.8174 973.704 70.3277C973.361 69.838 972.882 69.4603 972.327 69.242C971.771 69.0236 971.163 68.9742 970.579 69.1001C969.996 69.2259 969.462 69.5213 969.045 69.9494C968.629 70.3774 968.347 70.9191 968.236 71.5065C968.125 72.094 968.19 72.7012 968.422 73.2521C968.654 73.803 969.043 74.2731 969.54 74.6037C970.038 74.9343 970.621 75.1105 971.218 75.1105C971.628 75.1287 972.037 75.06 972.419 74.9089C972.8 74.7577 973.146 74.5275 973.432 74.2334C973.719 73.9392 973.94 73.5877 974.081 73.202C974.222 72.8163 974.281 72.405 974.252 71.9951Z" fill="#515151"/>
<path id="Vector_27" d="M989.883 74.548C989.883 77.4853 987.334 78.7366 984.58 78.7366C983.467 78.8376 982.35 78.6019 981.373 78.0601C980.395 77.5183 979.602 76.6953 979.097 75.6974L982.411 73.8076C982.545 74.2688 982.833 74.67 983.227 74.9442C983.621 75.2185 984.097 75.3491 984.575 75.3143C985.492 75.3143 985.952 75.0331 985.952 74.5235C985.952 73.1174 979.678 73.8592 979.678 69.4409C979.678 66.6558 982.025 65.2523 984.677 65.2523C985.674 65.2207 986.661 65.4575 987.536 65.9381C988.41 66.4186 989.14 67.1253 989.649 67.9845L986.385 69.7466C986.242 69.4121 986.003 69.1272 985.7 68.9274C985.396 68.7276 985.04 68.6217 984.677 68.623C984.013 68.623 983.605 68.881 983.605 69.3377C983.61 70.7941 989.883 69.8227 989.883 74.548Z" fill="#515151"/>
<path id="Vector_28" d="M1003.86 65.6096V78.3806H1000.03V77.1796C999.591 77.7096 999.03 78.1271 998.397 78.398C997.763 78.6689 997.074 78.7854 996.387 78.738C993.81 78.738 991.621 76.8997 991.621 73.4489V65.6096H995.446V72.8878C995.414 73.192 995.449 73.4995 995.548 73.7889C995.646 74.0783 995.807 74.3427 996.018 74.5637C996.229 74.7847 996.486 74.957 996.77 75.0686C997.054 75.1802 997.36 75.2283 997.664 75.2098C999.067 75.2098 1000.04 74.3932 1000.04 72.5795V65.6135L1003.86 65.6096Z" fill="#515151"/>
<path id="Vector_29" d="M1025.79 70.5387V78.3793H1021.97V70.8702C1021.97 69.5931 1021.36 68.7766 1020.13 68.7766C1018.86 68.7766 1018.14 69.6705 1018.14 71.1773V78.3793H1014.32V70.8702C1014.32 69.5931 1013.71 68.7766 1012.48 68.7766C1011.21 68.7766 1010.49 69.6705 1010.49 71.1773V78.3793H1006.67V65.6083H1010.49V66.7822C1010.89 66.2614 1011.41 65.8484 1012.01 65.581C1012.6 65.3135 1013.26 65.2 1013.91 65.251C1014.57 65.2189 1015.22 65.3573 1015.8 65.6525C1016.39 65.9478 1016.89 66.3899 1017.25 66.9357C1017.67 66.3647 1018.24 65.9106 1018.88 65.616C1019.53 65.3214 1020.24 65.1958 1020.95 65.251C1023.88 65.2523 1025.79 67.346 1025.79 70.5387Z" fill="#515151"/>
<path id="Vector_30" d="M1029.03 65.5309C1030.6 65.5309 1031.87 64.258 1031.87 62.6878C1031.87 61.1175 1030.6 59.8446 1029.03 59.8446C1027.46 59.8446 1026.19 61.1175 1026.19 62.6878C1026.19 64.258 1027.46 65.5309 1029.03 65.5309Z" fill="#515151"/>
</g>
<g id="logo-7 1">
<path id="Vector_31" d="M90.5347 62.5794H94.7871V79.804H90.5347V62.5794ZM96.4739 73.3004C96.4739 69.0404 99.0821 66.4986 103.108 66.4986C107.133 66.4986 109.742 69.0404 109.742 73.3004C109.742 77.5604 107.19 80.1164 103.108 80.1164C99.0254 80.1164 96.4739 77.6314 96.4739 73.3004ZM105.475 73.3004C105.475 70.9574 104.554 69.58 103.108 69.58C101.662 69.58 100.755 71 100.755 73.3004C100.755 75.6008 101.648 76.9924 103.108 76.9924C104.568 76.9924 105.475 75.686 105.475 73.3146V73.3004ZM111.343 80.6418H115.426C115.62 81.0742 115.948 81.4322 116.362 81.6625C116.776 81.8927 117.253 81.983 117.722 81.9198C119.338 81.9198 120.188 81.0394 120.188 79.7614V77.3758H120.103C119.765 78.107 119.215 78.7196 118.525 79.1347C117.835 79.5498 117.037 79.7483 116.234 79.7046C113.129 79.7046 111.074 77.3332 111.074 73.2578C111.074 69.1824 113.03 66.6122 116.29 66.6122C117.119 66.5797 117.938 66.8016 118.637 67.2483C119.336 67.6949 119.882 68.345 120.203 69.1114V66.74H124.455V79.662C124.455 82.7718 121.719 84.703 117.679 84.703C113.923 84.703 111.584 83.0132 111.343 80.656V80.6418ZM120.203 73.2862C120.203 71.213 119.253 69.9066 117.75 69.9066C116.248 69.9066 115.326 71.1988 115.326 73.2862C115.326 75.3736 116.234 76.5522 117.75 76.5522C119.267 76.5522 120.203 75.402 120.203 73.3004V73.2862ZM126.057 73.2862C126.057 69.0262 128.665 66.4844 132.691 66.4844C136.716 66.4844 139.339 69.0262 139.339 73.2862C139.339 77.5462 136.787 80.1022 132.691 80.1022C128.594 80.1022 126.057 77.6314 126.057 73.3004V73.2862ZM135.058 73.2862C135.058 70.9432 134.136 69.5658 132.691 69.5658C131.245 69.5658 130.408 71 130.408 73.3146C130.408 75.6292 131.301 77.0066 132.747 77.0066C134.193 77.0066 135.058 75.686 135.058 73.3146V73.2862ZM140.955 63.6444C140.943 63.2143 141.06 62.7906 141.29 62.4269C141.519 62.0632 141.851 61.7761 142.244 61.6017C142.637 61.4274 143.072 61.3738 143.495 61.4477C143.918 61.5217 144.31 61.7198 144.62 62.0169C144.931 62.3141 145.147 62.697 145.24 63.117C145.333 63.537 145.299 63.9753 145.144 64.3762C144.988 64.7772 144.717 65.1227 144.364 65.3691C144.012 65.6155 143.595 65.7516 143.166 65.7602C142.881 65.7798 142.596 65.7402 142.327 65.6439C142.058 65.5476 141.812 65.3968 141.605 65.2007C141.397 65.0047 141.232 64.7678 141.12 64.5048C141.008 64.2419 140.952 63.9586 140.955 63.6728V63.6444ZM140.955 66.7684H145.207V79.804H140.955V66.7684ZM160.643 73.2862C160.643 77.5462 158.758 79.9744 155.526 79.9744C154.698 80.0277 153.872 79.8248 153.163 79.393C152.453 78.9613 151.892 78.3216 151.557 77.5604H151.472V83.9788H147.22V66.74H151.472V69.0688H151.557C151.877 68.2951 152.426 67.6387 153.132 67.189C153.837 66.7393 154.663 66.5181 155.498 66.5554C158.758 66.6122 160.7 69.0546 160.7 73.3146L160.643 73.2862ZM156.391 73.2862C156.391 71.213 155.441 69.8924 153.953 69.8924C152.464 69.8924 151.515 71.2272 151.501 73.2862C151.486 75.3452 152.464 76.6658 153.953 76.6658C155.441 76.6658 156.391 75.3736 156.391 73.3146V73.2862ZM167.943 66.4702C171.473 66.4702 173.613 68.1458 173.713 70.8296H169.843C169.843 69.9066 169.077 69.3244 167.901 69.3244C166.724 69.3244 166.2 69.7788 166.2 70.4462C166.2 71.1136 166.668 71.3266 167.617 71.5254L170.339 72.0792C172.933 72.633 174.039 73.6838 174.039 75.6576C174.039 78.3556 171.586 80.088 167.972 80.088C164.357 80.088 161.99 78.3556 161.806 75.7002H165.902C166.03 76.6658 166.795 77.2338 168.043 77.2338C169.29 77.2338 169.857 76.822 169.857 76.1404C169.857 75.4588 169.46 75.3168 168.44 75.1038L165.987 74.5784C163.45 74.053 162.118 72.704 162.118 70.716C162.146 68.16 164.428 66.4986 167.943 66.4986V66.4702ZM188.228 79.7756H184.131V77.3474H184.046C183.821 78.1627 183.324 78.8762 182.638 79.3696C181.952 79.863 181.119 80.1064 180.275 80.0596C179.629 80.0964 178.983 79.9938 178.38 79.7589C177.777 79.5239 177.231 79.162 176.78 78.6975C176.328 78.2331 175.981 77.6771 175.763 77.0669C175.544 76.4567 175.459 75.8066 175.513 75.1606V66.74H179.765V74.1808C179.765 75.7286 180.559 76.5522 181.877 76.5522C182.186 76.5528 182.492 76.4873 182.774 76.3599C183.056 76.2325 183.307 76.0462 183.511 75.8136C183.715 75.581 183.867 75.3073 183.957 75.011C184.047 74.7147 184.072 74.4026 184.032 74.0956V66.74H188.284L188.228 79.7756ZM190.283 66.74H194.394V69.2534H194.479C194.704 68.4489 195.19 67.7422 195.859 67.2437C196.529 66.7452 197.344 66.4832 198.178 66.4986C199.027 66.4305 199.87 66.6849 200.539 67.2112C201.209 67.7374 201.657 68.4969 201.793 69.3386H201.878C202.135 68.4879 202.667 67.7472 203.391 67.233C204.115 66.7188 204.989 66.4604 205.875 66.4986C206.454 66.4791 207.029 66.5818 207.566 66.7999C208.102 67.0179 208.586 67.3466 208.987 67.7644C209.388 68.1822 209.697 68.6799 209.893 69.2251C210.09 69.7704 210.17 70.3509 210.128 70.929V79.804H205.875V72.065C205.875 70.645 205.237 69.9918 204.047 69.9918C203.781 69.9896 203.518 70.0444 203.276 70.1526C203.033 70.2608 202.816 70.4198 202.64 70.619C202.464 70.8182 202.333 71.0529 202.255 71.3072C202.178 71.5616 202.155 71.8297 202.19 72.0934V79.804H198.15V72.0082C198.15 70.7018 197.512 69.9918 196.35 69.9918C196.081 69.9919 195.816 70.049 195.571 70.1594C195.326 70.2698 195.107 70.4309 194.929 70.6322C194.751 70.8335 194.617 71.0703 194.537 71.3271C194.457 71.5839 194.432 71.8547 194.464 72.1218V79.804H190.212L190.283 66.74Z" fill="#515151"/>
<path id="Vector_32" d="M78.6421 63.3604C77.9207 61.708 76.966 60.1681 75.8071 58.788C74.094 56.6869 71.9562 54.973 69.5343 53.7592C67.1124 52.5454 64.4613 51.8592 61.7556 51.7457C59.0499 51.6323 56.3509 52.0941 53.8362 53.1009C51.3215 54.1076 49.0481 55.6365 47.1657 57.5869C45.2833 59.5372 43.8346 61.8648 42.9149 64.4164C41.9951 66.9681 41.6252 69.6859 41.8296 72.3911C42.0339 75.0962 42.8078 77.7274 44.1003 80.1113C45.3928 82.4953 47.1746 84.578 49.3285 86.2224C50.7106 87.2986 52.2377 88.1735 53.8645 88.821C56.1453 89.7573 58.5863 90.2396 61.0511 90.241C66.139 90.2297 71.0149 88.198 74.61 84.5913C78.205 80.9845 80.2259 76.097 80.2296 71C80.2334 68.3709 79.6928 65.7696 78.6421 63.3604ZM61.0369 55.6498C63.2504 55.6495 65.4372 56.1342 67.444 57.0698C66.9546 57.2816 66.4401 57.4295 65.9131 57.51C64.1789 57.7615 62.5725 58.568 61.3334 59.8092C60.0944 61.0504 59.2893 62.6598 59.0383 64.397C58.9281 65.3713 58.4858 66.2777 57.786 66.9632C57.0862 67.6487 56.1717 68.0714 55.1969 68.16C53.4628 68.4115 51.8563 69.218 50.6173 70.4592C49.3783 71.7004 48.5732 73.3098 48.3221 75.047C48.2371 75.9734 47.8426 76.844 47.2023 77.5178C46.0976 75.1794 45.6013 72.5991 45.7597 70.0169C45.9181 67.4348 46.7259 64.9347 48.108 62.7494C49.4902 60.5641 51.4017 58.7646 53.6647 57.5183C55.9277 56.272 58.4687 55.6195 61.0511 55.6214L61.0369 55.6498ZM49.3144 80.94C49.4845 80.7838 49.6546 80.6418 49.8247 80.4714C51.0857 79.2466 51.8952 77.6298 52.121 75.8848C52.2125 74.9039 52.6497 73.9877 53.3542 73.3004C54.0321 72.5935 54.9446 72.1592 55.9198 72.0792C57.654 71.8277 59.2605 71.0212 60.4995 69.78C61.7385 68.5388 62.5436 66.9294 62.7946 65.1922C62.8559 64.1663 63.2954 63.1997 64.0278 62.48C64.7225 61.7868 65.6436 61.3683 66.6218 61.3014C68.215 61.0818 69.7008 60.3723 70.8743 59.2708C72.2105 60.3813 73.3426 61.7173 74.2195 63.2184C74.1657 63.2913 74.1039 63.358 74.0353 63.4172C73.3586 64.1303 72.4474 64.5742 71.4696 64.6668C69.7337 64.9139 68.1248 65.719 66.885 66.961C65.6451 68.203 64.8415 69.8148 64.5948 71.5538C64.4949 72.5314 64.0607 73.4443 63.3658 74.1378C62.6709 74.8314 61.758 75.263 60.7818 75.3594C59.0426 75.6089 57.4301 76.4139 56.1839 77.6546C54.9377 78.8953 54.1243 80.5057 53.8645 82.2464C53.7882 82.9404 53.5503 83.6067 53.1699 84.1918C51.7156 83.3268 50.413 82.2282 49.3144 80.94ZM61.0369 86.4212C59.5986 86.4228 58.1671 86.222 56.7845 85.8248C57.2575 84.9416 57.5649 83.979 57.6917 82.9848C57.791 82.0094 58.2232 81.0982 58.9152 80.4049C59.6073 79.7116 60.5169 79.2787 61.4905 79.1792C63.2273 78.9305 64.8369 78.1253 66.0787 76.8838C67.3205 75.6424 68.1277 74.0315 68.3795 72.2922C68.4788 71.3168 68.911 70.4056 69.6031 69.7123C70.2951 69.019 71.2047 68.5861 72.1783 68.4866C73.4853 68.3163 74.731 67.8288 75.8071 67.0666C76.4047 69.3356 76.4754 71.7116 76.014 74.0123C75.5526 76.313 74.5713 78.4772 73.1453 80.339C71.7193 82.2007 69.8865 83.7105 67.7876 84.7525C65.6887 85.7945 63.3794 86.3411 61.0369 86.3502V86.4212Z" fill="#515151"/>
</g>
<g id="logo-9 1">
<path id="Vector_33" d="M671.247 77.4325H664.652V59.7749H671.247V77.4325ZM665.296 76.7875H670.603V60.4199H665.296V76.7875ZM680.424 77.4325H673.962V59.7749H687.464C689.398 59.6181 691.324 60.1619 692.892 61.3075C693.567 61.9258 694.09 62.6919 694.42 63.546C694.751 64.4001 694.88 65.3191 694.797 66.2314C694.893 67.8077 694.392 69.3625 693.394 70.5851C692.213 71.9422 690.247 72.6414 687.553 72.6659C686.874 72.684 681.787 72.6659 680.428 72.6659L680.424 77.4325ZM674.602 76.7875H679.78V72.0145H680.103C680.169 72.0145 686.773 72.0351 687.537 72.0145C690.048 71.9925 691.852 71.3695 692.907 70.153C693.796 69.0468 694.237 67.6467 694.144 66.2301C694.223 65.4127 694.113 64.5881 693.823 63.8201C693.532 63.0521 693.069 62.3614 692.469 61.8015C691.016 60.7568 689.237 60.2663 687.455 60.4187H674.606L674.602 76.7875ZM686.096 68.6992H679.736V63.8926H686.138C686.592 63.8298 687.054 63.8829 687.482 64.0468C687.91 64.2108 688.29 64.4803 688.586 64.8305C688.854 65.278 688.981 65.7966 688.949 66.3178C688.973 66.8017 688.869 67.2834 688.646 67.7136C688.341 68.0824 687.946 68.3663 687.499 68.538C687.052 68.7097 686.569 68.7634 686.096 68.694V68.6992ZM680.38 68.0542H686.096C687.152 68.0542 687.806 67.8336 688.096 67.3795C688.256 67.0494 688.328 66.6839 688.306 66.3178C688.334 65.9335 688.251 65.5492 688.066 65.211L688.059 65.1994C687.752 64.7479 687.143 64.5376 686.138 64.5376H680.38V68.0542ZM706.551 77.693C700.767 77.693 697.315 76.2547 696 73.2967C695.785 72.7254 695.639 72.1304 695.565 71.5243L695.508 71.1527H702.389L702.434 71.4236C702.487 71.6987 702.604 71.9576 702.774 72.1796C703.046 72.5085 703.953 73.0607 706.962 73.0607C710.579 73.0607 710.579 72.4247 710.579 72.0828C710.579 71.5062 710.16 71.3088 707.211 70.9941L706.65 70.9412C705.54 70.8367 704.136 70.7038 703.494 70.6484C698.084 70.1582 695.669 68.4747 695.669 65.1917C695.669 61.7435 699.779 59.5157 706.141 59.5157C711.331 59.5157 714.675 60.8856 716.078 63.5908C716.411 64.22 716.634 64.9014 716.739 65.6057L716.784 65.9682H709.895L709.867 65.6767C709.84 65.4489 709.742 65.2351 709.588 65.0652C709.331 64.7195 708.517 64.148 705.989 64.148C702.886 64.148 702.459 64.5454 702.459 64.9736C702.459 65.5451 703.439 65.7476 706.581 66.0843C707.891 66.1914 709.997 66.4081 710.718 66.4958C715.254 66.9886 717.277 68.6308 717.277 71.8223C717.279 74.499 715.417 77.693 706.551 77.693ZM696.26 71.7977C696.325 72.2232 696.436 72.6402 696.591 73.0413C697.789 75.7361 701.048 77.048 706.551 77.048C711.152 77.048 716.638 76.145 716.638 71.8223C716.638 68.9933 714.848 67.5923 710.65 67.137C709.929 67.0493 707.835 66.8338 706.528 66.7255C703.179 66.3617 701.817 66.1682 701.817 64.9736C701.817 63.7378 703.284 63.503 705.992 63.503C708.132 63.503 709.514 63.89 710.1 64.6705C710.26 64.8628 710.381 65.0845 710.455 65.3232H716.038C715.926 64.8243 715.748 64.3424 715.51 63.89C714.222 61.4145 711.075 60.1607 706.144 60.1607C700.174 60.1607 696.316 62.1356 696.316 65.1917C696.316 68.1071 698.481 69.5467 703.554 70.0059C704.198 70.0614 705.6 70.1943 706.713 70.3001L707.278 70.3529C710.017 70.6419 711.226 70.8225 711.226 72.0828C711.226 73.4399 709.663 73.7057 706.965 73.7057C704.468 73.7057 702.892 73.3303 702.282 72.5911C702.094 72.3554 701.953 72.0862 701.865 71.7977H696.26ZM729.514 77.6711C722.79 77.6711 719.081 74.9479 719.081 70.0021V59.7749H725.588V70.0021C725.588 71.6984 727.104 72.6711 729.746 72.6711C732.271 72.6711 733.839 71.6558 733.839 70.024V59.7749H740.279V70.5439C740.286 75.0731 736.358 77.6711 729.511 77.6711H729.514ZM719.725 60.4199V70.0021C719.725 76.1141 725.854 77.0261 729.514 77.0261C733.299 77.0261 739.646 76.1837 739.646 70.5439V60.4199H734.493V70.024C734.493 72.0235 732.633 73.3161 729.757 73.3161C726.75 73.3161 724.954 72.0777 724.954 70.0021V60.4199H719.725ZM767.572 77.4325H761.43V69.4603L757.947 77.4325H752.59L749.143 69.4757V77.4325H742.979V59.7749H751.087L755.299 69.5106L759.714 59.7749H767.58L767.572 77.4325ZM762.074 76.7875H766.928V60.4199H760.124L755.278 71.0999L750.659 60.4199H743.618V76.7875H748.494V66.372L753.002 76.7913H757.511L762.067 66.3875L762.074 76.7875ZM581.544 60.0974H575.678V77.11H591.887V72.5808H581.544V60.0974ZM603.728 59.7104C596.24 59.7104 592.302 63.2644 592.302 68.4824C592.302 74.3777 596.436 77.368 603.728 77.368C611.755 77.368 615.132 73.9004 615.132 68.4824C615.132 62.9806 611.323 59.7079 603.728 59.7079V59.7104ZM603.706 64.1313C604.216 64.1289 604.725 64.1586 605.231 64.2203L598.673 70.7877C598.363 70.0847 598.212 69.3218 598.23 68.5534C598.23 65.8844 599.572 64.1287 603.706 64.1287V64.1313ZM603.728 73.0168C603.237 73.019 602.746 72.9914 602.258 72.9342L608.828 66.3552C609.126 67.0465 609.269 67.7953 609.246 68.5482C609.246 71.145 608.01 73.0142 603.728 73.0142V73.0168ZM626.754 70.6948H632.792C632.703 71.1144 632.518 71.5075 632.251 71.8429C630.999 72.8641 629.402 73.361 627.793 73.2296C626.983 73.3164 626.164 73.2278 625.391 72.9699C624.618 72.7119 623.91 72.2906 623.314 71.7345C622.703 70.8378 622.413 69.761 622.491 68.6785C622.392 67.5443 622.707 66.4127 623.378 65.4935C624.222 64.5389 625.65 64.1274 627.75 64.1274C629.086 64.0166 630.42 64.3602 631.537 65.1026C631.889 65.3827 632.152 65.7591 632.295 66.1862H637.894C637.853 65.4825 637.684 64.7922 637.396 64.1493C636.055 61.4184 632.937 59.793 627.637 59.793C623.027 59.793 619.932 61.2017 618.223 63.3263C617.094 64.8606 616.515 66.7312 616.578 68.636C616.505 70.5838 617.07 72.5022 618.186 74.0991C619.875 76.2921 622.882 77.3705 626.497 77.3705C628.9 77.5384 631.286 76.8644 633.248 75.4639L633.4 77.11H638.051V67.0325H626.754V70.6948ZM651.253 59.7066C643.767 59.7066 639.828 63.2605 639.828 68.4786C639.828 74.3739 643.96 77.3641 651.253 77.3641C659.282 77.3641 662.658 73.8966 662.658 68.4786C662.658 62.9806 658.849 59.7079 651.253 59.7079V59.7066ZM651.233 64.1274C651.729 64.1259 652.225 64.1544 652.718 64.2125L646.186 70.758C645.885 70.0629 645.739 69.3107 645.757 68.5534C645.752 65.8844 647.099 64.1287 651.233 64.1287V64.1274ZM651.253 73.0129C650.749 73.0151 650.245 72.9858 649.745 72.9252L656.336 66.323C656.646 67.0235 656.795 67.785 656.77 68.5508C656.773 71.145 655.541 73.0142 651.253 73.0142V73.0129Z" fill="#515151"/>
</g>
<g id="logo-6 1">
<path id="Vector_34" d="M356.258 60.5025H360.123V79.143H356.258V60.5025Z" fill="#515151"/>
<path id="Vector_35" d="M362.287 72.7575C362.287 71.4164 362.684 70.1055 363.429 68.9909C364.174 67.8764 365.232 67.0083 366.47 66.4969C367.708 65.9855 369.07 65.8536 370.383 66.1181C371.696 66.3826 372.901 67.0314 373.845 67.9825C374.789 68.9335 375.43 70.1439 375.687 71.4601C375.943 72.7764 375.804 74.1393 375.286 75.3761C374.768 76.613 373.895 77.668 372.778 78.4075C371.661 79.147 370.35 79.5377 369.011 79.53C368.122 79.5369 367.242 79.3662 366.42 79.0278C365.599 78.6895 364.853 78.1903 364.227 77.5595C363.601 76.9287 363.106 76.179 362.773 75.3544C362.44 74.5298 362.275 73.6469 362.287 72.7575ZM371.973 72.7575C371.958 72.1793 371.773 71.6185 371.441 71.1451C371.109 70.6717 370.646 70.3068 370.108 70.096C369.57 69.8852 368.982 69.8379 368.418 69.96C367.853 70.082 367.337 70.3681 366.934 70.7823C366.531 71.1966 366.259 71.7206 366.152 72.289C366.044 72.8573 366.107 73.4447 366.331 73.9776C366.556 74.5105 366.932 74.9654 367.413 75.2853C367.894 75.6052 368.459 75.7759 369.036 75.7761C369.43 75.7838 369.82 75.7101 370.184 75.5598C370.547 75.4094 370.876 75.1856 371.149 74.9023C371.422 74.619 371.634 74.2823 371.772 73.9133C371.909 73.5442 371.969 73.1508 371.948 72.7575H371.973Z" fill="#515151"/>
<path id="Vector_36" d="M391.024 66.372V78.5109C391.024 82.7937 387.675 84.6126 384.288 84.6126C383.093 84.7108 381.894 84.4731 380.827 83.9261C379.76 83.3791 378.866 82.5447 378.246 81.5166L381.505 79.6332C381.769 80.1664 382.19 80.6064 382.71 80.8945C383.23 81.1826 383.825 81.3051 384.416 81.2457C384.793 81.2922 385.176 81.2547 385.536 81.136C385.897 81.0173 386.227 80.8202 386.502 80.5589C386.778 80.2976 386.993 79.9785 387.131 79.6245C387.269 79.2704 387.327 78.8902 387.302 78.5109V77.337C386.852 77.883 386.282 78.3166 385.635 78.6032C384.989 78.8898 384.285 79.0216 383.579 78.9882C381.871 78.9882 380.233 78.3087 379.025 77.0991C377.817 75.8894 377.139 74.2489 377.139 72.5382C377.139 70.8276 377.817 69.187 379.025 67.9774C380.233 66.7678 381.871 66.0882 383.579 66.0882C384.285 66.0548 384.989 66.1866 385.635 66.4732C386.282 66.7599 386.852 67.1934 387.302 67.7394V66.4494L391.024 66.372ZM387.302 72.4995C387.328 71.8823 387.168 71.2716 386.845 70.7458C386.521 70.2199 386.048 69.8031 385.485 69.5489C384.923 69.2947 384.298 69.2146 383.69 69.3191C383.082 69.4236 382.519 69.7078 382.074 70.1352C381.629 70.5626 381.321 71.1137 381.191 71.7175C381.061 72.3213 381.114 72.9503 381.344 73.5236C381.574 74.0968 381.969 74.5882 382.48 74.9344C382.991 75.2807 383.594 75.466 384.21 75.4665C384.613 75.4956 385.017 75.4397 385.397 75.3026C385.776 75.1656 386.123 74.9502 386.414 74.6706C386.705 74.391 386.935 74.0533 387.088 73.6794C387.241 73.3054 387.314 72.9034 387.302 72.4995Z" fill="#515151"/>
<path id="Vector_37" d="M393.201 72.7575C393.201 71.4175 393.598 70.1076 394.342 68.9936C395.085 67.8796 396.142 67.0115 397.379 66.4993C398.615 65.9871 399.976 65.8537 401.288 66.1161C402.6 66.3785 403.805 67.0248 404.75 67.9732C405.695 68.9217 406.338 70.1296 406.598 71.4442C406.857 72.7588 406.722 74.1209 406.208 75.3582C405.694 76.5955 404.825 77.6523 403.711 78.3949C402.598 79.1375 401.289 79.5326 399.951 79.53C399.061 79.5387 398.178 79.3693 397.355 79.0318C396.531 78.6944 395.783 78.1956 395.154 77.5649C394.526 76.9341 394.029 76.1839 393.694 75.3584C393.358 74.5329 393.191 73.6487 393.201 72.7575ZM402.888 72.7575C402.872 72.1788 402.687 71.6174 402.355 71.1438C402.022 70.6701 401.558 70.3052 401.019 70.0948C400.481 69.8845 399.892 69.8379 399.327 69.961C398.762 70.0841 398.246 70.3715 397.844 70.787C397.441 71.2025 397.17 71.7278 397.065 72.2969C396.959 72.8661 397.023 73.4538 397.249 73.9865C397.476 74.5193 397.854 74.9732 398.337 75.2915C398.82 75.6099 399.386 75.7785 399.964 75.7761C400.357 75.7838 400.747 75.7102 401.111 75.5598C401.474 75.4095 401.803 75.1857 402.076 74.9024C402.35 74.619 402.561 74.2823 402.699 73.9133C402.836 73.5443 402.896 73.1508 402.875 72.7575H402.888Z" fill="#515151"/>
<path id="Vector_38" d="M408.491 62.9535C408.491 62.4993 408.626 62.0554 408.878 61.6778C409.13 61.3002 409.488 61.0059 409.907 60.8321C410.326 60.6583 410.787 60.6128 411.231 60.7014C411.676 60.79 412.085 61.0087 412.405 61.3298C412.726 61.651 412.944 62.0601 413.033 62.5055C413.121 62.9509 413.076 63.4126 412.902 63.8322C412.729 64.2518 412.435 64.6104 412.058 64.8627C411.681 65.115 411.238 65.2497 410.784 65.2497C410.178 65.243 409.599 64.9989 409.17 64.5697C408.742 64.1406 408.498 63.5604 408.491 62.9535ZM408.865 66.372H412.729V79.143H408.865V66.372Z" fill="#515151"/>
<path id="Vector_39" d="M429.268 72.7575C429.311 73.6068 429.186 74.4564 428.901 75.2572C428.615 76.0581 428.174 76.7944 427.603 77.4238C427.032 78.0533 426.342 78.5634 425.573 78.9249C424.804 79.2863 423.972 79.492 423.124 79.53C422.404 79.578 421.682 79.4625 421.013 79.1922C420.344 78.922 419.745 78.5038 419.259 77.9691V84.2772H415.395V66.372H419.259V67.5717C419.745 67.0385 420.345 66.6223 421.014 66.3543C421.684 66.0862 422.405 65.9732 423.124 66.0237C423.969 66.0618 424.798 66.2662 425.564 66.6252C426.33 66.9843 427.018 67.4909 427.588 68.1162C428.159 68.7415 428.601 69.4732 428.889 70.2696C429.177 71.0659 429.306 71.9113 429.268 72.7575ZM425.404 72.7575C425.388 72.1584 425.197 71.577 424.853 71.0864C424.51 70.5958 424.029 70.2177 423.471 69.9995C422.914 69.7813 422.305 69.7327 421.72 69.8598C421.135 69.9869 420.601 70.2841 420.184 70.714C419.767 71.144 419.486 71.6876 419.376 72.2768C419.267 72.866 419.333 73.4745 419.567 74.0261C419.801 74.5776 420.193 75.0477 420.693 75.3774C421.192 75.707 421.778 75.8816 422.377 75.8793C422.786 75.8967 423.195 75.8272 423.577 75.6752C423.958 75.5233 424.303 75.2923 424.588 74.9975C424.874 74.7028 425.095 74.3508 425.235 73.9648C425.376 73.5787 425.433 73.1673 425.404 72.7575Z" fill="#515151"/>
<path id="Vector_40" d="M441.029 75.3117C441.029 78.2529 438.453 79.5042 435.722 79.5042C434.608 79.6046 433.49 79.3682 432.511 78.8255C431.533 78.2827 430.74 77.4587 430.234 76.4598L433.558 74.5764C433.689 75.0367 433.975 75.4378 434.366 75.7125C434.758 75.9872 435.232 76.119 435.709 76.0857C436.623 76.0857 437.087 75.8019 437.087 75.2859C437.087 73.8798 430.814 74.628 430.814 70.2033C430.814 67.4169 433.158 66.0237 435.812 66.0237C436.821 65.9785 437.823 66.2076 438.712 66.6869C439.601 67.1661 440.344 67.8776 440.861 68.7456L437.538 70.5C437.391 70.1672 437.151 69.8841 436.847 69.6849C436.543 69.4858 436.188 69.3791 435.825 69.3777C435.155 69.3777 434.756 69.6357 434.756 70.0872C434.756 71.5578 441.029 70.5903 441.029 75.3117Z" fill="#515151"/>
<path id="Vector_41" d="M455.031 66.372V79.143H451.166V77.9433C450.727 78.4743 450.17 78.8946 449.539 79.1702C448.908 79.4458 448.221 79.5691 447.534 79.53C444.958 79.53 442.755 77.6853 442.755 74.241V66.372H446.619V73.6605C446.589 73.9652 446.625 74.2729 446.725 74.5623C446.825 74.8517 446.986 75.1159 447.198 75.3367C447.41 75.5575 447.667 75.7296 447.952 75.8411C448.237 75.9526 448.542 76.0008 448.848 75.9825C450.239 75.9825 451.218 75.1569 451.218 73.4025V66.372H455.031Z" fill="#515151"/>
<path id="Vector_42" d="M476.928 71.2998V79.143H473.064V71.6352C473.064 70.3452 472.459 69.5454 471.235 69.5454C470.011 69.5454 469.238 70.4355 469.238 71.9448V79.143H465.374V71.6352C465.374 70.3452 464.769 69.5454 463.545 69.5454C462.321 69.5454 461.548 70.4355 461.548 71.9448V79.143H457.684V66.372H461.548V67.5459C461.948 67.0273 462.471 66.6165 463.069 66.3508C463.668 66.085 464.322 65.9726 464.975 66.0237C465.628 65.9896 466.28 66.1262 466.864 66.4202C467.449 66.7142 467.948 67.1555 468.311 67.7007C468.735 67.1311 469.297 66.6785 469.944 66.3852C470.59 66.092 471.3 65.9676 472.008 66.0237C475.022 66.0237 476.928 68.1135 476.928 71.2998Z" fill="#515151"/>
<path id="Vector_43" d="M333.24 57.1485V51.666H315.979V89.334H333.24V83.8515C329.704 83.8515 326.313 82.4448 323.813 79.941C321.312 77.4371 319.908 74.0411 319.908 70.5C319.908 66.959 321.312 63.563 323.813 61.0591C326.313 58.5552 329.704 57.1485 333.24 57.1485Z" fill="#515151"/>
<path id="Vector_44" d="M333.24 57.1485V83.8515C336.776 83.8515 340.167 82.4448 342.667 79.9409C345.167 77.437 346.572 74.041 346.572 70.5C346.572 66.959 345.167 63.563 342.667 61.0591C340.167 58.5552 336.776 57.1485 333.24 57.1485Z" fill="#515151"/>
<path id="Vector_45" d="M480.174 66.2946C481.739 66.2946 483.008 65.024 483.008 63.4566C483.008 61.8892 481.739 60.6186 480.174 60.6186C478.609 60.6186 477.34 61.8892 477.34 63.4566C477.34 65.024 478.609 66.2946 480.174 66.2946Z" fill="#515151"/>
</g>
</g>
</svg>
