<svg width="486" height="612" viewBox="0 0 486 612" fill="none" xmlns="http://www.w3.org/2000/svg">
<path opacity="0.4" d="M26.1736 584.827L0 569.87L39.1623 547.483L65.3236 562.428L26.1736 584.827Z" fill="#D6D8E5"/>
<path d="M26.7126 554.68L5.03613 542.183L26.7126 529.686L48.3769 542.183L26.7126 554.68Z" fill="#D6D8E5"/>
<path d="M26.7126 579.674L5.03613 567.177V542.183L26.7126 554.68V579.674Z" fill="#B1B6C4"/>
<path d="M48.3894 567.177L26.7129 579.674V554.68L48.3894 542.183V567.177Z" fill="#C4C7D6"/>
<path d="M55.8393 559.368C57.7137 559.889 59.7186 559.647 61.4146 558.695C62.7625 558.695 70.0656 555.623 71.0582 558.242C71.9282 560.531 68.7668 562.66 67.0758 563.064C63.3997 563.958 60.6549 565.794 59.1722 566.112C58.6075 566.314 58.0019 566.376 57.4081 566.29C56.8143 566.205 56.2505 565.976 55.7657 565.623C54.7119 564.521 54.81 560.678 55.8393 559.368Z" fill="#574735"/>
<path d="M59.1725 565.415C60.6551 565.096 63.3877 563.26 67.076 562.367C68.4852 562.024 70.9236 560.482 71.1687 558.634C71.4995 560.751 68.6445 562.624 67.076 563.003C63.3999 563.897 60.6551 565.733 59.1725 566.051C58.6078 566.253 58.0021 566.314 57.4083 566.229C56.8145 566.144 56.2507 565.914 55.766 565.561C55.5324 565.314 55.3676 565.011 55.2881 564.68C55.8333 565.097 56.4685 565.38 57.143 565.508C57.8175 565.635 58.5125 565.603 59.1725 565.415Z" fill="#F8982C"/>
<path d="M42.6791 552.306C44.5535 552.827 46.5584 552.585 48.2545 551.632C49.6024 551.632 56.832 548.56 57.8858 551.179C58.7558 553.468 55.5943 555.598 53.9156 556.002C50.2395 556.895 47.4948 558.731 46.0121 559.05C45.4474 559.252 44.8417 559.313 44.2479 559.228C43.6542 559.142 43.0903 558.913 42.6056 558.56C41.5518 557.52 41.6621 553.676 42.6791 552.306Z" fill="#574735"/>
<path d="M46.0118 558.413C47.4945 558.095 50.227 556.259 53.9154 555.366C55.3245 555.023 57.763 553.481 58.008 551.632C58.3389 553.75 55.4838 555.623 53.9154 556.002C50.2393 556.895 47.4945 558.731 46.0118 559.05C45.4471 559.252 44.8414 559.313 44.2477 559.228C43.6539 559.142 43.09 558.913 42.6053 558.56C42.3745 558.316 42.21 558.017 42.1274 557.691C42.6746 558.104 43.3103 558.384 43.9844 558.509C44.6585 558.635 45.3526 558.602 46.0118 558.413Z" fill="#F8982C"/>
<path d="M22.179 543.236C27.8769 545.684 33.2071 546.124 37.6307 543.774L42.1645 541.155C42.4341 547.006 42.6914 552.624 42.6914 552.624C42.6914 552.624 46.1714 555.255 48.8182 552.905C48.8182 552.905 49.3818 544.704 49.9577 536.626L54.7121 533.884C54.5976 534.316 54.5358 534.76 54.5283 535.206C54.5283 536.736 55.6311 559.539 55.6311 559.539C55.6311 559.539 59.1356 561.62 61.8437 559.282C61.8437 559.282 63.6695 532.856 64.0861 528.682C64.5517 523.933 59.2827 521.595 55.9375 522.807L50.84 524.704L51.0851 521.767C51.563 517.018 46.2817 514.68 42.9487 515.892C39.9098 517.005 19.3729 524.692 19.3729 524.692C19.5007 526.667 19.7421 528.632 20.0959 530.58L11.984 529.894C11.5551 537.471 16.4933 540.739 22.179 543.236ZM36.3441 530.102L41.7724 526.981C41.6819 527.363 41.6245 527.752 41.6008 528.144L36.3441 530.102Z" fill="#F8982C"/>
<path d="M7.59717 506.736C7.59717 506.736 8.25886 516.81 9.58224 518.266C10.9056 519.723 15.3904 520.714 15.3904 520.714L18.8337 526.32C18.8337 526.32 15.6845 508.352 14.9983 507.96C14.3121 507.568 7.59717 506.736 7.59717 506.736Z" fill="#FFCEA9"/>
<path d="M14.2263 495.536C13.3913 495.147 12.4427 495.075 11.5585 495.334C10.6742 495.593 9.91491 496.166 9.42288 496.944C8.19752 499.037 6.83738 506.246 6.71484 507.47C7.22415 508.157 7.89883 508.705 8.67637 509.062C9.45391 509.42 10.3092 509.575 11.1629 509.514L14.2263 495.536Z" fill="#EDEDED"/>
<path d="M15.4396 495.72C17.1796 495.806 18.4785 496.246 18.6991 495.72C18.8859 494.823 19.0168 493.916 19.0912 493.003C18.8951 492.489 18.7236 491.95 18.7236 491.95C16.5302 490.604 15.844 488.278 15.5499 485.487C15.0597 480.775 17.6085 476.662 22.3138 476.173C26.7496 475.708 30.0091 478.817 30.8913 483.088C31.357 485.194 32.2882 489.208 31.0261 492.648C30.3277 494.582 29.4209 496.124 28.5754 496.418C27.6976 496.399 26.8217 496.326 25.9531 496.197C25.9531 496.197 25.7203 497.507 25.561 498.339C25.4017 499.172 25.4508 499.625 27.1295 500.653C28.8082 501.681 24.6053 503.798 21.8605 503.59C19.1157 503.382 16.0278 501.73 15.1823 499.918C14.1652 497.935 14.2388 495.61 15.4396 495.72Z" fill="#FFCEA9"/>
<path d="M59.6256 526.504C59.6246 526.752 59.5585 526.996 59.4338 527.21C59.3091 527.425 59.1302 527.603 58.9149 527.728L45.6198 535.39C45.4042 535.516 45.1589 535.582 44.9091 535.582C44.6594 535.582 44.4141 535.516 44.1984 535.39L25.573 524.643C25.3561 524.521 25.1758 524.343 25.0508 524.128C24.9259 523.913 24.8608 523.668 24.8623 523.419V523.321L59.6256 526.504Z" fill="#E5E5E5"/>
<path d="M58.915 527.728L45.6199 535.39C45.4058 535.52 45.1597 535.588 44.9092 535.586V526.504H59.6134C59.6137 526.751 59.5494 526.994 59.4269 527.208C59.3044 527.423 59.128 527.602 58.915 527.728Z" fill="#E5E5E5"/>
<path d="M45.4115 534.692C45.2615 534.782 45.09 534.829 44.9152 534.829C44.7405 534.829 44.569 534.782 44.419 534.692L25.0461 523.529C24.801 523.382 24.801 523.15 25.0461 523.015L39.3092 514.778L59.6256 526.504L45.4115 534.692Z" fill="#F4F4F4"/>
<path d="M32.9985 526.504L33.0966 526.553L39.3091 530.139L42.7156 528.168L42.8136 528.119L36.503 524.484L32.9985 526.504Z" fill="#BFBFBF"/>
<path d="M33.0967 526.553L39.3092 530.139L42.7157 528.168L36.5032 524.594L33.0967 526.553Z" fill="#E5E5E5"/>
<path d="M54.3568 527.079L55.2513 527.593C55.2945 527.617 55.343 527.629 55.3922 527.629C55.4415 527.629 55.4899 527.617 55.5331 527.593L56.3909 527.103C56.4767 527.103 56.4889 526.981 56.3909 526.944L55.4964 526.418C55.4523 526.397 55.4042 526.386 55.3555 526.386C55.3067 526.386 55.2586 526.397 55.2146 526.418L54.3568 526.92C54.2955 526.969 54.2833 527.042 54.3568 527.079Z" fill="#3A2C6D"/>
<path d="M53.0946 526.32L53.9891 526.834C54.0323 526.858 54.0808 526.87 54.13 526.87C54.1793 526.87 54.2277 526.858 54.2709 526.834L55.1287 526.344C55.2145 526.344 55.2145 526.222 55.1287 526.185L54.2342 525.671C54.191 525.648 54.1425 525.635 54.0933 525.635C54.044 525.635 53.9956 525.648 53.9523 525.671L53.0946 526.161C53.0333 526.234 53.0211 526.32 53.0946 526.32Z" fill="#3A2C6D"/>
<path d="M51.8202 525.622L52.7147 526.136C52.7609 526.157 52.811 526.168 52.8617 526.168C52.9125 526.168 52.9626 526.157 53.0088 526.136L53.8543 525.647C53.94 525.647 53.9523 525.524 53.8543 525.475L52.9598 524.961C52.9165 524.938 52.8681 524.925 52.8188 524.925C52.7696 524.925 52.7212 524.938 52.6779 524.961L51.8202 525.451C51.7589 525.5 51.7467 525.573 51.8202 525.622Z" fill="#3A2C6D"/>
<path d="M50.558 524.888L51.4525 525.402C51.4966 525.423 51.5447 525.433 51.5934 525.433C51.6421 525.433 51.6902 525.423 51.7343 525.402L52.5921 524.912C52.6778 524.912 52.6901 524.79 52.5921 524.741L51.6976 524.227C51.6514 524.206 51.6012 524.195 51.5505 524.195C51.4998 524.195 51.4497 524.206 51.4035 524.227L50.558 524.717C50.4967 524.766 50.4845 524.839 50.558 524.888Z" fill="#3A2C6D"/>
<path d="M49.2836 524.153L50.1903 524.668C50.2335 524.691 50.282 524.703 50.3312 524.703C50.3805 524.703 50.4289 524.691 50.4722 524.668L51.3177 524.178C51.4034 524.178 51.4157 524.056 51.3177 524.019L50.4231 523.493C50.3791 523.472 50.3309 523.461 50.2822 523.461C50.2335 523.461 50.1854 523.472 50.1413 523.493L49.2836 523.994C49.2223 524.043 49.21 524.117 49.2836 524.153Z" fill="#3A2C6D"/>
<path d="M48.0214 523.419L48.9159 523.945C48.9599 523.966 49.0081 523.977 49.0568 523.977C49.1055 523.977 49.1536 523.966 49.1977 523.945L50.0554 523.444C50.1412 523.444 50.1535 523.321 50.0554 523.284L49.1609 522.77C49.1155 522.747 49.0651 522.734 49.0139 522.734C48.9627 522.734 48.9123 522.747 48.8669 522.77L48.0214 523.26C47.9601 523.309 47.9478 523.382 48.0214 523.419Z" fill="#3A2C6D"/>
<path d="M46.7592 522.648L47.6537 523.162C47.6978 523.183 47.7459 523.194 47.7947 523.194C47.8434 523.194 47.8915 523.183 47.9356 523.162L48.7933 522.672C48.8791 522.672 48.8791 522.55 48.7933 522.501L47.8988 521.987C47.8547 521.966 47.8066 521.956 47.7579 521.956C47.7092 521.956 47.6611 521.966 47.617 521.987L46.7592 522.477C46.6857 522.575 46.6857 522.648 46.7592 522.648Z" fill="#3A2C6D"/>
<path d="M45.4852 521.963L46.3797 522.477C46.423 522.5 46.4714 522.512 46.5206 522.512C46.5699 522.512 46.6183 522.5 46.6616 522.477L47.5193 521.987C47.6051 521.987 47.6173 521.865 47.5193 521.828L46.6248 521.302C46.5807 521.281 46.5326 521.27 46.4839 521.27C46.4352 521.27 46.387 521.281 46.343 521.302L45.4852 521.803C45.424 521.852 45.4117 521.926 45.4852 521.963Z" fill="#3A2C6D"/>
<path d="M44.2228 521.228L45.1173 521.742C45.1605 521.766 45.209 521.778 45.2582 521.778C45.3074 521.778 45.3559 521.766 45.3991 521.742L46.2569 521.253C46.3426 521.253 46.3426 521.13 46.2569 521.093L45.3379 520.567C45.2946 520.544 45.2462 520.531 45.1969 520.531C45.1477 520.531 45.0992 520.544 45.056 520.567L44.1983 521.057C44.1125 521.118 44.1125 521.191 44.2228 521.228Z" fill="#3A2C6D"/>
<path d="M42.9485 520.506L43.8431 521.02C43.8892 521.041 43.9394 521.052 43.9901 521.052C44.0408 521.052 44.091 521.041 44.1371 521.02L44.9826 520.53C45.0684 520.53 45.0807 520.408 44.9826 520.359L44.1126 519.833C44.0694 519.809 44.021 519.797 43.9717 519.797C43.9225 519.797 43.874 519.809 43.8308 519.833L42.9731 520.322C42.8873 520.384 42.8873 520.457 42.9485 520.506Z" fill="#3A2C6D"/>
<path d="M41.6621 519.772L42.5566 520.286C42.6007 520.306 42.6488 520.317 42.6975 520.317C42.7463 520.317 42.7944 520.306 42.8384 520.286L43.6962 519.796C43.782 519.796 43.7942 519.674 43.6962 519.625L42.8875 519.098C42.8413 519.077 42.7911 519.067 42.7404 519.067C42.6897 519.067 42.6396 519.077 42.5934 519.098L41.7479 519.588C41.6621 519.649 41.6621 519.723 41.6621 519.772Z" fill="#3A2C6D"/>
<path d="M40.4364 519.037L41.3432 519.551C41.3864 519.575 41.4348 519.587 41.4841 519.587C41.5333 519.587 41.5818 519.575 41.625 519.551L42.4828 519.062C42.5563 519.062 42.5685 518.939 42.4828 518.903L41.5882 518.376C41.5442 518.356 41.496 518.345 41.4473 518.345C41.3986 518.345 41.3505 518.356 41.3064 518.376L40.4487 518.878C40.3506 518.976 40.3506 518.976 40.4364 519.037Z" fill="#3A2C6D"/>
<path d="M39.2113 518.303L40.1058 518.829C40.1499 518.85 40.198 518.861 40.2467 518.861C40.2954 518.861 40.3436 518.85 40.3876 518.829L41.2454 518.327C41.3312 518.327 41.3434 518.205 41.2454 518.168L40.3509 517.654C40.3055 517.63 40.255 517.618 40.2038 517.618C40.1526 517.618 40.1022 517.63 40.0568 517.654L39.2113 518.144C39.0888 518.193 39.0765 518.266 39.2113 518.303Z" fill="#3A2C6D"/>
<path d="M37.2752 517.226L38.7824 518.095C38.8265 518.115 38.8746 518.126 38.9233 518.126C38.972 518.126 39.0201 518.115 39.0642 518.095L39.922 517.605C40.0077 517.605 40.0077 517.483 39.922 517.434L38.427 516.528C38.383 516.507 38.3348 516.496 38.2861 516.496C38.2374 516.496 38.1893 516.507 38.1452 516.528L37.2875 517.03C37.2746 517.029 37.2617 517.031 37.2495 517.035C37.2373 517.039 37.226 517.046 37.2163 517.054C37.2067 517.063 37.1988 517.073 37.1931 517.085C37.1874 517.096 37.1841 517.109 37.1833 517.122C37.1825 517.134 37.1842 517.147 37.1884 517.16C37.1926 517.172 37.1991 517.183 37.2077 517.193C37.2162 517.202 37.2266 517.21 37.2382 517.216C37.2497 517.222 37.2623 517.225 37.2752 517.226Z" fill="#3A2C6D"/>
<path d="M51.2442 526.699L52.151 527.214C52.1942 527.237 52.2427 527.249 52.2919 527.249C52.3412 527.249 52.3896 527.237 52.4328 527.214L53.2906 526.724C53.3641 526.724 53.3764 526.602 53.2906 526.565L52.3961 526.051C52.3528 526.027 52.3044 526.015 52.2552 526.015C52.2059 526.015 52.1575 526.027 52.1142 526.051L51.2565 526.54C51.183 526.589 51.183 526.663 51.2442 526.699Z" fill="#3A2C6D"/>
<path d="M49.9823 525.965L50.8768 526.491C50.9209 526.512 50.969 526.523 51.0177 526.523C51.0664 526.523 51.1146 526.512 51.1586 526.491L52.0164 525.989C52.1022 525.989 52.1144 525.867 52.0164 525.83L51.1219 525.316C51.0765 525.293 51.026 525.28 50.9748 525.28C50.9236 525.28 50.8732 525.293 50.8278 525.316L49.9823 525.806C49.921 525.855 49.9088 525.928 49.9823 525.965Z" fill="#3A2C6D"/>
<path d="M48.7079 525.243L49.6024 525.757C49.6486 525.778 49.6987 525.789 49.7494 525.789C49.8002 525.789 49.8503 525.778 49.8965 525.757L50.742 525.267C50.8277 525.267 50.84 525.145 50.742 525.096L49.8475 524.582C49.8034 524.561 49.7553 524.55 49.7065 524.55C49.6578 524.55 49.6097 524.561 49.5656 524.582L48.7079 525.072C48.6466 525.096 48.6344 525.194 48.7079 525.243Z" fill="#3A2C6D"/>
<path d="M47.4458 524.508L48.3403 525.022C48.3844 525.043 48.4325 525.054 48.4812 525.054C48.5299 525.054 48.578 525.043 48.6221 525.022L49.4799 524.533C49.5656 524.533 49.5656 524.411 49.4799 524.362L48.5853 523.847C48.5413 523.827 48.4931 523.816 48.4444 523.816C48.3957 523.816 48.3476 523.827 48.3035 523.847L47.4458 524.337C47.3722 524.386 47.3722 524.459 47.4458 524.508Z" fill="#3A2C6D"/>
<path d="M46.1835 523.774L47.078 524.3C47.1221 524.321 47.1702 524.332 47.2189 524.332C47.2676 524.332 47.3157 524.321 47.3598 524.3L48.2176 523.799C48.3033 523.799 48.3156 523.676 48.2176 523.639L47.323 523.125C47.2776 523.102 47.2272 523.089 47.176 523.089C47.1248 523.089 47.0744 523.102 47.029 523.125L46.1835 523.615C46.1222 523.664 46.1099 523.737 46.1835 523.774Z" fill="#3A2C6D"/>
<path d="M44.909 523.052L45.8036 523.566C45.8497 523.587 45.8999 523.598 45.9506 523.598C46.0013 523.598 46.0515 523.587 46.0976 523.566L46.9431 523.076C47.0289 523.076 47.0412 522.954 46.9431 522.905L46.0486 522.391C46.0046 522.37 45.9564 522.359 45.9077 522.359C45.859 522.359 45.8109 522.37 45.7668 522.391L44.909 522.881C44.8478 522.93 44.8355 523.003 44.909 523.052Z" fill="#3A2C6D"/>
<path d="M43.6469 522.318L44.5414 522.832C44.5855 522.852 44.6336 522.863 44.6824 522.863C44.7311 522.863 44.7792 522.852 44.8233 522.832L45.681 522.342C45.7668 522.342 45.7668 522.22 45.681 522.171L44.7865 521.657C44.7424 521.636 44.6943 521.625 44.6456 521.625C44.5969 521.625 44.5488 521.636 44.5047 521.657L43.6469 522.146C43.5734 522.195 43.5734 522.269 43.6469 522.318Z" fill="#3A2C6D"/>
<path d="M42.3724 521.583L43.2669 522.097C43.3102 522.121 43.3586 522.133 43.4079 522.133C43.4571 522.133 43.5055 522.121 43.5488 522.097L44.4065 521.608C44.4923 521.608 44.5045 521.485 44.4065 521.448L43.512 520.922C43.4658 520.901 43.4157 520.89 43.365 520.89C43.3142 520.89 43.2641 520.901 43.2179 520.922L42.3724 521.424C42.3112 521.424 42.2989 521.546 42.3724 521.583Z" fill="#3A2C6D"/>
<path d="M41.0982 520.849L42.005 521.363C42.0482 521.386 42.0967 521.399 42.1459 521.399C42.1952 521.399 42.2436 521.386 42.2868 521.363L43.1446 520.873C43.2181 520.873 43.2304 520.751 43.1446 520.714L42.2501 520.2C42.2068 520.176 42.1584 520.164 42.1092 520.164C42.0599 520.164 42.0115 520.176 41.9682 520.2L41.1105 520.69C41.037 520.739 41.037 520.812 41.0982 520.849Z" fill="#3A2C6D"/>
<path d="M39.8363 520.114L40.7308 520.641C40.7749 520.661 40.823 520.672 40.8717 520.672C40.9204 520.672 40.9686 520.661 41.0126 520.641L41.8704 520.139C41.9562 520.139 41.9684 520.016 41.8704 519.98L40.9759 519.466C40.9305 519.442 40.88 519.43 40.8288 519.43C40.7776 519.43 40.7272 519.442 40.6818 519.466L39.8363 519.955C39.775 520.004 39.7628 520.078 39.8363 520.114Z" fill="#3A2C6D"/>
<path d="M38.5619 519.392L39.4564 519.906C39.5026 519.927 39.5527 519.938 39.6034 519.938C39.6542 519.938 39.7043 519.927 39.7505 519.906L40.596 519.417C40.6817 519.417 40.694 519.294 40.596 519.245L39.7015 518.731C39.6574 518.71 39.6093 518.7 39.5605 518.7C39.5118 518.7 39.4637 518.71 39.4196 518.731L38.5619 519.221C38.5006 519.27 38.4884 519.343 38.5619 519.392Z" fill="#3A2C6D"/>
<path d="M37.2998 518.658L38.1943 519.172C38.2384 519.193 38.2865 519.203 38.3352 519.203C38.3839 519.203 38.432 519.193 38.4761 519.172L39.3339 518.682C39.4196 518.682 39.4196 518.56 39.3339 518.511L38.4394 517.997C38.3953 517.976 38.3472 517.965 38.2984 517.965C38.2497 517.965 38.2016 517.976 38.1575 517.997L37.2998 518.486C37.2262 518.535 37.2262 518.609 37.2998 518.658Z" fill="#3A2C6D"/>
<path d="M52.5184 527.434L54.0256 528.303C54.0697 528.324 54.1178 528.334 54.1665 528.334C54.2152 528.334 54.2634 528.324 54.3074 528.303L55.1652 527.813C55.251 527.813 55.2632 527.691 55.1652 527.642L53.658 526.773C53.6118 526.752 53.5617 526.741 53.511 526.741C53.4602 526.741 53.4101 526.752 53.3639 526.773L52.5184 527.275C52.4572 527.324 52.4449 527.397 52.5184 527.434Z" fill="#3A2C6D"/>
<path d="M37.1897 517.262L38.0842 517.776C38.1577 517.776 38.1577 517.887 38.0842 517.936L37.1774 518.45C37.1387 518.474 37.0942 518.486 37.0487 518.486C37.0033 518.486 36.9587 518.474 36.9201 518.45H36.8466C36.8083 518.431 36.7665 518.422 36.724 518.422C36.6816 518.422 36.6397 518.431 36.6015 518.45L35.6457 519C35.6031 519.019 35.5572 519.028 35.5109 519.028C35.4646 519.028 35.4187 519.019 35.3761 519L34.8125 518.67C34.7389 518.67 34.7389 518.56 34.8125 518.511L35.707 517.997L35.8908 517.899L36.0256 517.813L36.1604 517.74L36.9201 517.299C36.9577 517.27 37.0025 517.251 37.0499 517.244C37.0973 517.238 37.1455 517.244 37.1897 517.262Z" fill="#3A2C6D"/>
<path d="M49.4427 529.906L50.3373 530.42C50.3805 530.444 50.4289 530.456 50.4782 530.456C50.5274 530.456 50.5759 530.444 50.6191 530.42L51.4768 529.931C51.5626 529.931 51.5626 529.808 51.4768 529.772L50.5823 529.258C50.5391 529.234 50.4906 529.222 50.4414 529.222C50.3922 529.222 50.3437 529.234 50.3005 529.258L49.4427 529.747C49.3815 529.796 49.3692 529.87 49.4427 529.906Z" fill="#3A2C6D"/>
<path d="M48.1806 529.184L49.0751 529.698C49.1192 529.719 49.1673 529.73 49.2161 529.73C49.2648 529.73 49.3129 529.719 49.357 529.698L50.2147 529.209C50.3005 529.209 50.3005 529.086 50.2147 529.037L49.3202 528.523C49.2761 528.502 49.228 528.492 49.1793 528.492C49.1306 528.492 49.0825 528.502 49.0384 528.523L48.1806 529.013C48.1071 529.062 48.1071 529.135 48.1806 529.184Z" fill="#3A2C6D"/>
<path d="M46.9063 528.45L47.8131 528.964C47.8563 528.987 47.9048 529 47.954 529C48.0033 529 48.0517 528.987 48.0949 528.964L48.9527 528.474C49.0262 528.474 49.0385 528.352 48.9527 528.315L48.0582 527.801C48.015 527.777 47.9665 527.765 47.9173 527.765C47.868 527.765 47.8196 527.777 47.7763 527.801L46.9186 528.303C46.8451 528.34 46.8451 528.413 46.9063 528.45Z" fill="#3A2C6D"/>
<path d="M36.1478 522.244L37.0423 522.758C37.0877 522.782 37.1382 522.794 37.1894 522.794C37.2406 522.794 37.291 522.782 37.3364 522.758L38.1819 522.269C38.2677 522.269 38.2799 522.146 38.1819 522.109L37.2874 521.583C37.2433 521.562 37.1952 521.552 37.1465 521.552C37.0978 521.552 37.0496 521.562 37.0056 521.583L36.1478 522.085C36.0866 522.134 36.0743 522.207 36.1478 522.244Z" fill="#3A2C6D"/>
<path d="M34.8856 521.522L35.7801 522.036C35.8242 522.057 35.8723 522.067 35.921 522.067C35.9698 522.067 36.0179 522.057 36.0619 522.036L36.9197 521.534C37.0055 521.534 37.0177 521.424 36.9197 521.375L36.0252 520.861C35.9798 520.837 35.9293 520.825 35.8781 520.825C35.827 520.825 35.7765 520.837 35.7311 520.861L34.8856 521.35C34.8243 521.424 34.8121 521.424 34.8856 521.522Z" fill="#3A2C6D"/>
<path d="M33.6239 520.787L34.5184 521.302C34.5616 521.325 34.6101 521.337 34.6593 521.337C34.7086 521.337 34.757 521.325 34.8002 521.302L35.658 520.812C35.7438 520.812 35.756 520.69 35.658 520.653L34.7635 520.127C34.7173 520.106 34.6672 520.095 34.6164 520.095C34.5657 520.095 34.5156 520.106 34.4694 520.127L33.6239 520.628C33.5626 520.677 33.5504 520.751 33.6239 520.787Z" fill="#3A2C6D"/>
<path d="M32.3616 520.053L33.2562 520.579C33.3002 520.6 33.3484 520.611 33.3971 520.611C33.4458 520.611 33.4939 520.6 33.538 520.579L34.3957 520.078C34.4815 520.078 34.4815 519.955 34.3957 519.918L33.489 519.404C33.4458 519.381 33.3973 519.368 33.3481 519.368C33.2988 519.368 33.2504 519.381 33.2071 519.404L32.3494 519.894C32.3004 519.943 32.2881 520.016 32.3616 520.053Z" fill="#3A2C6D"/>
<path d="M45.3381 527.544L46.5635 528.254C46.6097 528.275 46.6598 528.286 46.7105 528.286C46.7613 528.286 46.8114 528.275 46.8576 528.254L47.7031 527.764C47.7889 527.764 47.8011 527.642 47.7031 527.593L46.4777 526.895C46.4345 526.872 46.386 526.859 46.3368 526.859C46.2876 526.859 46.2391 526.872 46.1959 526.895L45.3381 527.385C45.2646 527.422 45.2524 527.544 45.3381 527.544Z" fill="#3A2C6D"/>
<path d="M37.41 522.978L38.6354 523.676C38.6786 523.7 38.7271 523.712 38.7763 523.712C38.8255 523.712 38.874 523.7 38.9172 523.676L39.775 523.187C39.8607 523.187 39.873 523.064 39.775 523.015L38.5496 522.318C38.5055 522.297 38.4574 522.286 38.4087 522.286C38.36 522.286 38.3118 522.297 38.2678 522.318L37.41 522.807C37.3488 522.856 37.3365 522.929 37.41 522.978Z" fill="#3A2C6D"/>
<path d="M39.003 523.872L44.9582 527.311C45.0023 527.332 45.0504 527.343 45.0991 527.343C45.1479 527.343 45.196 527.332 45.2401 527.311L46.0978 526.822C46.1836 526.822 46.1836 526.699 46.0978 526.65L40.1548 523.223C40.1094 523.2 40.059 523.187 40.0078 523.187C39.9566 523.187 39.9062 523.2 39.8608 523.223L39.0153 523.713C38.9417 523.774 38.9295 523.872 39.003 523.872Z" fill="#3A2C6D"/>
<path d="M49.6756 527.213L50.5702 527.728C50.6134 527.751 50.6618 527.763 50.7111 527.763C50.7603 527.763 50.8088 527.751 50.852 527.728L51.7097 527.238C51.7955 527.238 51.8078 527.116 51.7097 527.067L50.8152 526.553C50.7691 526.532 50.7189 526.521 50.6682 526.521C50.6175 526.521 50.5673 526.532 50.5211 526.553L49.6756 527.042C49.6144 527.091 49.6021 527.165 49.6756 527.213Z" fill="#3A2C6D"/>
<path d="M48.4134 526.479L49.308 526.993C49.3512 527.017 49.3996 527.029 49.4489 527.029C49.4981 527.029 49.5466 527.017 49.5898 526.993L50.4475 526.504C50.5333 526.504 50.5333 526.381 50.4475 526.344L49.553 525.83C49.5098 525.807 49.4614 525.794 49.4121 525.794C49.3629 525.794 49.3144 525.807 49.2712 525.83L48.4134 526.32C48.3522 526.32 48.3399 526.442 48.4134 526.479Z" fill="#3A2C6D"/>
<path d="M47.1393 525.757L48.046 526.271C48.0901 526.292 48.1382 526.303 48.1869 526.303C48.2356 526.303 48.2838 526.292 48.3278 526.271L49.1856 525.781C49.2591 525.781 49.2714 525.659 49.1856 525.61L48.2911 525.096C48.247 525.075 48.1989 525.064 48.1502 525.064C48.1014 525.064 48.0533 525.075 48.0093 525.096L47.1515 525.586C47.078 525.635 47.078 525.708 47.1393 525.757Z" fill="#3A2C6D"/>
<path d="M45.8773 525.023L46.7718 525.537C46.815 525.56 46.8635 525.573 46.9127 525.573C46.962 525.573 47.0104 525.56 47.0537 525.537L47.9114 525.047C47.9972 525.047 48.0094 524.925 47.9114 524.876L47.0169 524.362C46.9728 524.341 46.9247 524.33 46.876 524.33C46.8273 524.33 46.7791 524.341 46.7351 524.362L45.8773 524.863C45.816 524.912 45.8038 524.986 45.8773 525.023Z" fill="#3A2C6D"/>
<path d="M44.6151 524.288L45.5096 524.802C45.5528 524.826 45.6013 524.838 45.6505 524.838C45.6998 524.838 45.7482 524.826 45.7914 524.802L46.6492 524.3C46.735 524.3 46.7472 524.178 46.6492 524.141L45.7547 523.627C45.7093 523.604 45.6588 523.591 45.6076 523.591C45.5565 523.591 45.506 523.604 45.4606 523.627L44.6151 524.117C44.5538 524.178 44.5416 524.251 44.6151 524.288Z" fill="#3A2C6D"/>
<path d="M43.353 523.566L44.2475 524.08C44.2916 524.101 44.3397 524.112 44.3884 524.112C44.4371 524.112 44.4853 524.101 44.5293 524.08L45.3871 523.59C45.4606 523.59 45.4729 523.468 45.3871 523.419L44.4926 522.905C44.4485 522.884 44.4004 522.874 44.3517 522.874C44.3029 522.874 44.2548 522.884 44.2107 522.905L43.353 523.395C43.2795 523.444 43.2795 523.517 43.353 523.566Z" fill="#3A2C6D"/>
<path d="M42.0785 522.832L42.973 523.346C43.0184 523.369 43.0688 523.382 43.12 523.382C43.1712 523.382 43.2217 523.369 43.2671 523.346L44.1126 522.856C44.1983 522.856 44.2106 522.734 44.1126 522.697L43.2181 522.171C43.174 522.15 43.1259 522.139 43.0771 522.139C43.0284 522.139 42.9803 522.15 42.9362 522.171L42.0785 522.672C42.0172 522.721 42.005 522.795 42.0785 522.832Z" fill="#3A2C6D"/>
<path d="M40.8166 522.097L41.6621 522.648C41.7062 522.669 41.7543 522.679 41.803 522.679C41.8517 522.679 41.8998 522.669 41.9439 522.648L42.8017 522.146C42.8874 522.146 42.8997 522.024 42.8017 521.987L41.9071 521.473C41.8617 521.449 41.8113 521.437 41.7601 521.437C41.7089 521.437 41.6585 521.449 41.6131 521.473L40.7676 521.963C40.7553 521.987 40.7431 522.06 40.8166 522.097Z" fill="#3A2C6D"/>
<path d="M39.5542 521.424L40.4487 521.938C40.4928 521.959 40.5409 521.97 40.5896 521.97C40.6383 521.97 40.6864 521.959 40.7305 521.938L41.5883 521.448C41.674 521.448 41.674 521.326 41.5883 521.277L40.6937 520.763C40.6497 520.742 40.6016 520.732 40.5528 520.732C40.5041 520.732 40.456 520.742 40.4119 520.763L39.5542 521.253C39.4806 521.253 39.4806 521.326 39.5542 521.424Z" fill="#3A2C6D"/>
<path d="M38.2801 520.641L39.1747 521.155C39.2201 521.178 39.2705 521.191 39.3217 521.191C39.3729 521.191 39.4233 521.178 39.4687 521.155L40.3142 520.665C40.4 520.665 40.4123 520.543 40.3142 520.506L39.4197 519.98C39.3756 519.959 39.3275 519.948 39.2788 519.948C39.2301 519.948 39.182 519.959 39.1379 519.98L38.2801 520.482C38.2189 520.53 38.2066 520.604 38.2801 520.641Z" fill="#3A2C6D"/>
<path d="M37.0179 519.906L37.9124 520.433C37.9565 520.453 38.0046 520.464 38.0534 520.464C38.1021 520.464 38.1502 520.453 38.1943 520.433L39.052 519.931C39.1378 519.931 39.1501 519.808 39.052 519.772L38.1575 519.258C38.1121 519.234 38.0617 519.222 38.0105 519.222C37.9593 519.222 37.9088 519.234 37.8634 519.258L37.0179 519.747C36.9567 519.796 36.9444 519.87 37.0179 519.906Z" fill="#3A2C6D"/>
<path d="M35.7558 519.184L36.6503 519.698C36.6944 519.719 36.7425 519.73 36.7912 519.73C36.84 519.73 36.8881 519.719 36.9322 519.698L37.7899 519.209C37.8757 519.209 37.8757 519.086 37.7899 519.037L36.8954 518.523C36.8513 518.502 36.8032 518.492 36.7545 518.492C36.7058 518.492 36.6576 518.502 36.6136 518.523L35.7558 519.013C35.6823 519.062 35.6823 519.135 35.7558 519.184Z" fill="#3A2C6D"/>
<path d="M50.9379 527.948L52.8004 529.013C52.8445 529.033 52.8926 529.044 52.9413 529.044C52.99 529.044 53.0382 529.033 53.0822 529.013L53.9277 528.523C54.0135 528.523 54.0258 528.401 53.9277 528.352L52.0774 527.287C52.0342 527.263 51.9858 527.251 51.9365 527.251C51.8873 527.251 51.8388 527.263 51.7956 527.287L50.9379 527.777C50.8766 527.825 50.8643 527.899 50.9379 527.948Z" fill="#3A2C6D"/>
<path d="M49.0752 528.278L49.9698 528.805C50.0138 528.825 50.062 528.836 50.1107 528.836C50.1594 528.836 50.2075 528.825 50.2516 528.805L51.1093 528.303C51.1951 528.303 51.2074 528.18 51.1093 528.144L50.2148 527.63C50.1716 527.606 50.1232 527.594 50.0739 527.594C50.0247 527.594 49.9762 527.606 49.933 527.63L49.0752 528.119C49.014 528.168 49.014 528.242 49.0752 528.278Z" fill="#3A2C6D"/>
<path d="M47.7886 527.544L48.6831 528.058C48.7272 528.079 48.7753 528.09 48.824 528.09C48.8727 528.09 48.9208 528.079 48.9649 528.058L49.8227 527.568C49.9084 527.568 49.9207 527.446 49.8227 527.397L48.9159 526.883C48.8718 526.862 48.8237 526.852 48.775 526.852C48.7263 526.852 48.6781 526.862 48.6341 526.883L47.7886 527.373C47.7886 527.434 47.7886 527.544 47.7886 527.544Z" fill="#3A2C6D"/>
<path d="M46.5634 526.822L47.4579 527.336C47.5011 527.359 47.5495 527.372 47.5988 527.372C47.648 527.372 47.6965 527.359 47.7397 527.336L48.5974 526.846C48.671 526.846 48.6832 526.724 48.5974 526.687L47.7029 526.161C47.6589 526.14 47.6107 526.129 47.562 526.129C47.5133 526.129 47.4652 526.14 47.4211 526.161L46.5634 526.663C46.4776 526.712 46.4776 526.785 46.5634 526.822Z" fill="#3A2C6D"/>
<path d="M45.3383 526.087L46.2328 526.614C46.2789 526.635 46.3291 526.646 46.3798 526.646C46.4305 526.646 46.4807 526.635 46.5268 526.614L47.3723 526.112C47.4581 526.112 47.4704 525.989 47.3723 525.953L46.4778 525.439C46.4346 525.415 46.3862 525.403 46.3369 525.403C46.2877 525.403 46.2392 525.415 46.196 525.439L45.3383 525.928C45.2157 525.977 45.2035 526.051 45.3383 526.087Z" fill="#3A2C6D"/>
<path d="M44.0145 525.365L44.909 525.879C44.9531 525.9 45.0012 525.911 45.0499 525.911C45.0987 525.911 45.1468 525.9 45.1909 525.879L46.0486 525.39C46.1344 525.39 46.1466 525.267 46.0486 525.218L45.1541 524.704C45.1079 524.683 45.0578 524.672 45.0071 524.672C44.9563 524.672 44.9062 524.683 44.86 524.704L44.0145 525.194C43.9532 525.243 43.941 525.316 44.0145 525.365Z" fill="#3A2C6D"/>
<path d="M42.7524 524.631L43.6469 525.145C43.6901 525.168 43.7386 525.181 43.7878 525.181C43.8371 525.181 43.8855 525.168 43.9287 525.145L44.7865 524.655C44.8723 524.655 44.8723 524.533 44.7865 524.496L43.892 523.982C43.8488 523.959 43.8003 523.946 43.7511 523.946C43.7018 523.946 43.6534 523.959 43.6102 523.982L42.7524 524.472C42.6789 524.521 42.6789 524.594 42.7524 524.631Z" fill="#3A2C6D"/>
<path d="M41.4779 523.872L42.3724 524.386C42.4186 524.407 42.4687 524.418 42.5194 524.418C42.5702 524.418 42.6203 524.407 42.6665 524.386L43.512 523.896C43.5978 523.896 43.61 523.774 43.512 523.725L42.6175 523.211C42.5743 523.187 42.5258 523.175 42.4766 523.175C42.4273 523.175 42.3789 523.187 42.3356 523.211L41.4779 523.701C41.4166 523.786 41.4044 523.872 41.4779 523.872Z" fill="#3A2C6D"/>
<path d="M40.2162 523.174L41.1107 523.688C41.1539 523.712 41.2024 523.724 41.2516 523.724C41.3008 523.724 41.3493 523.712 41.3925 523.688L42.2503 523.199C42.336 523.199 42.3483 523.076 42.2503 523.027L41.3558 522.513C41.3096 522.492 41.2594 522.482 41.2087 522.482C41.158 522.482 41.1078 522.492 41.0617 522.513L40.2162 523.015C40.1549 523.052 40.1427 523.125 40.2162 523.174Z" fill="#3A2C6D"/>
<path d="M38.9539 522.44L39.8484 522.954C39.8923 522.976 39.9405 522.987 39.9894 522.987C40.0382 522.987 40.0864 522.976 40.1303 522.954L40.988 522.452C41.0738 522.452 41.0738 522.33 40.988 522.293L40.0813 521.779C40.038 521.755 39.9896 521.743 39.9403 521.743C39.8911 521.743 39.8426 521.755 39.7994 521.779L38.9417 522.269C38.8927 522.33 38.8804 522.403 38.9539 522.44Z" fill="#3A2C6D"/>
<path d="M37.6919 521.718L38.5864 522.232C38.6304 522.253 38.6786 522.263 38.7273 522.263C38.776 522.263 38.8241 522.253 38.8682 522.232L39.7259 521.742C39.7995 521.742 39.8117 521.62 39.7259 521.571L38.8314 521.057C38.7874 521.036 38.7392 521.025 38.6905 521.025C38.6418 521.025 38.5937 521.036 38.5496 521.057L37.6919 521.546C37.6183 521.595 37.6183 521.669 37.6919 521.718Z" fill="#3A2C6D"/>
<path d="M36.4173 520.983L37.3119 521.497C37.3573 521.521 37.4077 521.533 37.4589 521.533C37.5101 521.533 37.5605 521.521 37.6059 521.497L38.4514 521.008C38.5372 521.008 38.5495 520.885 38.4514 520.849L37.5569 520.322C37.5128 520.302 37.4647 520.291 37.416 520.291C37.3673 520.291 37.3192 520.302 37.2751 520.322L36.4173 520.824C36.3561 520.873 36.3438 520.947 36.4173 520.983Z" fill="#3A2C6D"/>
<path d="M33.5868 519.355L36.0375 520.775C36.0816 520.796 36.1297 520.807 36.1784 520.807C36.2271 520.807 36.2752 520.796 36.3193 520.775L37.1771 520.273C37.2628 520.273 37.2751 520.151 37.1771 520.114L34.7264 518.694C34.6809 518.671 34.6305 518.659 34.5793 518.659C34.5281 518.659 34.4777 518.671 34.4323 518.694L33.5868 519.184C33.5255 519.233 33.5133 519.306 33.5868 519.355Z" fill="#3A2C6D"/>
<path d="M50.3372 529.013L51.5625 529.723C51.6066 529.743 51.6547 529.754 51.7035 529.754C51.7522 529.754 51.8003 529.743 51.8444 529.723L52.7021 529.221C52.7879 529.221 52.8002 529.098 52.7021 529.062L51.4768 528.352C51.4327 528.331 51.3846 528.32 51.3359 528.32C51.2871 528.32 51.239 528.331 51.1949 528.352L50.3372 528.854C50.2392 528.903 50.2392 528.976 50.3372 529.013Z" fill="#3A2C6D"/>
<path d="M59.6255 526.504L39.3091 514.778V498.866L39.4684 498.498L39.6277 498.425C39.8411 498.299 40.0844 498.233 40.3323 498.233C40.5801 498.233 40.8234 498.299 41.0368 498.425L59.6255 509.135C59.8376 509.262 60.0134 509.441 60.1358 509.655C60.2582 509.87 60.323 510.112 60.3239 510.359V525.341C60.1891 526.063 60.0421 526.247 59.6255 526.504Z" fill="#E5E5E5"/>
<path d="M57.7629 511.032L39.3091 499.392V498.866L39.4684 498.498L39.6277 498.425C39.8411 498.299 40.0844 498.233 40.3323 498.233C40.5801 498.233 40.8234 498.299 41.0368 498.425L59.6254 509.135C59.8541 509.265 60.0379 509.461 60.1524 509.698L57.7629 511.032Z" fill="#E5E5E5"/>
<path d="M39.7748 498.462L59.2825 509.71C59.3851 509.771 59.4705 509.857 59.5305 509.959C59.5906 510.062 59.6233 510.179 59.6256 510.298V526.504L39.3092 514.778V498.731C39.3078 498.676 39.3212 498.622 39.3481 498.574C39.3749 498.526 39.4143 498.486 39.4619 498.458C39.5096 498.431 39.5638 498.416 39.6189 498.417C39.6739 498.418 39.7278 498.433 39.7748 498.462Z" fill="#DCEEFF"/>
<path d="M39.7748 498.462L59.2825 509.71C59.3851 509.771 59.4705 509.857 59.5305 509.959C59.5906 510.062 59.6233 510.179 59.6256 510.298V526.504L39.3092 514.778V498.731C39.3078 498.676 39.3212 498.622 39.3481 498.574C39.3749 498.526 39.4143 498.486 39.4619 498.458C39.5096 498.431 39.5638 498.416 39.6189 498.417C39.6739 498.418 39.7278 498.433 39.7748 498.462Z" fill="#F4F4F4"/>
<path d="M59.6255 526.504V525.916L39.3091 514.202V514.778L59.6255 526.504Z" fill="#DBDBDB"/>
<path d="M39.8359 513.933V499.306L40.081 499.441V513.811L39.8359 513.933Z" fill="#1E3779"/>
<path d="M40.0811 499.441V513.811L58.976 524.668V510.335L40.0811 499.441Z" fill="#3A2C6D"/>
<path d="M39.8359 513.933L58.976 524.961V524.668L40.081 513.811L39.8359 513.933Z" fill="#031F60"/>
<path d="M17.9636 495.928C17.4734 497.152 18.711 498.596 21.9827 499.6C25.2544 500.604 25.5485 499.306 25.5485 499.306C27.7307 500.283 29.8578 501.378 31.9203 502.587C33.8809 503.957 34.7509 507.936 35.0205 514.643C35.3268 522.403 35.3513 533.909 35.094 535.904C35.094 535.904 31.4179 539.576 26.7248 539.172C22.0317 538.768 14.1037 534.631 12.1921 531.424C12.1921 524.619 13.0376 523.505 11.9348 519.588C9.41059 510.616 8.07495 506.944 9.31256 500.971C10.3174 496.075 11.7633 495.451 13.6871 495.5C15.1191 495.567 16.5466 495.71 17.9636 495.928Z" fill="#F4F4F4"/>
<path d="M42.7525 522.978C38.8926 523.958 37.9859 521.522 37.4835 519.515C36.2581 514.619 35.5964 510.237 34.6774 507.47C33.5991 504.215 32.4718 503.688 30.8788 503.052C29.0285 502.305 27.4233 503.884 28.036 508.033C28.8002 512.852 29.9851 517.595 31.5773 522.207C32.1409 524.284 33.2295 526.18 34.7387 527.715C36.736 529.331 39.7381 529.258 44.2719 528.131C46.931 527.227 49.5126 526.109 51.9917 524.79C52.972 524.337 53.7317 524.031 55.6677 523.15C57.5857 522.313 59.2687 521.018 60.5692 519.38C61.5494 517.948 61.6842 517.275 61.4882 516.932C61.2921 516.589 60.7775 516.614 60.2628 517.213C59.5023 518.226 58.564 519.093 57.4935 519.772C57.4935 519.772 58.7189 518.548 59.3683 517.703C59.9634 516.957 60.454 516.133 60.8265 515.255C61.1818 514.423 60.4589 513.297 59.9075 513.884C59.3561 514.472 59.111 515.108 58.1062 516.332C57.5815 516.97 56.9807 517.541 56.3172 518.033C56.939 517.198 57.4922 516.314 57.9714 515.39C58.4013 514.648 58.6097 513.798 58.5718 512.942C58.5718 512.513 57.9224 511.999 57.3465 512.819C56.7497 513.988 56.0087 515.078 55.1408 516.063C54.2586 516.981 53.5111 517.507 53.4866 517.287C53.4621 517.067 54.0258 516.528 54.3321 515.475C54.6384 514.423 54.3321 513.284 53.7439 513.162C53.1558 513.04 53.266 513.064 52.8004 514.068C52.1463 515.089 51.5609 516.152 51.0482 517.25C50.7459 518.275 50.1993 519.212 49.4552 519.98C48.5239 520.947 46.4286 522.06 42.7525 522.978Z" fill="#FFCEA9"/>
<path d="M29.4083 502.391C31.9815 502.011 33.8073 503.174 34.9469 507.066C36.0864 510.959 36.8707 514.166 36.8707 514.166C35.8535 515.637 34.3095 516.663 32.5574 517.03C29.4818 517.776 28.3667 516.308 28.3667 516.308C28.3667 516.308 27.509 512.219 26.9821 509.441C26.4552 506.663 26.2714 502.856 29.4083 502.391Z" fill="#EDEDED"/>
<path d="M30.7316 482.427C30.7316 482.427 34.7998 476.246 25.9772 474.985C19.6176 474.08 15.5249 478.156 15.0593 482.586C14.6059 486.821 17.2159 491.216 19.0907 492.966C20.9431 493.437 22.9048 493.201 24.5926 492.305C24.6977 491.149 24.7386 489.989 24.7151 488.829C24.7151 488.829 21.615 482.317 30.7316 482.427Z" fill="#73512A"/>
<path d="M48.3891 560.653V542.085L33.6235 550.69L39.3092 562.428L48.3891 560.653Z" fill="#C4C7D6"/>
<path d="M38.709 543.15L44.3701 539.87L48.377 542.183L42.5076 545.512L38.709 543.15Z" fill="#D6D8E5"/>
<path opacity="0.4" d="M272.151 459L202.404 418.779C197.368 415.878 198.005 410.811 203.813 407.457L249.004 381.398L336.972 432.17L291.794 458.229C285.973 461.583 277.187 461.938 272.151 459Z" fill="#D6D8E5"/>
<path d="M277.249 456.05L207.489 415.817C202.465 412.916 203.102 407.861 208.898 404.508L254.089 378.449L342.058 429.171L296.867 455.242C291.058 458.584 282.273 459 277.249 456.05Z" fill="#B1B4C4"/>
<path d="M342.057 429.171V426.515L338.001 428.853L342.057 429.171Z" fill="#B1B4C4"/>
<path d="M204.095 411.031V408.326L208.274 410.052L204.095 411.031Z" fill="#B1B4C4"/>
<path d="M277.249 453.394L207.489 413.161C202.465 410.26 203.102 405.193 208.898 401.851L254.089 375.768L342.058 426.503L296.867 452.562C291.058 455.928 282.273 456.283 277.249 453.394Z" fill="#D6D8E5"/>
<path d="M254.334 375.903L243.441 339.819L332.365 390.774L342.057 426.515L254.334 375.903Z" fill="#9EA1AF"/>
<path d="M339.484 427.996L342.058 426.515L338.198 423.504L339.484 427.996Z" fill="#9EA1AF"/>
<path d="M251.528 377.261L240.635 341.178L329.559 392.133L339.484 427.996L251.528 377.261Z" fill="#B1B4C4"/>
<path d="M477.263 488.804L133.049 290.296C128.221 287.505 124.312 280.039 124.312 273.613V7.65C124.312 1.224 128.221 -1.73808 133.049 1.05264L477.263 199.512C482.091 202.29 486 209.757 486 216.195V482.256C486 488.633 482.091 491.595 477.263 488.804Z" fill="#C4C7D6"/>
<path d="M479.028 491.546L482.851 489.355L481.197 478.058L479.028 491.546Z" fill="#C4C7D6"/>
<path d="M123.687 2.68055L127.437 0.526306L132.828 3.59855C132.828 3.59855 127.081 4.46759 126.946 4.43087C126.812 4.39415 123.687 2.68055 123.687 2.68055Z" fill="#B1B4C4"/>
<path d="M474.102 490.628L129.888 292.12C125.06 289.329 121.139 281.863 121.139 275.437V9.4738C121.139 3.03556 125.06 0.0857171 129.888 2.8642L474.09 201.373C478.918 204.163 482.839 211.63 482.839 218.068V484.019C482.851 490.457 478.93 493.407 474.102 490.628Z" fill="#E4E7F2"/>
<path d="M473.501 490.971L129.287 292.463C124.459 289.672 120.55 282.205 120.55 275.779V9.79203C120.55 3.36603 124.459 0.403954 129.287 3.19467L473.501 201.727C478.329 204.506 482.238 211.972 482.238 218.411V484.374C482.238 490.824 478.329 493.762 473.501 490.971Z" fill="#201D38"/>
<path opacity="0.3" d="M477.508 474.802L124.913 271.459L125.096 10.8814C125.096 8.21305 126.971 7.13593 129.287 8.43337L473.501 206.978C474.721 207.772 475.737 208.841 476.465 210.1C477.193 211.36 477.613 212.773 477.692 214.224L477.508 474.802Z" fill="url(#paint0_linear)"/>
<path d="M434.474 242.523L343.332 189.904V181.482L434.474 234.102V242.523Z" fill="#A298E2"/>
<path d="M371.074 300.21L343.332 284.201V275.792L371.074 291.789V300.21Z" fill="#C33AFC"/>
<path d="M353.551 263.16L343.332 257.26V248.839L353.551 254.739V263.16Z" fill="#4D3BFF"/>
<path d="M221.397 176.427L192.197 159.585V151.164L221.397 168.006V176.427Z" fill="#C33AFC"/>
<path d="M284.184 239.586L192.197 186.538V178.116L284.184 231.165V239.586Z" fill="#F4CE2C"/>
<path d="M359.776 213.062L343.332 203.38V194.959L359.776 204.641V213.062Z" fill="#4D3BFF"/>
<path d="M400.017 330.517L343.332 297.677V289.256L400.017 322.096V330.517Z" fill="#4D3BFF"/>
<path d="M349.998 355.78L343.332 351.57V343.148L349.998 347.359V355.78Z" fill="#A298E2"/>
<path d="M273.965 179.793L192.197 132.645V124.224L273.965 171.372V179.793Z" fill="#FF8657"/>
<path d="M219.939 215.999L192.197 200.002V191.581L219.939 207.578V215.999Z" fill="#FF8657"/>
<path d="M338.957 295.155L315.59 281.679V273.258L338.957 286.734V295.155Z" fill="#A298E2"/>
<path d="M338.957 254.739L315.59 241.263V232.841L338.957 246.318V254.739Z" fill="#A298E2"/>
<path d="M187.822 210.956L164.455 197.48V189.059L187.822 202.535V210.956Z" fill="#A298E2"/>
<path d="M338.957 200.846L315.59 187.382V178.961L338.957 192.425V200.846Z" fill="#A298E2"/>
<path d="M338.957 281.679L315.59 268.215V259.794L338.957 273.258V281.679Z" fill="#A298E2"/>
<path d="M338.957 308.632L315.59 295.155V286.734L338.957 300.211V308.632Z" fill="#A298E2"/>
<path d="M187.822 157.064L164.455 143.587V135.166L187.822 148.643V157.064Z" fill="#A298E2"/>
<path d="M187.822 224.42L164.455 210.944V202.535L187.822 215.999V224.42Z" fill="#A298E2"/>
<path d="M338.957 214.322L315.59 200.846V192.425L338.957 205.901V214.322Z" fill="#A298E2"/>
<path d="M338.957 335.572L315.59 322.096V313.674L338.957 327.151V335.572Z" fill="#A298E2"/>
<path d="M187.822 89.707L164.455 76.2307V67.8096L187.822 81.2859V89.707Z" fill="#A298E2"/>
<path d="M187.822 143.587L164.455 130.123V121.702L187.822 135.166V143.587Z" fill="#A298E2"/>
<path d="M187.822 251.373L164.455 237.897V229.476L187.822 242.952V251.373Z" fill="#A298E2"/>
<path d="M416.498 272.413L343.332 230.32V221.899L416.498 264.005V272.413Z" fill="#FF8657"/>
<path d="M435.319 323.785L343.332 270.737V262.315L435.319 315.364V323.785Z" fill="#A298E2"/>
<path d="M385.938 349.048L343.332 324.617V316.208L385.938 340.627V349.048Z" fill="#4D3BFF"/>
<path d="M257.9 157.064L192.197 119.169V110.747L257.9 148.643V157.064Z" fill="#F4CE2C"/>
<path d="M269.578 217.688L192.197 173.061V164.64L269.578 209.267V217.688Z" fill="#4D3BFF"/>
<path d="M202.416 232.842L192.197 226.954V218.533L202.416 224.42V232.842Z" fill="#C33AFC"/>
<path d="M211.177 264.837L192.197 253.894V245.473L211.177 256.416V264.837Z" fill="#F4CE2C"/>
<path d="M338.957 241.263L315.59 227.786V219.365L338.957 232.842V241.263Z" fill="#A298E2"/>
<path d="M338.957 349.048L315.59 335.572V327.151L338.957 340.627V349.048Z" fill="#A298E2"/>
<path d="M187.822 116.647L164.455 103.171V94.7499L187.822 108.226V116.647Z" fill="#A298E2"/>
<path d="M187.822 197.48L164.455 184.004V175.583L187.822 189.059V197.48Z" fill="#A298E2"/>
<path d="M187.822 264.837L164.455 251.373V242.952L187.822 256.416V264.837Z" fill="#A298E2"/>
<path d="M371.074 232.842L343.332 216.844V208.423L371.074 224.42V232.842Z" fill="#4D3BFF"/>
<path d="M379.921 332.206L343.332 311.153V302.732L379.921 323.785V332.206Z" fill="#C33AFC"/>
<path d="M396.721 368.497L343.332 338.093V329.672L396.721 360.076V368.497Z" fill="#FF8657"/>
<path d="M249.139 178.961L192.197 146.121V137.7L249.139 170.54V178.961Z" fill="#A298E2"/>
<path d="M241.836 134.334L192.197 105.705V97.2835L241.836 125.913V134.334Z" fill="#4D3BFF"/>
<path d="M273.965 260.626L192.197 213.478V205.057L273.965 252.217V260.626Z" fill="#A298E2"/>
<path d="M241.836 296L192.197 267.371V258.949L241.836 287.579V296Z" fill="#FF8657"/>
<path d="M338.957 187.382L315.59 173.906V165.485L338.957 178.961V187.382Z" fill="#A298E2"/>
<path d="M338.957 268.215L315.59 254.739V246.318L338.957 259.794V268.215Z" fill="#A298E2"/>
<path d="M338.957 362.512L315.59 349.048V340.627L338.957 354.091V362.512Z" fill="#A298E2"/>
<path d="M187.822 130.123L164.455 116.647V108.226L187.822 121.702V130.123Z" fill="#A298E2"/>
<path d="M187.822 170.54L164.455 157.064V148.643L187.822 162.119V170.54Z" fill="#A298E2"/>
<path d="M187.822 237.897L164.455 224.42V215.999L187.822 229.476V237.897Z" fill="#A298E2"/>
<path d="M392.971 205.081L343.332 176.427V168.006L392.971 196.66V205.081Z" fill="#F4CE2C"/>
<path d="M422.171 290.1L343.332 243.796V235.375L422.171 281.679V290.1Z" fill="#C33AFC"/>
<path d="M373.954 382.659L343.332 365.046V356.625L373.954 374.238V382.659Z" fill="#F4CE2C"/>
<path d="M291.487 149.487L192.197 92.2284V83.8073L291.487 141.066V149.487Z" fill="#C33AFC"/>
<path d="M271.036 326.306L192.197 280.835V272.413L271.036 317.885V326.306Z" fill="#A298E2"/>
<path d="M291.487 297.677L192.197 240.418V231.997L291.487 289.256V297.677Z" fill="#4D3BFF"/>
<path opacity="0.4" d="M367.3 612C395.615 612 418.569 598.76 418.569 582.428C418.569 566.096 395.615 552.856 367.3 552.856C338.985 552.856 316.031 566.096 316.031 582.428C316.031 598.76 338.985 612 367.3 612Z" fill="#D6D8E5"/>
<path d="M423.605 578.23V499.392L321.276 501.962L321.496 574.668C319.585 583.42 324.437 592.563 336.09 599.283C356.113 610.825 388.572 610.837 408.595 599.283C418.655 593.444 423.654 585.831 423.605 578.23Z" fill="#A6CE28"/>
<path d="M372.336 528.927C400.651 528.927 423.605 515.687 423.605 499.355C423.605 483.023 400.651 469.783 372.336 469.783C344.021 469.783 321.067 483.023 321.067 499.355C321.067 515.687 344.021 528.927 372.336 528.927Z" fill="#BCD64D"/>
<path d="M415.505 499.392C415.505 504.202 411.498 509.257 404.538 513.284C396.941 517.642 386.562 520.335 375.632 520.775C374.542 520.775 373.451 520.849 372.348 520.849C360.217 520.849 348.491 518.082 340.146 513.284C333.186 509.257 329.179 504.202 329.179 499.392C329.179 494.582 333.186 489.527 340.146 485.5C348.491 480.689 360.217 477.923 372.336 477.923C373.439 477.923 374.542 477.923 375.632 477.996C386.562 478.437 396.941 481.13 404.538 485.5C411.498 489.49 415.505 494.496 415.505 499.392Z" fill="#28221C"/>
<path opacity="0.07" d="M415.505 499.392C415.505 504.202 411.498 509.257 404.538 513.284C396.941 517.642 386.562 520.335 375.632 520.775C364.702 520.335 354.311 517.642 346.726 513.284C339.754 509.184 335.747 504.166 335.747 499.392C335.747 494.618 339.742 489.527 346.702 485.5C354.299 481.13 364.69 478.437 375.62 477.996C386.55 478.437 396.929 481.13 404.526 485.5C411.498 489.49 415.505 494.496 415.505 499.392Z" fill="white"/>
<path d="M416.106 535.879L405.225 529.588L399.931 532.648L405.225 535.708V537.715L415.432 543.591L415.126 545.476C416.608 546.7 421.889 556.492 421.889 556.492L422.257 556.149V581.522C422.257 588.181 418.348 585.929 416.682 584.962L405.225 578.352L399.931 581.4L405.225 584.448V586.455L416.682 593.065C417.839 593.758 419.073 594.317 420.358 594.729L419.672 597.912L425.602 594.57H425.688H425.774C428.225 593.126 429.266 589.613 429.266 585.672V559.05C429.315 547.801 420.676 538.976 416.106 535.879Z" fill="#8DA01F"/>
<path d="M411.388 596.161L399.931 589.552V581.4L411.388 588.01C413.055 588.964 416.964 591.229 416.964 584.558V558.058C416.964 551.791 411.29 547.458 410.322 546.773L399.931 540.775V532.648L410.812 538.939C415.395 542.036 423.973 550.873 423.973 562.122V588.646C423.973 595.806 420.701 601.523 411.388 596.161Z" fill="#99B524"/>
<path opacity="0.4" d="M50.6931 455.34C70.1901 455.34 85.9955 446.221 85.9955 434.973C85.9955 423.724 70.1901 414.605 50.6931 414.605C31.1961 414.605 15.3906 423.724 15.3906 434.973C15.3906 446.221 31.1961 455.34 50.6931 455.34Z" fill="#D6D8E5"/>
<path d="M55.7292 451.57C75.2262 451.57 91.0317 442.452 91.0317 431.203C91.0317 419.954 75.2262 410.836 55.7292 410.836C36.2322 410.836 20.4268 419.954 20.4268 431.203C20.4268 442.452 36.2322 451.57 55.7292 451.57Z" fill="#D6D8E5"/>
<path d="M8.46729 361.582L20.8189 432.611H90.9459L102.991 362.096L8.46729 361.582Z" fill="#D6D8E5"/>
<path d="M55.7289 387.983C81.858 387.983 103.04 375.768 103.04 360.701C103.04 345.633 81.858 333.418 55.7289 333.418C29.5998 333.418 8.41797 345.633 8.41797 360.701C8.41797 375.768 29.5998 387.983 55.7289 387.983Z" fill="#E4E6EF"/>
<path d="M55.729 381.961C44.1371 381.961 33.3295 379.415 25.2912 374.777C18.3924 370.811 14.4468 365.67 14.4468 360.701C14.4468 355.731 18.3924 350.59 25.2912 346.625C33.3172 341.986 44.1371 339.44 55.729 339.44C67.3208 339.44 78.1407 341.986 86.1668 346.625C93.0655 350.59 97.0111 355.731 97.0111 360.701C97.0111 365.67 93.1268 370.872 86.1668 374.777C78.1407 379.44 67.3943 381.961 55.729 381.961Z" fill="#28221C"/>
<path d="M76.0823 339.207C76.7519 330.028 75.2887 320.819 71.807 312.299C68.3253 303.778 62.9193 296.177 56.011 290.088L55.8762 289.953V290.21C48.9615 296.3 43.5507 303.905 40.0666 312.43C36.5826 320.956 35.1198 330.17 35.7927 339.354L8.72461 336.747C20.1449 379.721 56.011 376.025 56.011 376.025V375.939C58.7191 376.147 92.1712 377.873 103.114 336.649L76.0823 339.207Z" fill="#99B524"/>
<path d="M56.0108 376.025C56.0108 376.025 53.5601 342.561 8.61409 320.027C8.57733 320.027 -2.03424 375.621 56.0108 376.025Z" fill="#A6CE28"/>
<path d="M55.729 376.025C55.729 376.025 58.1797 342.561 103.126 320.027C103.126 320.027 113.774 375.621 55.729 376.025Z" fill="#A6CE28"/>
<defs>
<linearGradient id="paint0_linear" x1="124.913" y1="241.348" x2="477.692" y2="241.348" gradientUnits="userSpaceOnUse">
<stop offset="0.21" stop-color="white" stop-opacity="0"/>
<stop offset="1" stop-color="white" stop-opacity="0.2"/>
</linearGradient>
</defs>
</svg>
