<svg width="229" height="129" viewBox="0 0 229 129" fill="none" xmlns="http://www.w3.org/2000/svg">
<path d="M71.2583 54.5025H75.1226V73.143H71.2583V54.5025Z" fill="#515151"/>
<path d="M77.2867 66.7575C77.2868 65.4164 77.6844 64.1055 78.4292 62.9909C79.174 61.8764 80.2324 61.0083 81.4704 60.4969C82.7083 59.9855 84.0701 59.8536 85.3829 60.1181C86.6958 60.3826 87.9006 61.0314 88.8449 61.9825C89.7891 62.9335 90.4301 64.1439 90.6866 65.4601C90.9432 66.7764 90.8037 68.1393 90.286 69.3761C89.7682 70.613 88.8954 71.668 87.7782 72.4075C86.6611 73.147 85.3498 73.5377 84.0107 73.53C83.1225 73.5369 82.2418 73.3662 81.4204 73.0278C80.5989 72.6895 79.8532 72.1903 79.2269 71.5595C78.6007 70.9287 78.1065 70.179 77.7733 69.3544C77.4401 68.5298 77.2747 67.6469 77.2867 66.7575ZM86.9733 66.7575C86.9581 66.1793 86.773 65.6185 86.4412 65.1451C86.1094 64.6717 85.6456 64.3068 85.1078 64.096C84.57 63.8852 83.9821 63.8379 83.4176 63.96C82.853 64.082 82.337 64.3681 81.934 64.7823C81.5309 65.1966 81.2588 65.7206 81.1516 66.289C81.0444 66.8573 81.1069 67.4447 81.3313 67.9776C81.5557 68.5105 81.932 68.9654 82.4131 69.2853C82.8943 69.6052 83.4589 69.7759 84.0364 69.7761C84.4296 69.7838 84.8202 69.7101 85.1837 69.5598C85.5472 69.4094 85.8758 69.1856 86.1491 68.9023C86.4223 68.619 86.6342 68.2823 86.7716 67.9133C86.909 67.5442 86.9689 67.1508 86.9476 66.7575H86.9733Z" fill="#515151"/>
<path d="M106.024 60.372V72.5109C106.024 76.7937 102.675 78.6126 99.2877 78.6126C98.0928 78.7108 96.8942 78.4731 95.8269 77.9261C94.7595 77.3791 93.8659 76.5447 93.2464 75.5166L96.5054 73.6332C96.7695 74.1664 97.1895 74.6064 97.7096 74.8945C98.2297 75.1826 98.8251 75.3051 99.4165 75.2457C99.7932 75.2922 100.176 75.2547 100.536 75.136C100.897 75.0173 101.227 74.8202 101.502 74.5589C101.778 74.2976 101.993 73.9785 102.131 73.6245C102.269 73.2704 102.327 72.8902 102.302 72.5109V71.337C101.852 71.883 101.282 72.3166 100.635 72.6032C99.9892 72.8898 99.2852 73.0216 98.5792 72.9882C96.8711 72.9882 95.2329 72.3087 94.0251 71.0991C92.8172 69.8894 92.1387 68.2489 92.1387 66.5382C92.1387 64.8276 92.8172 63.187 94.0251 61.9774C95.2329 60.7678 96.8711 60.0882 98.5792 60.0882C99.2852 60.0548 99.9892 60.1866 100.635 60.4732C101.282 60.7599 101.852 61.1934 102.302 61.7394V60.4494L106.024 60.372ZM102.302 66.4995C102.328 65.8823 102.168 65.2716 101.845 64.7458C101.521 64.2199 101.048 63.8031 100.485 63.5489C99.9233 63.2947 99.298 63.2146 98.6901 63.3191C98.0822 63.4236 97.5194 63.7078 97.0741 64.1352C96.6287 64.5626 96.3213 65.1137 96.1912 65.7175C96.0611 66.3213 96.1143 66.9503 96.344 67.5236C96.5737 68.0968 96.9694 68.5882 97.4802 68.9344C97.991 69.2807 98.5936 69.466 99.2104 69.4665C99.6129 69.4956 100.017 69.4397 100.397 69.3026C100.776 69.1656 101.123 68.9502 101.414 68.6706C101.705 68.391 101.935 68.0533 102.088 67.6794C102.241 67.3054 102.314 66.9034 102.302 66.4995Z" fill="#515151"/>
<path d="M108.201 66.7575C108.201 65.4175 108.598 64.1076 109.342 62.9936C110.085 61.8796 111.142 61.0115 112.379 60.4993C113.615 59.9871 114.976 59.8537 116.288 60.1161C117.6 60.3785 118.805 61.0248 119.75 61.9732C120.695 62.9217 121.338 64.1296 121.598 65.4442C121.857 66.7588 121.722 68.1209 121.208 69.3582C120.694 70.5955 119.825 71.6523 118.711 72.3949C117.598 73.1375 116.289 73.5326 114.951 73.53C114.061 73.5387 113.178 73.3693 112.355 73.0318C111.531 72.6944 110.783 72.1956 110.154 71.5649C109.526 70.9341 109.029 70.1839 108.694 69.3584C108.358 68.5329 108.191 67.6487 108.201 66.7575ZM117.888 66.7575C117.872 66.1788 117.687 65.6174 117.355 65.1438C117.022 64.6701 116.558 64.3052 116.019 64.0948C115.481 63.8845 114.892 63.8379 114.327 63.961C113.762 64.0841 113.246 64.3715 112.844 64.787C112.441 65.2025 112.17 65.7278 112.065 66.2969C111.959 66.8661 112.023 67.4538 112.249 67.9865C112.476 68.5193 112.854 68.9732 113.337 69.2915C113.82 69.6099 114.386 69.7785 114.964 69.7761C115.357 69.7838 115.747 69.7102 116.111 69.5598C116.474 69.4095 116.803 69.1857 117.076 68.9024C117.35 68.619 117.561 68.2823 117.699 67.9133C117.836 67.5443 117.896 67.1508 117.875 66.7575H117.888Z" fill="#515151"/>
<path d="M123.491 56.9535C123.491 56.4993 123.626 56.0554 123.878 55.6778C124.13 55.3002 124.488 55.0059 124.907 54.8321C125.326 54.6583 125.787 54.6128 126.231 54.7014C126.676 54.79 127.085 55.0087 127.405 55.3298C127.726 55.651 127.944 56.0601 128.033 56.5055C128.121 56.9509 128.076 57.4126 127.902 57.8322C127.729 58.2518 127.435 58.6104 127.058 58.8627C126.681 59.115 126.238 59.2497 125.784 59.2497C125.178 59.243 124.599 58.9989 124.17 58.5697C123.742 58.1406 123.498 57.5604 123.491 56.9535ZM123.865 60.372H127.729V73.143H123.865V60.372Z" fill="#515151"/>
<path d="M144.268 66.7575C144.311 67.6068 144.186 68.4564 143.901 69.2572C143.615 70.0581 143.174 70.7944 142.603 71.4238C142.032 72.0533 141.342 72.5634 140.573 72.9249C139.804 73.2863 138.972 73.492 138.124 73.53C137.404 73.578 136.682 73.4625 136.013 73.1922C135.344 72.922 134.745 72.5038 134.259 71.9691V78.2772H130.395V60.372H134.259V61.5717C134.745 61.0385 135.345 60.6223 136.014 60.3543C136.684 60.0862 137.405 59.9732 138.124 60.0237C138.969 60.0618 139.798 60.2662 140.564 60.6252C141.33 60.9843 142.018 61.4909 142.588 62.1162C143.159 62.7415 143.601 63.4732 143.889 64.2696C144.177 65.0659 144.306 65.9113 144.268 66.7575ZM140.404 66.7575C140.388 66.1584 140.197 65.577 139.853 65.0864C139.51 64.5958 139.029 64.2177 138.471 63.9995C137.914 63.7813 137.305 63.7327 136.72 63.8598C136.135 63.9869 135.601 64.2841 135.184 64.714C134.767 65.144 134.486 65.6876 134.376 66.2768C134.267 66.866 134.333 67.4745 134.567 68.0261C134.801 68.5776 135.193 69.0477 135.693 69.3774C136.192 69.707 136.778 69.8816 137.377 69.8793C137.786 69.8967 138.195 69.8272 138.577 69.6752C138.958 69.5233 139.303 69.2923 139.588 68.9975C139.874 68.7028 140.095 68.3508 140.235 67.9648C140.376 67.5787 140.433 67.1673 140.404 66.7575Z" fill="#515151"/>
<path d="M156.029 69.3117C156.029 72.2529 153.453 73.5042 150.722 73.5042C149.608 73.6046 148.49 73.3682 147.511 72.8255C146.533 72.2827 145.74 71.4587 145.234 70.4598L148.558 68.5764C148.689 69.0367 148.975 69.4378 149.366 69.7125C149.758 69.9872 150.232 70.119 150.709 70.0857C151.623 70.0857 152.087 69.8019 152.087 69.2859C152.087 67.8798 145.814 68.628 145.814 64.2033C145.814 61.4169 148.158 60.0237 150.812 60.0237C151.821 59.9785 152.823 60.2076 153.712 60.6869C154.601 61.1661 155.344 61.8776 155.861 62.7456L152.538 64.5C152.391 64.1672 152.151 63.8841 151.847 63.6849C151.543 63.4858 151.188 63.3791 150.825 63.3777C150.155 63.3777 149.756 63.6357 149.756 64.0872C149.756 65.5578 156.029 64.5903 156.029 69.3117Z" fill="#515151"/>
<path d="M170.031 60.372V73.143H166.166V71.9433C165.727 72.4743 165.17 72.8946 164.539 73.1702C163.908 73.4458 163.221 73.5691 162.534 73.53C159.958 73.53 157.755 71.6853 157.755 68.241V60.372H161.619V67.6605C161.589 67.9652 161.625 68.2729 161.725 68.5623C161.825 68.8517 161.986 69.1159 162.198 69.3367C162.41 69.5575 162.667 69.7296 162.952 69.8411C163.237 69.9526 163.542 70.0008 163.848 69.9825C165.239 69.9825 166.218 69.1569 166.218 67.4025V60.372H170.031Z" fill="#515151"/>
<path d="M191.928 65.2998V73.143H188.064V65.6352C188.064 64.3452 187.459 63.5454 186.235 63.5454C185.011 63.5454 184.238 64.4355 184.238 65.9448V73.143H180.374V65.6352C180.374 64.3452 179.769 63.5454 178.545 63.5454C177.321 63.5454 176.548 64.4355 176.548 65.9448V73.143H172.684V60.372H176.548V61.5459C176.948 61.0273 177.471 60.6165 178.069 60.3508C178.668 60.085 179.322 59.9726 179.975 60.0237C180.628 59.9896 181.28 60.1262 181.864 60.4202C182.449 60.7142 182.948 61.1555 183.311 61.7007C183.735 61.1311 184.297 60.6785 184.944 60.3852C185.59 60.092 186.3 59.9676 187.008 60.0237C190.022 60.0237 191.928 62.1135 191.928 65.2998Z" fill="#515151"/>
<path d="M48.2397 51.1485V45.666H30.979V83.334H48.2397V77.8515C44.7038 77.8515 41.3128 76.4448 38.8126 73.941C36.3123 71.4371 34.9077 68.0411 34.9077 64.5C34.9077 60.959 36.3123 57.563 38.8126 55.0591C41.3128 52.5552 44.7038 51.1485 48.2397 51.1485Z" fill="#515151"/>
<path d="M48.2397 51.1485V77.8515C51.7756 77.8515 55.1666 76.4448 57.6668 73.9409C60.1671 71.437 61.5717 68.041 61.5717 64.5C61.5717 60.959 60.1671 57.563 57.6668 55.0591C55.1666 52.5552 51.7756 51.1485 48.2397 51.1485Z" fill="#515151"/>
<path d="M195.174 60.2946C196.739 60.2946 198.008 59.024 198.008 57.4566C198.008 55.8892 196.739 54.6186 195.174 54.6186C193.609 54.6186 192.34 55.8892 192.34 57.4566C192.34 59.024 193.609 60.2946 195.174 60.2946Z" fill="#515151"/>
</svg>
