<svg width="252" height="142" viewBox="0 0 252 142" fill="none" xmlns="http://www.w3.org/2000/svg">
<path d="M90.5347 62.5794H94.7871V79.804H90.5347V62.5794ZM96.4739 73.3004C96.4739 69.0404 99.0821 66.4986 103.108 66.4986C107.133 66.4986 109.742 69.0404 109.742 73.3004C109.742 77.5604 107.19 80.1164 103.108 80.1164C99.0254 80.1164 96.4739 77.6314 96.4739 73.3004ZM105.475 73.3004C105.475 70.9574 104.554 69.58 103.108 69.58C101.662 69.58 100.755 71 100.755 73.3004C100.755 75.6008 101.648 76.9924 103.108 76.9924C104.568 76.9924 105.475 75.686 105.475 73.3146V73.3004ZM111.343 80.6418H115.426C115.62 81.0742 115.948 81.4322 116.362 81.6625C116.776 81.8927 117.253 81.983 117.722 81.9198C119.338 81.9198 120.188 81.0394 120.188 79.7614V77.3758H120.103C119.765 78.107 119.215 78.7196 118.525 79.1347C117.835 79.5498 117.037 79.7483 116.234 79.7046C113.129 79.7046 111.074 77.3332 111.074 73.2578C111.074 69.1824 113.03 66.6122 116.29 66.6122C117.119 66.5797 117.938 66.8016 118.637 67.2483C119.336 67.6949 119.882 68.345 120.203 69.1114V66.74H124.455V79.662C124.455 82.7718 121.719 84.703 117.679 84.703C113.923 84.703 111.584 83.0132 111.343 80.656V80.6418ZM120.203 73.2862C120.203 71.213 119.253 69.9066 117.75 69.9066C116.248 69.9066 115.326 71.1988 115.326 73.2862C115.326 75.3736 116.234 76.5522 117.75 76.5522C119.267 76.5522 120.203 75.402 120.203 73.3004V73.2862ZM126.057 73.2862C126.057 69.0262 128.665 66.4844 132.691 66.4844C136.716 66.4844 139.339 69.0262 139.339 73.2862C139.339 77.5462 136.787 80.1022 132.691 80.1022C128.594 80.1022 126.057 77.6314 126.057 73.3004V73.2862ZM135.058 73.2862C135.058 70.9432 134.136 69.5658 132.691 69.5658C131.245 69.5658 130.408 71 130.408 73.3146C130.408 75.6292 131.301 77.0066 132.747 77.0066C134.193 77.0066 135.058 75.686 135.058 73.3146V73.2862ZM140.955 63.6444C140.943 63.2143 141.06 62.7906 141.29 62.4269C141.519 62.0632 141.851 61.7761 142.244 61.6017C142.637 61.4274 143.072 61.3738 143.495 61.4477C143.918 61.5217 144.31 61.7198 144.62 62.0169C144.931 62.3141 145.147 62.697 145.24 63.117C145.333 63.537 145.299 63.9753 145.144 64.3762C144.988 64.7772 144.717 65.1227 144.364 65.3691C144.012 65.6155 143.595 65.7516 143.166 65.7602C142.881 65.7798 142.596 65.7402 142.327 65.6439C142.058 65.5476 141.812 65.3968 141.605 65.2007C141.397 65.0047 141.232 64.7678 141.12 64.5048C141.008 64.2419 140.952 63.9586 140.955 63.6728V63.6444ZM140.955 66.7684H145.207V79.804H140.955V66.7684ZM160.643 73.2862C160.643 77.5462 158.758 79.9744 155.526 79.9744C154.698 80.0277 153.872 79.8248 153.163 79.393C152.453 78.9613 151.892 78.3216 151.557 77.5604H151.472V83.9788H147.22V66.74H151.472V69.0688H151.557C151.877 68.2951 152.426 67.6387 153.132 67.189C153.837 66.7393 154.663 66.5181 155.498 66.5554C158.758 66.6122 160.7 69.0546 160.7 73.3146L160.643 73.2862ZM156.391 73.2862C156.391 71.213 155.441 69.8924 153.953 69.8924C152.464 69.8924 151.515 71.2272 151.501 73.2862C151.486 75.3452 152.464 76.6658 153.953 76.6658C155.441 76.6658 156.391 75.3736 156.391 73.3146V73.2862ZM167.943 66.4702C171.473 66.4702 173.613 68.1458 173.713 70.8296H169.843C169.843 69.9066 169.077 69.3244 167.901 69.3244C166.724 69.3244 166.2 69.7788 166.2 70.4462C166.2 71.1136 166.668 71.3266 167.617 71.5254L170.339 72.0792C172.933 72.633 174.039 73.6838 174.039 75.6576C174.039 78.3556 171.586 80.088 167.972 80.088C164.357 80.088 161.99 78.3556 161.806 75.7002H165.902C166.03 76.6658 166.795 77.2338 168.043 77.2338C169.29 77.2338 169.857 76.822 169.857 76.1404C169.857 75.4588 169.46 75.3168 168.44 75.1038L165.987 74.5784C163.45 74.053 162.118 72.704 162.118 70.716C162.146 68.16 164.428 66.4986 167.943 66.4986V66.4702ZM188.228 79.7756H184.131V77.3474H184.046C183.821 78.1627 183.324 78.8762 182.638 79.3696C181.952 79.863 181.119 80.1064 180.275 80.0596C179.629 80.0964 178.983 79.9938 178.38 79.7589C177.777 79.5239 177.231 79.162 176.78 78.6975C176.328 78.2331 175.981 77.6771 175.763 77.0669C175.544 76.4567 175.459 75.8066 175.513 75.1606V66.74H179.765V74.1808C179.765 75.7286 180.559 76.5522 181.877 76.5522C182.186 76.5528 182.492 76.4873 182.774 76.3599C183.056 76.2325 183.307 76.0462 183.511 75.8136C183.715 75.581 183.867 75.3073 183.957 75.011C184.047 74.7147 184.072 74.4026 184.032 74.0956V66.74H188.284L188.228 79.7756ZM190.283 66.74H194.394V69.2534H194.479C194.704 68.4489 195.19 67.7422 195.859 67.2437C196.529 66.7452 197.344 66.4832 198.178 66.4986C199.027 66.4305 199.87 66.6849 200.539 67.2112C201.209 67.7374 201.657 68.4969 201.793 69.3386H201.878C202.135 68.4879 202.667 67.7472 203.391 67.233C204.115 66.7188 204.989 66.4604 205.875 66.4986C206.454 66.4791 207.029 66.5818 207.566 66.7999C208.102 67.0179 208.586 67.3466 208.987 67.7644C209.388 68.1822 209.697 68.6799 209.893 69.2251C210.09 69.7704 210.17 70.3509 210.128 70.929V79.804H205.875V72.065C205.875 70.645 205.237 69.9918 204.047 69.9918C203.781 69.9896 203.518 70.0444 203.276 70.1526C203.033 70.2608 202.816 70.4198 202.64 70.619C202.464 70.8182 202.333 71.0529 202.255 71.3072C202.178 71.5616 202.155 71.8297 202.19 72.0934V79.804H198.15V72.0082C198.15 70.7018 197.512 69.9918 196.35 69.9918C196.081 69.9919 195.816 70.049 195.571 70.1594C195.326 70.2698 195.107 70.4309 194.929 70.6322C194.751 70.8335 194.617 71.0703 194.537 71.3271C194.457 71.5839 194.432 71.8547 194.464 72.1218V79.804H190.212L190.283 66.74Z" fill="#515151"/>
<path d="M78.6421 63.3604C77.9207 61.708 76.966 60.1681 75.8071 58.788C74.094 56.6869 71.9562 54.973 69.5343 53.7592C67.1124 52.5454 64.4613 51.8592 61.7556 51.7457C59.0499 51.6323 56.3509 52.0941 53.8362 53.1009C51.3215 54.1076 49.0481 55.6365 47.1657 57.5869C45.2833 59.5372 43.8346 61.8648 42.9149 64.4164C41.9951 66.9681 41.6252 69.6859 41.8296 72.3911C42.0339 75.0962 42.8078 77.7274 44.1003 80.1113C45.3928 82.4953 47.1746 84.578 49.3285 86.2224C50.7106 87.2986 52.2377 88.1735 53.8645 88.821C56.1453 89.7573 58.5863 90.2396 61.0511 90.241C66.139 90.2297 71.0149 88.198 74.61 84.5913C78.205 80.9845 80.2259 76.097 80.2296 71C80.2334 68.3709 79.6928 65.7696 78.6421 63.3604ZM61.0369 55.6498C63.2504 55.6495 65.4372 56.1342 67.444 57.0698C66.9546 57.2816 66.4401 57.4295 65.9131 57.51C64.1789 57.7615 62.5725 58.568 61.3334 59.8092C60.0944 61.0504 59.2893 62.6598 59.0383 64.397C58.9281 65.3713 58.4858 66.2777 57.786 66.9632C57.0862 67.6487 56.1717 68.0714 55.1969 68.16C53.4628 68.4115 51.8563 69.218 50.6173 70.4592C49.3783 71.7004 48.5732 73.3098 48.3221 75.047C48.2371 75.9734 47.8426 76.844 47.2023 77.5178C46.0976 75.1794 45.6013 72.5991 45.7597 70.0169C45.9181 67.4348 46.7259 64.9347 48.108 62.7494C49.4902 60.5641 51.4017 58.7646 53.6647 57.5183C55.9277 56.272 58.4687 55.6195 61.0511 55.6214L61.0369 55.6498ZM49.3144 80.94C49.4845 80.7838 49.6546 80.6418 49.8247 80.4714C51.0857 79.2466 51.8952 77.6298 52.121 75.8848C52.2125 74.9039 52.6497 73.9877 53.3542 73.3004C54.0321 72.5935 54.9446 72.1592 55.9198 72.0792C57.654 71.8277 59.2605 71.0212 60.4995 69.78C61.7385 68.5388 62.5436 66.9294 62.7946 65.1922C62.8559 64.1663 63.2954 63.1997 64.0278 62.48C64.7225 61.7868 65.6436 61.3683 66.6218 61.3014C68.215 61.0818 69.7008 60.3723 70.8743 59.2708C72.2105 60.3813 73.3426 61.7173 74.2195 63.2184C74.1657 63.2913 74.1039 63.358 74.0353 63.4172C73.3586 64.1303 72.4474 64.5742 71.4696 64.6668C69.7337 64.9139 68.1248 65.719 66.885 66.961C65.6451 68.203 64.8415 69.8148 64.5948 71.5538C64.4949 72.5314 64.0607 73.4443 63.3658 74.1378C62.6709 74.8314 61.758 75.263 60.7818 75.3594C59.0426 75.6089 57.4301 76.4139 56.1839 77.6546C54.9377 78.8953 54.1243 80.5057 53.8645 82.2464C53.7882 82.9404 53.5503 83.6067 53.1699 84.1918C51.7156 83.3268 50.413 82.2282 49.3144 80.94ZM61.0369 86.4212C59.5986 86.4228 58.1671 86.222 56.7845 85.8248C57.2575 84.9416 57.5649 83.979 57.6917 82.9848C57.791 82.0094 58.2232 81.0982 58.9152 80.4049C59.6073 79.7116 60.5169 79.2787 61.4905 79.1792C63.2273 78.9305 64.8369 78.1253 66.0787 76.8838C67.3205 75.6424 68.1277 74.0315 68.3795 72.2922C68.4788 71.3168 68.911 70.4056 69.6031 69.7123C70.2951 69.019 71.2047 68.5861 72.1783 68.4866C73.4853 68.3163 74.731 67.8288 75.8071 67.0666C76.4047 69.3356 76.4754 71.7116 76.014 74.0123C75.5526 76.313 74.5713 78.4772 73.1453 80.339C71.7193 82.2007 69.8865 83.7105 67.7876 84.7525C65.6887 85.7945 63.3794 86.3411 61.0369 86.3502V86.4212Z" fill="#515151"/>
</svg>
