<svg width="251" height="142" viewBox="0 0 251 142" fill="none" xmlns="http://www.w3.org/2000/svg">
<path d="M91.8592 70.339L91.5775 70.3988L100.32 79.1528V102.95H92.838L84.0361 94.1362H91.5178V70.3389H84.0361V62.8474H91.5178V39.05L100.32 47.8638V62.8472L91.5178 62.8474V70.3389L91.8592 70.339Z" fill="#515151"/>
<path d="M115.283 70.339L124.085 79.1528V71.6612L115.283 62.8472V70.339Z" fill="#515151"/>
<path d="M91.5776 70.3988L91.8594 70.339H115.283L124.085 79.1528H100.32L91.5776 70.3988Z" fill="#515151"/>
<path d="M84.0366 70.3388L60.2715 70.339L69.0734 79.1528H84.0364L84.0366 70.3388Z" fill="#515151"/>
<path d="M132.265 45.0207H135.915V56.3785H142.184V59.4555H132.265V45.0207Z" fill="#515151"/>
<path d="M148.812 59.7653C147.588 59.7653 146.516 59.545 145.594 59.1044C144.674 58.6501 143.958 58.0307 143.45 57.2459C142.955 56.4474 142.707 55.532 142.707 54.4993C142.707 53.4668 142.955 52.5582 143.45 51.7735C143.958 50.975 144.674 50.3555 145.594 49.915C146.516 49.4606 147.588 49.2334 148.812 49.2334C150.036 49.2334 151.108 49.4606 152.029 49.915C152.95 50.3555 153.657 50.975 154.154 51.7735C154.661 52.5582 154.917 53.4668 154.917 54.4993C154.917 55.532 154.661 56.4474 154.154 57.2459C153.657 58.0307 152.95 58.6501 152.029 59.1044C151.108 59.545 150.036 59.7653 148.812 59.7653ZM148.812 56.9362C149.541 56.9362 150.118 56.7228 150.545 56.2961C150.984 55.8554 151.204 55.2566 151.204 54.4993C151.204 53.7422 150.984 53.1502 150.545 52.7233C150.118 52.2829 149.541 52.0626 148.812 52.0626C148.083 52.0626 147.499 52.2829 147.059 52.7233C146.632 53.1502 146.42 53.7422 146.42 54.4993C146.42 55.2566 146.632 55.8554 147.059 56.2961C147.499 56.7228 148.083 56.9362 148.812 56.9362Z" fill="#515151"/>
<path d="M161.733 64.2052C161.074 64.2052 160.407 64.1433 159.734 64.0193C159.073 63.8955 158.503 63.7302 158.022 63.5237V61.0043C159.108 61.4724 160.345 61.7065 161.733 61.7065C162.737 61.7065 163.459 61.4999 163.899 61.0869C164.352 60.6739 164.579 60.0683 164.579 59.2697V58.6707C164.181 59.0149 163.686 59.2835 163.096 59.4761C162.517 59.669 161.898 59.7653 161.238 59.7653C160.195 59.7653 159.273 59.545 158.476 59.1044C157.678 58.6639 157.054 58.0444 156.598 57.2459C156.159 56.4474 155.939 55.5319 155.939 54.4993C155.939 53.4531 156.159 52.5306 156.598 51.7322C157.039 50.9337 157.658 50.3211 158.455 49.8943C159.252 49.4538 160.166 49.2334 161.197 49.2334C162.614 49.2334 163.782 49.6671 164.704 50.5344V49.5432H168.21V58.7741C168.21 60.495 167.681 61.8304 166.621 62.7803C165.576 63.7302 163.947 64.2052 161.733 64.2052ZM162.146 56.9568C162.71 56.9568 163.212 56.8122 163.652 56.5231C164.091 56.234 164.401 55.8486 164.579 55.3667V53.6321C164.388 53.1502 164.07 52.7716 163.631 52.4963C163.191 52.2072 162.696 52.0626 162.146 52.0626C161.404 52.0626 160.806 52.2829 160.352 52.7233C159.898 53.1502 159.671 53.7354 159.671 54.4787C159.671 55.2359 159.898 55.8417 160.352 56.2961C160.806 56.7365 161.404 56.9568 162.146 56.9568Z" fill="#515151"/>
<path d="M175.235 59.7653C174.011 59.7653 172.937 59.545 172.017 59.1044C171.095 58.6501 170.381 58.0307 169.872 57.2459C169.377 56.4474 169.13 55.532 169.13 54.4993C169.13 53.4668 169.377 52.5582 169.872 51.7735C170.381 50.975 171.095 50.3555 172.017 49.915C172.937 49.4606 174.011 49.2334 175.235 49.2334C176.459 49.2334 177.529 49.4606 178.452 49.915C179.373 50.3555 180.08 50.975 180.575 51.7735C181.084 52.5582 181.34 53.4668 181.34 54.4993C181.34 55.532 181.084 56.4474 180.575 57.2459C180.08 58.0307 179.373 58.6501 178.452 59.1044C177.529 59.545 176.459 59.7653 175.235 59.7653ZM175.235 56.9362C175.964 56.9362 176.539 56.7228 176.966 56.2961C177.407 55.8554 177.627 55.2566 177.627 54.4993C177.627 53.7422 177.407 53.1502 176.966 52.7233C176.539 52.2829 175.964 52.0626 175.235 52.0626C174.506 52.0626 173.922 52.2829 173.481 52.7233C173.055 53.1502 172.842 53.7422 172.842 54.4993C172.842 55.2566 173.055 55.8554 173.481 56.2961C173.922 56.7228 174.506 56.9362 175.235 56.9362Z" fill="#515151"/>
<path d="M132.265 64.7683H135.915V79.2032H132.265V64.7683Z" fill="#515151"/>
<path d="M137.763 69.2909H141.268V70.2821C142.189 69.4147 143.359 68.981 144.774 68.981C145.805 68.981 146.72 69.2014 147.517 69.6419C148.314 70.0688 148.932 70.6814 149.373 71.4798C149.813 72.2645 150.033 73.1801 150.033 74.2264C150.033 75.2589 149.813 76.1813 149.373 76.9935C148.932 77.792 148.314 78.4116 147.517 78.852C146.734 79.2927 145.82 79.5129 144.774 79.5129C144.114 79.5129 143.483 79.4097 142.877 79.2032C142.286 79.0105 141.791 78.742 141.392 78.3978V83.7258H137.763V69.2909ZM143.826 76.6838C144.569 76.6838 145.166 76.4635 145.62 76.023C146.073 75.5825 146.3 74.9835 146.3 74.2264C146.3 73.4691 146.073 72.8772 145.62 72.4504C145.166 72.0099 144.569 71.7897 143.826 71.7897C143.275 71.7897 142.781 71.9342 142.341 72.2233C141.901 72.4985 141.585 72.8772 141.392 73.3591V75.1143C141.585 75.5963 141.901 75.9816 142.341 76.2708C142.781 76.5461 143.275 76.6838 143.826 76.6838Z" fill="#515151"/>
<path d="M155.444 79.5129C154.647 79.5129 153.815 79.4303 152.95 79.2651C152.083 79.1137 151.396 78.8935 150.888 78.6044V75.9403C151.451 76.2708 152.125 76.5461 152.907 76.7665C153.706 76.973 154.435 77.0762 155.094 77.0762C155.575 77.0762 155.926 77.0417 156.146 76.973C156.366 76.9041 156.475 76.7665 156.475 76.5599C156.475 76.3947 156.4 76.2639 156.248 76.1675C156.111 76.0573 155.85 75.9473 155.466 75.8371C155.094 75.7131 154.661 75.5825 154.167 75.4447C153.327 75.197 152.668 74.9422 152.186 74.6806C151.705 74.4191 151.347 74.0888 151.113 73.6895C150.881 73.2903 150.763 72.7876 150.763 72.1819C150.763 71.1081 151.182 70.3096 152.021 69.7865C152.873 69.2496 154.036 68.981 155.507 68.981C156.221 68.981 156.97 69.0569 157.754 69.2082C158.551 69.3596 159.15 69.5593 159.548 69.8072V72.4298C159.136 72.1545 158.587 71.9273 157.899 71.7482C157.225 71.5693 156.593 71.4798 156.002 71.4798C155.534 71.4798 155.169 71.528 154.908 71.6244C154.647 71.707 154.517 71.8584 154.517 72.0788C154.517 72.2852 154.647 72.4436 154.908 72.5536C155.169 72.6638 155.637 72.8016 156.311 72.9667C156.75 73.0768 156.936 73.125 156.868 73.1113C157.747 73.3453 158.428 73.6068 158.909 73.896C159.389 74.1851 159.727 74.5293 159.92 74.9286C160.125 75.314 160.229 75.8095 160.229 76.4153C160.229 77.3653 159.818 78.1224 158.992 78.6869C158.18 79.2376 156.998 79.5129 155.444 79.5129Z" fill="#515151"/>
<path d="M165.649 79.5129C164.287 79.5129 163.263 79.1343 162.576 78.3772C161.902 77.6199 161.564 76.6219 161.564 75.3828V69.2909H165.195V74.9698C165.195 76.1126 165.711 76.6839 166.74 76.6839C167.21 76.6839 167.635 76.5737 168.02 76.3534C168.405 76.1332 168.72 75.8096 168.968 75.3828V69.2909H172.599V79.2032H169.093V78.1294C168.666 78.5838 168.151 78.9279 167.546 79.1619C166.94 79.3959 166.308 79.5129 165.649 79.5129Z" fill="#515151"/>
<path d="M174.457 69.2909H177.819V70.3647C178.23 69.9242 178.705 69.5868 179.241 69.3528C179.777 69.105 180.349 68.981 180.953 68.981C181.696 68.981 182.287 69.0912 182.727 69.3115C183.181 69.5317 183.544 69.8622 183.819 70.3028C184.231 69.8897 184.733 69.5662 185.325 69.3321C185.916 69.0981 186.514 68.981 187.119 68.981C188.425 68.981 189.353 69.3184 189.904 69.9929C190.454 70.6538 190.729 71.6106 190.729 72.8635V79.2032H187.263V73.3796C187.263 72.8291 187.16 72.4298 186.954 72.1819C186.748 71.9342 186.404 71.8103 185.923 71.8103C185.305 71.8103 184.803 72.0305 184.419 72.471C184.431 72.7051 184.438 73.0631 184.438 73.5449V79.2032H180.974V73.2352C180.974 72.7257 180.883 72.3609 180.706 72.1407C180.527 71.9203 180.211 71.8103 179.757 71.8103C179.055 71.8103 178.45 72.2026 177.942 72.9873V79.2032H174.457V69.2909Z" fill="#515151"/>
<path d="M132.78 85.9789H138.121C139.633 85.9789 140.809 86.3369 141.648 87.0528C142.5 87.7686 142.927 88.8287 142.927 90.2329C142.927 91.6509 142.507 92.7111 141.669 93.4131C140.83 94.1153 139.647 94.4664 138.121 94.4664H134.389V100.414H132.78V85.9789ZM137.998 93.1035C139.029 93.1035 139.841 92.897 140.431 92.4839C141.023 92.0572 141.318 91.3069 141.318 90.2329C141.318 89.1453 141.023 88.395 140.431 87.9821C139.841 87.5552 139.029 87.3419 137.998 87.3419H134.389V93.1035H137.998Z" fill="#515151"/>
<path d="M144.984 85.1529H146.573V100.414H144.984V85.1529Z" fill="#515151"/>
<path d="M153.457 100.723C152.137 100.723 151.119 100.366 150.404 99.6496C149.702 98.9338 149.354 97.977 149.354 96.7793V90.5014H150.94V96.8619C150.94 98.5964 151.841 99.4638 153.642 99.4638C154.399 99.4638 155.058 99.2986 155.623 98.9682C156.199 98.6378 156.715 98.1146 157.169 97.3988V90.5014H158.757V100.414H157.21V98.9269C156.316 100.125 155.066 100.723 153.457 100.723Z" fill="#515151"/>
<path d="M165.084 100.723C164.438 100.723 163.743 100.627 163.001 100.434C162.258 100.255 161.681 100.028 161.268 99.7529V98.4107C161.791 98.7274 162.39 98.982 163.064 99.1747C163.75 99.3675 164.409 99.4638 165.043 99.4638C165.895 99.4638 166.507 99.3468 166.878 99.1127C167.264 98.865 167.455 98.5002 167.455 98.0182C167.455 97.6466 167.373 97.3575 167.209 97.151C167.043 96.9306 166.769 96.7379 166.383 96.5728C165.999 96.4075 165.401 96.2148 164.589 95.9946C163.791 95.7742 163.153 95.5471 162.672 95.3131C162.204 95.0652 161.847 94.7555 161.599 94.3837C161.35 94.0121 161.229 93.537 161.229 92.9589C161.229 92.064 161.584 91.3826 162.299 90.9144C163.028 90.4326 163.991 90.1917 165.186 90.1917C165.833 90.1917 166.439 90.2537 167.002 90.3775C167.579 90.4877 168.061 90.646 168.445 90.8526V92.1948C168.047 91.9746 167.566 91.8024 167.002 91.6785C166.439 91.5409 165.853 91.472 165.249 91.472C164.452 91.472 163.846 91.589 163.434 91.823C163.021 92.0572 162.815 92.4358 162.815 92.9589C162.815 93.3169 162.885 93.5921 163.021 93.7849C163.173 93.9776 163.441 94.1567 163.826 94.3218C164.225 94.4733 164.857 94.666 165.724 94.9C166.96 95.2442 167.82 95.6504 168.3 96.1184C168.795 96.5728 169.044 97.2061 169.044 98.0182C169.044 98.858 168.715 99.5189 168.054 100.001C167.407 100.483 166.417 100.723 165.084 100.723Z" fill="#515151"/>
</svg>
