<svg width="512" height="512" viewBox="0 0 512 512" fill="none" xmlns="http://www.w3.org/2000/svg">
<rect width="512" height="512" rx="160" fill="url(#paint0_linear)"/>
<path fill-rule="evenodd" clip-rule="evenodd" d="M157.069 460.32C153.246 457.645 151.993 452.553 154.138 448.41L226.443 308.73C228.808 304.162 234.427 302.376 238.994 304.741C243.561 307.105 245.347 312.724 242.983 317.291L202.692 395.127L331.943 254.571L233.084 237.001C228.02 236.101 224.645 231.267 225.545 226.203C226.445 221.14 231.279 217.765 236.343 218.664L351.921 239.206C355.269 239.801 358.026 242.173 359.114 245.395C360.202 248.616 359.448 252.174 357.146 254.677L169.263 458.994C166.104 462.428 160.892 462.995 157.069 460.32Z" fill="white"/>
<path fill-rule="evenodd" clip-rule="evenodd" d="M354.535 53.6828C358.358 56.358 359.611 61.4494 357.466 65.593L285.161 205.273C282.796 209.841 277.177 211.626 272.61 209.262C268.043 206.898 266.257 201.279 268.621 196.712L308.912 118.876L179.661 259.432L278.52 277.002C283.584 277.902 286.959 282.736 286.059 287.8C285.159 292.863 280.325 296.238 275.261 295.338L159.683 274.797C156.335 274.202 153.578 271.83 152.49 268.608C151.402 265.387 152.156 261.829 154.458 259.326L342.341 55.0091C345.5 51.5746 350.712 51.0076 354.535 53.6828Z" fill="white"/>
<defs>
<linearGradient id="paint0_linear" x1="0" y1="0" x2="512" y2="512" gradientUnits="userSpaceOnUse">
<stop stop-color="#F7B733"/>
<stop offset="0.377834" stop-color="#F8982C"/>
<stop offset="1" stop-color="#FC4A1A"/>
</linearGradient>
</defs>
</svg>
