<svg width="298" height="51" viewBox="0 0 298 51" fill="none" xmlns="http://www.w3.org/2000/svg">
<rect y="4" width="43" height="43" rx="18" fill="url(#paint0_linear)"/>
<path fill-rule="evenodd" clip-rule="evenodd" d="M14.3959 40.8917C14.0973 40.6827 13.9995 40.2851 14.167 39.9615L19.8144 29.0518C19.999 28.695 20.4379 28.5556 20.7946 28.7402C21.1514 28.9249 21.2909 29.3637 21.1062 29.7205L17.9593 35.7998L28.0544 24.8217L20.333 23.4494C19.9375 23.3792 19.6739 23.0016 19.7442 22.6061C19.8145 22.2106 20.1921 21.947 20.5876 22.0173L29.6148 23.6216C29.8763 23.6681 30.0916 23.8534 30.1766 24.105C30.2616 24.3566 30.2026 24.6345 30.0229 24.83L15.3483 40.7881C15.1016 41.0564 14.6945 41.1006 14.3959 40.8917Z" fill="white"/>
<path fill-rule="evenodd" clip-rule="evenodd" d="M29.8189 9.13144C30.1175 9.34038 30.2154 9.73804 30.0478 10.0617L24.4005 20.9714C24.2158 21.3281 23.7769 21.4676 23.4202 21.2829C23.0635 21.0983 22.924 20.6594 23.1087 20.3027L26.2556 14.2233L16.1605 25.2014L23.8818 26.5737C24.2773 26.644 24.5409 27.0216 24.4706 27.417C24.4004 27.8125 24.0228 28.0762 23.6273 28.0059L14.6001 26.4015C14.3386 26.355 14.1232 26.1697 14.0382 25.9181C13.9533 25.6665 14.0122 25.3886 14.192 25.1931L28.8666 9.23502C29.1132 8.96677 29.5203 8.92249 29.8189 9.13144Z" fill="white"/>
<path d="M60.5293 37V12.1172H69.0571C71.8713 12.1172 74.0132 12.6812 75.4829 13.8091C76.9526 14.937 77.6875 16.6175 77.6875 18.8506C77.6875 19.9899 77.3799 21.0153 76.7646 21.9268C76.1494 22.8382 75.2493 23.5446 74.0645 24.0459C75.4089 24.4105 76.4456 25.0998 77.1748 26.1138C77.9154 27.1164 78.2856 28.3241 78.2856 29.7368C78.2856 32.0724 77.5337 33.8669 76.0298 35.1201C74.5373 36.3734 72.3953 37 69.604 37H60.5293ZM64.853 25.772V33.5479H69.6553C71.0111 33.5479 72.0706 33.2118 72.834 32.5396C73.5973 31.8674 73.979 30.9331 73.979 29.7368C73.979 27.1506 72.6574 25.8289 70.0142 25.772H64.853ZM64.853 22.5933H69.0913C70.4357 22.5933 71.4839 22.2913 72.2358 21.6875C72.9992 21.0723 73.3809 20.2064 73.3809 19.0898C73.3809 17.8594 73.0277 16.9707 72.3213 16.4238C71.6263 15.877 70.5382 15.6035 69.0571 15.6035H64.853V22.5933ZM82.6094 37V12.1172H91.1372C93.9513 12.1172 96.0933 12.6812 97.563 13.8091C99.0327 14.937 99.7676 16.6175 99.7676 18.8506C99.7676 19.9899 99.46 21.0153 98.8447 21.9268C98.2295 22.8382 97.3294 23.5446 96.1445 24.0459C97.4889 24.4105 98.5257 25.0998 99.2549 26.1138C99.9954 27.1164 100.366 28.3241 100.366 29.7368C100.366 32.0724 99.6138 33.8669 98.1099 35.1201C96.6174 36.3734 94.4754 37 91.6841 37H82.6094ZM86.9331 25.772V33.5479H91.7354C93.0911 33.5479 94.1507 33.2118 94.9141 32.5396C95.6774 31.8674 96.0591 30.9331 96.0591 29.7368C96.0591 27.1506 94.7375 25.8289 92.0942 25.772H86.9331ZM86.9331 22.5933H91.1714C92.5158 22.5933 93.564 22.2913 94.3159 21.6875C95.0793 21.0723 95.4609 20.2064 95.4609 19.0898C95.4609 17.8594 95.1077 16.9707 94.4014 16.4238C93.7064 15.877 92.6183 15.6035 91.1372 15.6035H86.9331V22.5933ZM119.694 18.6797C119.694 19.8988 119.381 20.9868 118.754 21.9438C118.128 22.8895 117.273 23.6357 116.191 24.1826C117.49 24.7865 118.487 25.6125 119.182 26.6606C119.888 27.7088 120.241 28.8937 120.241 30.2153C120.241 32.4028 119.501 34.1403 118.02 35.4277C116.538 36.7038 114.567 37.3418 112.106 37.3418C109.634 37.3418 107.652 36.6981 106.159 35.4106C104.678 34.1232 103.938 32.3914 103.938 30.2153C103.938 28.8823 104.291 27.686 104.997 26.6265C105.703 25.5669 106.695 24.7523 107.971 24.1826C106.9 23.6357 106.051 22.8895 105.424 21.9438C104.809 20.9868 104.501 19.8988 104.501 18.6797C104.501 16.5605 105.185 14.88 106.552 13.6382C107.919 12.3963 109.765 11.7754 112.089 11.7754C114.425 11.7754 116.276 12.3963 117.644 13.6382C119.011 14.88 119.694 16.5605 119.694 18.6797ZM116.088 30.0103C116.088 28.7798 115.718 27.7886 114.978 27.0366C114.248 26.2733 113.28 25.8916 112.072 25.8916C110.865 25.8916 109.896 26.2676 109.167 27.0195C108.449 27.7715 108.09 28.7684 108.09 30.0103C108.09 31.2293 108.444 32.2035 109.15 32.9326C109.868 33.6618 110.853 34.0264 112.106 34.0264C113.36 34.0264 114.334 33.6732 115.029 32.9668C115.735 32.2604 116.088 31.2749 116.088 30.0103ZM115.559 18.8335C115.559 17.7511 115.245 16.8625 114.619 16.1675C113.992 15.4611 113.149 15.1079 112.089 15.1079C111.03 15.1079 110.192 15.444 109.577 16.1162C108.962 16.777 108.654 17.6828 108.654 18.8335C108.654 19.9728 108.962 20.8786 109.577 21.5508C110.204 22.223 111.047 22.5591 112.106 22.5591C113.166 22.5591 114.003 22.223 114.619 21.5508C115.245 20.8786 115.559 19.9728 115.559 18.8335ZM150.251 15.6035H142.492V37H138.203V15.6035H130.512V12.1172H150.251V15.6035ZM159.736 37.3418C157.104 37.3418 154.968 36.5158 153.327 34.8638C151.698 33.2004 150.883 30.9901 150.883 28.2329V27.7202C150.883 25.8745 151.236 24.2282 151.943 22.7812C152.661 21.3229 153.663 20.1893 154.951 19.3804C156.238 18.5715 157.674 18.167 159.257 18.167C161.775 18.167 163.718 18.9702 165.085 20.5767C166.464 22.1831 167.153 24.4561 167.153 27.3955V29.0703H155.07C155.196 30.597 155.703 31.8047 156.591 32.6934C157.491 33.582 158.619 34.0264 159.975 34.0264C161.878 34.0264 163.427 33.2573 164.624 31.7192L166.862 33.8555C166.122 34.9606 165.131 35.8208 163.889 36.436C162.658 37.0399 161.274 37.3418 159.736 37.3418ZM159.24 21.4995C158.101 21.4995 157.178 21.8983 156.472 22.6958C155.777 23.4933 155.332 24.6042 155.139 26.0283H163.051V25.7207C162.96 24.3307 162.59 23.2826 161.94 22.5762C161.291 21.8584 160.391 21.4995 159.24 21.4995ZM181.44 37C181.258 36.6468 181.098 36.0715 180.961 35.2739C179.64 36.6525 178.022 37.3418 176.108 37.3418C174.251 37.3418 172.736 36.812 171.562 35.7524C170.389 34.6929 169.802 33.3826 169.802 31.8218C169.802 29.8507 170.531 28.3411 171.989 27.293C173.459 26.2334 175.555 25.7036 178.278 25.7036H180.825V24.4902C180.825 23.5332 180.557 22.7699 180.021 22.2002C179.486 21.6191 178.671 21.3286 177.578 21.3286C176.632 21.3286 175.857 21.5679 175.253 22.0464C174.65 22.5135 174.348 23.1117 174.348 23.8408H170.195C170.195 22.8268 170.531 21.8812 171.203 21.0039C171.875 20.1152 172.787 19.4202 173.938 18.9189C175.1 18.4176 176.393 18.167 177.817 18.167C179.982 18.167 181.708 18.7139 182.995 19.8076C184.283 20.89 184.943 22.4167 184.978 24.3877V32.7275C184.978 34.391 185.211 35.7183 185.678 36.7095V37H181.44ZM176.877 34.0093C177.697 34.0093 178.466 33.8099 179.184 33.4111C179.913 33.0124 180.46 32.4769 180.825 31.8047V28.3184H178.586C177.048 28.3184 175.891 28.5861 175.117 29.1216C174.342 29.6571 173.955 30.4147 173.955 31.3945C173.955 32.1921 174.217 32.8301 174.741 33.3086C175.276 33.7757 175.988 34.0093 176.877 34.0093ZM193.232 18.5088L193.352 20.4399C194.65 18.9246 196.428 18.167 198.684 18.167C201.156 18.167 202.848 19.1126 203.759 21.0039C205.104 19.1126 206.995 18.167 209.433 18.167C211.472 18.167 212.988 18.731 213.979 19.8589C214.982 20.9868 215.494 22.6502 215.517 24.8491V37H211.364V24.9688C211.364 23.7952 211.108 22.9351 210.595 22.3882C210.083 21.8413 209.234 21.5679 208.049 21.5679C207.103 21.5679 206.328 21.8242 205.725 22.3369C205.132 22.8382 204.716 23.499 204.477 24.3193L204.494 37H200.341V24.832C200.284 22.6559 199.174 21.5679 197.009 21.5679C195.345 21.5679 194.166 22.2458 193.471 23.6016V37H189.318V18.5088H193.232Z" fill="#F97D26"/>
<defs>
<linearGradient id="paint0_linear" x1="0" y1="4" x2="43" y2="47" gradientUnits="userSpaceOnUse">
<stop stop-color="#F7B733"/>
<stop offset="0.377834" stop-color="#F8982C"/>
<stop offset="1" stop-color="#FC4A1A"/>
</linearGradient>
</defs>
</svg>
