<svg width="229" height="129" viewBox="0 0 229 129" fill="none" xmlns="http://www.w3.org/2000/svg">
<path d="M53.3528 62.3986C52.8647 62.8904 52.4908 63.4841 52.258 64.1371C52.0251 64.7902 51.9389 65.4867 52.0055 66.177L51.9823 66.1538C52.0508 66.9663 51.9414 67.784 51.6617 68.5498C51.3821 69.3156 50.9389 70.011 50.3632 70.5876C49.7875 71.1642 49.093 71.608 48.3283 71.888C47.5637 72.1681 46.7472 72.2776 45.9358 72.209L45.959 72.2322C44.9885 72.1418 44.0138 72.3533 43.1677 72.8379C42.3216 73.3226 41.6454 74.0567 41.2312 74.9403C40.8171 75.824 40.6851 76.814 40.8533 77.7755C41.0216 78.7369 41.4819 79.623 42.1714 80.3129C42.8609 81.0028 43.7461 81.463 44.7064 81.6306C45.6666 81.7982 46.655 81.6652 47.537 81.2496C48.4189 80.834 49.1514 80.1561 49.6346 79.3084C50.1178 78.4607 50.3281 77.4843 50.2369 76.5125L50.2614 76.5357C50.1929 75.7232 50.3023 74.9055 50.5819 74.1397C50.8615 73.3739 51.3047 72.6784 51.8804 72.1019C52.4562 71.5253 53.1506 71.0815 53.9153 70.8014C54.68 70.5214 55.4965 70.4118 56.3078 70.4804L56.2833 70.4572C57.0761 70.5286 57.874 70.3984 58.6032 70.0788C59.3324 69.7591 59.9692 69.2603 60.4546 68.6285C60.94 67.9967 61.2583 67.2525 61.38 66.4647C61.5017 65.677 61.4229 64.8712 61.1508 64.1221C60.8787 63.3729 60.4223 62.7047 59.8237 62.1793C59.2251 61.6539 58.5037 61.2883 57.7264 61.1165C56.9492 60.9446 56.1412 60.972 55.3773 61.1961C54.6135 61.4202 53.9185 61.8338 53.3567 62.3986H53.3528Z" fill="#515151"/>
<path d="M43.8503 69.1905L43.8258 69.1672C44.5154 69.2368 45.2118 69.1521 45.8647 68.9191C46.5175 68.6861 47.1105 68.3108 47.6008 67.8202C48.091 67.3296 48.4663 66.736 48.6994 66.0824C48.9325 65.4287 49.0177 64.7314 48.9487 64.0408L48.9732 64.064C48.9047 63.2515 49.0141 62.4338 49.2937 61.668C49.5734 60.9022 50.0165 60.2068 50.5923 59.6302C51.168 59.0536 51.8624 58.6098 52.6271 58.3298C53.3918 58.0497 54.2083 57.9401 55.0196 58.0087L54.9952 57.9855C55.9657 58.0768 56.9408 57.866 57.7874 57.3819C58.6339 56.8978 59.3108 56.164 59.7256 55.2805C60.1404 54.397 60.2729 53.4069 60.1052 52.4452C59.9374 51.4835 59.4775 50.5971 58.7882 49.9067C58.0989 49.2164 57.2137 48.7558 56.2534 48.5878C55.2931 48.4198 54.3044 48.5526 53.4222 48.968C52.54 49.3834 51.8073 50.0612 51.3239 50.909C50.8405 51.7568 50.63 52.7333 50.7212 53.7053L50.698 53.6808C50.7667 54.4933 50.6575 55.3111 50.3779 56.077C50.0983 56.8429 49.6552 57.5385 49.0794 58.1151C48.5036 58.6917 47.8091 59.1355 47.0443 59.4155C46.2795 59.6955 45.4629 59.8049 44.6515 59.736L44.6747 59.7606C43.9852 59.691 43.2888 59.7757 42.6359 60.0087C41.9831 60.2417 41.3901 60.617 40.8998 61.1076C40.4095 61.5982 40.0343 62.1918 39.8012 62.8454C39.5681 63.499 39.4829 64.1964 39.5519 64.887L39.5287 64.8638C39.5969 65.6763 39.4874 66.4938 39.2077 67.2595C38.9279 68.0252 38.4848 68.7206 37.9091 69.2971C37.3334 69.8736 36.639 70.3174 35.8745 70.5976C35.1099 70.8777 34.2935 70.9874 33.4822 70.9191L33.5054 70.9423C32.5348 70.851 31.5598 71.0618 30.7132 71.5459C29.8666 72.0299 29.1898 72.7638 28.775 73.6473C28.3602 74.5307 28.2276 75.5209 28.3954 76.4826C28.5631 77.4443 29.023 78.3307 29.7124 79.0211C30.4017 79.7114 31.2869 80.172 32.2472 80.3399C33.2075 80.5079 34.1961 80.3752 35.0783 79.9598C35.9605 79.5444 36.6933 78.8666 37.1767 78.0188C37.6601 77.171 37.8705 76.1945 37.7794 75.2225L37.8039 75.2457C37.7354 74.4332 37.8448 73.6155 38.1244 72.8497C38.4041 72.0839 38.8472 71.3885 39.423 70.8119C39.9987 70.2353 40.6931 69.7915 41.4578 69.5115C42.2225 69.2314 43.039 69.1219 43.8503 69.1905Z" fill="#515151"/>
<path d="M35.2175 66.6014C35.7057 66.1096 36.0795 65.516 36.3122 64.8629C36.5449 64.2097 36.6307 63.5132 36.5636 62.823L36.5881 62.8462C36.5195 62.0335 36.629 61.2155 36.9088 60.4496C37.1886 59.6836 37.632 58.988 38.208 58.4113C38.784 57.8347 39.4788 57.391 40.2438 57.1111C41.0088 56.8312 41.8256 56.722 42.6371 56.791L42.6126 56.7677C43.5829 56.8588 44.5575 56.6479 45.4037 56.1638C46.2499 55.6798 46.9264 54.9461 47.3409 54.0629C47.7555 53.1797 47.8879 52.1899 47.7202 51.2286C47.5524 50.2673 47.0927 49.3811 46.4036 48.6911C45.7145 48.001 44.8297 47.5406 43.8697 47.3726C42.9098 47.2046 41.9215 47.3372 41.0395 47.7524C40.1576 48.1675 39.425 48.845 38.9417 49.6924C38.4583 50.5398 38.2477 51.5159 38.3386 52.4875L38.3155 52.4643C38.3839 53.2768 38.2745 54.0945 37.9949 54.8603C37.7153 55.6261 37.2721 56.3215 36.6964 56.8981C36.1206 57.4747 35.4262 57.9185 34.6615 58.1985C33.8968 58.4786 33.0803 58.5881 32.269 58.5196L32.2922 58.5428C31.4994 58.4716 30.7016 58.6019 29.9725 58.9218C29.2435 59.2416 28.6068 59.7405 28.1216 60.3723C27.6363 61.0041 27.3182 61.7484 27.1966 62.5361C27.075 63.3239 27.154 64.1296 27.4261 64.8787C27.6983 65.6277 28.1548 66.2958 28.7534 66.8211C29.3521 67.3465 30.0734 67.7119 30.8506 67.8837C31.6279 68.0555 32.4358 68.0281 33.1996 67.8039C33.9634 67.5798 34.6584 67.1661 35.2201 66.6014H35.2175Z" fill="#515151"/>
<path d="M75.1196 53.735H78.9454V72.3793H75.1196V53.735Z" fill="#515151"/>
<path d="M81.112 65.9951C81.1066 64.6552 81.4985 63.3439 82.2379 62.2273C82.9773 61.1106 84.031 60.2389 85.2655 59.7224C86.5 59.206 87.8598 59.068 89.1727 59.3261C90.4855 59.5842 91.6924 60.2268 92.6403 61.1723C93.5883 62.1178 94.2347 63.3238 94.4976 64.6375C94.7606 65.9512 94.6284 67.3136 94.1176 68.5519C93.6069 69.7903 92.7406 70.8491 91.6286 71.594C90.5165 72.339 89.2087 72.7366 87.8708 72.7366C86.9827 72.7468 86.1015 72.5795 85.2786 72.2447C84.4558 71.9098 83.7079 71.414 83.0786 70.7864C82.4494 70.1587 81.9513 69.4117 81.6136 68.589C81.276 67.7663 81.1054 66.8845 81.112 65.9951ZM90.8038 65.9951C90.7879 65.4176 90.6023 64.8576 90.2703 64.3851C89.9382 63.9126 89.4745 63.5486 88.937 63.3387C88.3996 63.1287 87.8122 63.0821 87.2484 63.2046C86.6846 63.3271 86.1694 63.6133 85.7672 64.0274C85.3649 64.4416 85.0935 64.9653 84.9868 65.5331C84.8802 66.1009 84.943 66.6876 85.1675 67.2198C85.392 67.752 85.7681 68.2062 86.2489 68.5254C86.7297 68.8447 87.2939 69.015 87.8708 69.015C88.2659 69.0255 88.6589 68.954 89.025 68.8049C89.3911 68.6558 89.7224 68.4323 89.998 68.1486C90.2735 67.8648 90.4874 67.527 90.6261 67.1564C90.7648 66.7857 90.8253 66.3903 90.8038 65.9951Z" fill="#515151"/>
<path d="M109.877 59.6096V71.7356C109.877 76.0261 106.536 77.8399 103.144 77.8399C101.95 77.9294 100.754 77.6878 99.688 77.1417C98.6219 76.5956 97.7265 75.766 97.1001 74.7439L100.364 72.854C100.628 73.3868 101.047 73.8264 101.567 74.1138C102.086 74.4013 102.681 74.523 103.272 74.4627C103.649 74.515 104.033 74.4817 104.396 74.3653C104.759 74.2488 105.091 74.0521 105.368 73.7898C105.644 73.5274 105.859 73.2061 105.995 72.8497C106.131 72.4932 106.185 72.1107 106.153 71.7304V70.563C105.705 71.1119 105.135 71.5481 104.488 71.8364C103.841 72.1247 103.136 72.2572 102.429 72.2232C100.747 72.1701 99.1507 71.4634 97.9793 70.2527C96.8079 69.042 96.1528 67.4223 96.1528 65.7365C96.1528 64.0506 96.8079 62.4309 97.9793 61.2202C99.1507 60.0095 100.747 59.3028 102.429 59.2497C103.136 59.2157 103.841 59.3482 104.488 59.6365C105.135 59.9248 105.705 60.361 106.153 60.9099V59.607L109.877 59.6096ZM106.154 65.7384C106.18 65.1209 106.021 64.5099 105.697 63.9839C105.373 63.458 104.899 63.0412 104.336 62.7871C103.774 62.5331 103.148 62.4534 102.54 62.5584C101.932 62.6634 101.369 62.9483 100.924 63.3763C100.479 63.8044 100.172 64.3561 100.043 64.9603C99.9134 65.5646 99.9675 66.1938 100.198 66.7669C100.429 67.3401 100.826 67.831 101.337 68.1765C101.849 68.5219 102.452 68.7061 103.069 68.7054C103.471 68.7335 103.875 68.677 104.253 68.5394C104.632 68.4019 104.978 68.1865 105.269 67.907C105.559 67.6275 105.788 67.2901 105.941 66.9166C106.093 66.5431 106.166 66.1417 106.154 65.7384Z" fill="#515151"/>
<path d="M112.044 65.9951C112.038 64.6552 112.43 63.3439 113.17 62.2273C113.909 61.1106 114.963 60.2389 116.197 59.7224C117.432 59.206 118.791 59.068 120.104 59.3261C121.417 59.5842 122.624 60.2268 123.572 61.1723C124.52 62.1178 125.166 63.3238 125.429 64.6375C125.692 65.9512 125.56 67.3136 125.049 68.5519C124.539 69.7903 123.672 70.8491 122.56 71.594C121.448 72.339 120.14 72.7366 118.802 72.7366C117.914 72.7468 117.033 72.5795 116.21 72.2447C115.387 71.9098 114.64 71.414 114.01 70.7864C113.381 70.1587 112.883 69.4117 112.545 68.589C112.208 67.7663 112.037 66.8845 112.044 65.9951ZM121.735 65.9951C121.72 65.4176 121.534 64.8576 121.202 64.3851C120.87 63.9126 120.406 63.5486 119.869 63.3387C119.331 63.1287 118.744 63.0821 118.18 63.2046C117.616 63.3271 117.101 63.6133 116.699 64.0274C116.297 64.4416 116.025 64.9653 115.918 65.5331C115.812 66.1009 115.875 66.6876 116.099 67.2198C116.324 67.752 116.7 68.2062 117.181 68.5254C117.661 68.8447 118.226 69.015 118.802 69.015C119.198 69.0255 119.591 68.954 119.957 68.8049C120.323 68.6558 120.654 68.4323 120.93 68.1486C121.205 67.8648 121.419 67.527 121.558 67.1564C121.696 66.7857 121.757 66.3903 121.735 65.9951Z" fill="#515151"/>
<path d="M127.345 56.1872C127.345 55.7326 127.48 55.2881 127.732 54.9101C127.984 54.5321 128.343 54.2374 128.762 54.0634C129.182 53.8895 129.643 53.8439 130.088 53.9326C130.534 54.0213 130.943 54.2403 131.264 54.5618C131.585 54.8832 131.803 55.2928 131.892 55.7388C131.981 56.1847 131.935 56.6469 131.761 57.0669C131.588 57.487 131.293 57.846 130.916 58.0986C130.538 58.3512 130.095 58.486 129.641 58.486C129.034 58.48 128.453 58.2358 128.024 57.806C127.595 57.3762 127.351 56.795 127.345 56.1872ZM127.732 59.6096H131.559V72.3806H127.726L127.732 59.6096Z" fill="#515151"/>
<path d="M148.078 65.9951C148.122 66.8391 147.999 67.6836 147.716 68.4799C147.433 69.2762 146.996 70.0087 146.43 70.6352C145.863 71.2617 145.179 71.7699 144.416 72.1306C143.652 72.4912 142.825 72.6972 141.982 72.7367C141.273 72.7754 140.565 72.6557 139.908 72.3861C139.251 72.1166 138.662 71.704 138.184 71.1783V77.4877H134.358V59.6096H138.184V60.8093C138.662 60.284 139.251 59.8718 139.908 59.6025C140.565 59.3332 141.273 59.2136 141.982 59.2523C142.826 59.2916 143.653 59.4975 144.416 59.8582C145.179 60.2188 145.864 60.7271 146.431 61.3538C146.997 61.9805 147.434 62.7132 147.717 63.5098C148 64.3063 148.122 65.151 148.078 65.9951ZM144.252 65.9951C144.237 65.3974 144.046 64.8174 143.704 64.3277C143.361 63.838 142.882 63.4603 142.327 63.242C141.771 63.0236 141.163 62.9742 140.579 63.1001C139.996 63.2259 139.462 63.5213 139.045 63.9494C138.629 64.3774 138.347 64.9191 138.236 65.5065C138.125 66.094 138.19 66.7012 138.422 67.2521C138.654 67.803 139.043 68.2731 139.54 68.6037C140.038 68.9343 140.621 69.1105 141.218 69.1105C141.628 69.1287 142.037 69.06 142.419 68.9089C142.8 68.7577 143.146 68.5275 143.432 68.2334C143.719 67.9392 143.94 67.5877 144.081 67.202C144.222 66.8163 144.281 66.405 144.252 65.9951Z" fill="#515151"/>
<path d="M159.883 68.548C159.883 71.4853 157.334 72.7366 154.58 72.7366C153.467 72.8376 152.35 72.6019 151.373 72.0601C150.395 71.5183 149.602 70.6953 149.097 69.6974L152.411 67.8076C152.545 68.2688 152.833 68.67 153.227 68.9442C153.621 69.2185 154.097 69.3491 154.575 69.3143C155.492 69.3143 155.952 69.0331 155.952 68.5235C155.952 67.1174 149.678 67.8592 149.678 63.4409C149.678 60.6558 152.025 59.2523 154.677 59.2523C155.674 59.2207 156.661 59.4575 157.536 59.9381C158.41 60.4186 159.14 61.1253 159.649 61.9845L156.385 63.7466C156.242 63.4121 156.003 63.1272 155.7 62.9274C155.396 62.7276 155.04 62.6217 154.677 62.623C154.013 62.623 153.605 62.881 153.605 63.3377C153.61 64.7941 159.883 63.8227 159.883 68.548Z" fill="#515151"/>
<path d="M173.858 59.6096V72.3806H170.032V71.1796C169.591 71.7096 169.03 72.1271 168.397 72.398C167.763 72.6689 167.074 72.7854 166.387 72.738C163.81 72.738 161.621 70.8997 161.621 67.4489V59.6096H165.446V66.8878C165.414 67.192 165.449 67.4995 165.548 67.7889C165.646 68.0783 165.807 68.3427 166.018 68.5637C166.229 68.7847 166.486 68.957 166.77 69.0686C167.054 69.1802 167.36 69.2283 167.664 69.2098C169.067 69.2098 170.036 68.3932 170.036 66.5795V59.6135L173.858 59.6096Z" fill="#515151"/>
<path d="M195.795 64.5387V72.3793H191.969V64.8702C191.969 63.5931 191.357 62.7766 190.134 62.7766C188.858 62.7766 188.143 63.6705 188.143 65.1773V72.3793H184.319V64.8702C184.319 63.5931 183.707 62.7766 182.482 62.7766C181.207 62.7766 180.493 63.6705 180.493 65.1773V72.3793H176.667V59.6083H180.493V60.7822C180.89 60.2614 181.41 59.8484 182.007 59.581C182.604 59.3135 183.259 59.2 183.911 59.251C184.565 59.2189 185.217 59.3573 185.802 59.6525C186.388 59.9478 186.887 60.3899 187.251 60.9357C187.675 60.3647 188.236 59.9106 188.883 59.616C189.53 59.3214 190.241 59.1958 190.949 59.251C193.877 59.2523 195.795 61.346 195.795 64.5387Z" fill="#515151"/>
<path d="M199.03 59.5309C200.598 59.5309 201.869 58.258 201.869 56.6878C201.869 55.1175 200.598 53.8446 199.03 53.8446C197.462 53.8446 196.191 55.1175 196.191 56.6878C196.191 58.258 197.462 59.5309 199.03 59.5309Z" fill="#515151"/>
</svg>
