<svg width="229" height="129" viewBox="0 0 229 129" fill="none" xmlns="http://www.w3.org/2000/svg">
<path d="M114.247 71.4325H107.652V53.7749H114.247V71.4325ZM108.296 70.7875H113.603V54.4199H108.296V70.7875ZM123.424 71.4325H116.962V53.7749H130.464C132.398 53.6181 134.324 54.1619 135.892 55.3075C136.567 55.9258 137.09 56.6919 137.42 57.546C137.751 58.4001 137.88 59.3191 137.797 60.2314C137.893 61.8077 137.392 63.3625 136.394 64.5851C135.213 65.9422 133.247 66.6414 130.553 66.6659C129.874 66.684 124.787 66.6659 123.428 66.6659L123.424 71.4325ZM117.602 70.7875H122.78V66.0145H123.103C123.169 66.0145 129.773 66.0351 130.537 66.0145C133.048 65.9925 134.852 65.3695 135.907 64.153C136.796 63.0468 137.237 61.6467 137.144 60.2301C137.223 59.4127 137.113 58.5881 136.823 57.8201C136.532 57.0521 136.069 56.3614 135.469 55.8015C134.016 54.7568 132.237 54.2663 130.455 54.4187H117.606L117.602 70.7875ZM129.096 62.6992H122.736V57.8926H129.138C129.592 57.8298 130.054 57.8829 130.482 58.0468C130.91 58.2108 131.29 58.4803 131.586 58.8305C131.854 59.278 131.981 59.7966 131.949 60.3178C131.973 60.8017 131.869 61.2834 131.646 61.7136C131.341 62.0824 130.946 62.3663 130.499 62.538C130.052 62.7097 129.569 62.7634 129.096 62.694V62.6992ZM123.38 62.0542H129.096C130.152 62.0542 130.806 61.8336 131.096 61.3795C131.256 61.0494 131.328 60.6839 131.306 60.3178C131.334 59.9335 131.251 59.5492 131.066 59.211L131.059 59.1994C130.752 58.7479 130.143 58.5376 129.138 58.5376H123.38V62.0542ZM149.551 71.693C143.767 71.693 140.315 70.2547 139 67.2967C138.785 66.7254 138.639 66.1304 138.565 65.5243L138.508 65.1527H145.389L145.434 65.4236C145.487 65.6987 145.604 65.9576 145.774 66.1796C146.046 66.5085 146.953 67.0607 149.962 67.0607C153.579 67.0607 153.579 66.4247 153.579 66.0828C153.579 65.5062 153.16 65.3088 150.211 64.9941L149.65 64.9412C148.54 64.8367 147.136 64.7038 146.494 64.6484C141.084 64.1582 138.669 62.4747 138.669 59.1917C138.669 55.7435 142.779 53.5157 149.141 53.5157C154.331 53.5157 157.675 54.8856 159.078 57.5908C159.411 58.22 159.634 58.9014 159.739 59.6057L159.784 59.9682H152.895L152.867 59.6767C152.84 59.4489 152.742 59.2351 152.588 59.0652C152.331 58.7195 151.517 58.148 148.989 58.148C145.886 58.148 145.459 58.5454 145.459 58.9736C145.459 59.5451 146.439 59.7476 149.581 60.0843C150.891 60.1914 152.997 60.4081 153.718 60.4958C158.254 60.9886 160.277 62.6308 160.277 65.8223C160.279 68.499 158.417 71.693 149.551 71.693ZM139.26 65.7977C139.325 66.2232 139.436 66.6402 139.591 67.0413C140.789 69.7361 144.048 71.048 149.551 71.048C154.152 71.048 159.638 70.145 159.638 65.8223C159.638 62.9933 157.848 61.5923 153.65 61.137C152.929 61.0493 150.835 60.8338 149.528 60.7255C146.179 60.3617 144.817 60.1682 144.817 58.9736C144.817 57.7378 146.284 57.503 148.992 57.503C151.132 57.503 152.514 57.89 153.1 58.6705C153.26 58.8628 153.381 59.0845 153.455 59.3232H159.038C158.926 58.8243 158.748 58.3424 158.51 57.89C157.222 55.4145 154.075 54.1607 149.144 54.1607C143.174 54.1607 139.316 56.1356 139.316 59.1917C139.316 62.1071 141.481 63.5467 146.554 64.0059C147.198 64.0614 148.6 64.1943 149.713 64.3001L150.278 64.3529C153.017 64.6419 154.226 64.8225 154.226 66.0828C154.226 67.4399 152.663 67.7057 149.965 67.7057C147.468 67.7057 145.892 67.3303 145.282 66.5911C145.094 66.3554 144.953 66.0862 144.865 65.7977H139.26ZM172.514 71.6711C165.79 71.6711 162.081 68.9479 162.081 64.0021V53.7749H168.588V64.0021C168.588 65.6984 170.104 66.6711 172.746 66.6711C175.271 66.6711 176.839 65.6558 176.839 64.024V53.7749H183.279V64.5439C183.286 69.0731 179.358 71.6711 172.511 71.6711H172.514ZM162.725 54.4199V64.0021C162.725 70.1141 168.854 71.0261 172.514 71.0261C176.299 71.0261 182.646 70.1837 182.646 64.5439V54.4199H177.493V64.024C177.493 66.0235 175.633 67.3161 172.757 67.3161C169.75 67.3161 167.954 66.0777 167.954 64.0021V54.4199H162.725ZM210.572 71.4325H204.43V63.4603L200.947 71.4325H195.59L192.143 63.4757V71.4325H185.979V53.7749H194.087L198.299 63.5106L202.714 53.7749H210.58L210.572 71.4325ZM205.074 70.7875H209.928V54.4199H203.124L198.278 65.0999L193.659 54.4199H186.618V70.7875H191.494V60.372L196.002 70.7913H200.511L205.067 60.3875L205.074 70.7875ZM24.5438 54.0974H18.6777V71.11H34.8875V66.5808H24.5438V54.0974ZM46.7279 53.7104C39.24 53.7104 35.3023 57.2644 35.3023 62.4824C35.3023 68.3777 39.4358 71.368 46.7279 71.368C54.7555 71.368 58.1317 67.9004 58.1317 62.4824C58.1317 56.9806 54.3227 53.7079 46.7279 53.7079V53.7104ZM46.706 58.1313C47.2157 58.1289 47.7251 58.1586 48.2311 58.2203L41.6733 64.7877C41.3629 64.0847 41.2116 63.3218 41.2302 62.5534C41.2302 59.8844 42.5724 58.1287 46.706 58.1287V58.1313ZM46.7279 67.0168C46.2368 67.019 45.746 66.9914 45.2582 66.9342L51.8276 60.3552C52.1264 61.0465 52.2693 61.7953 52.2462 62.5482C52.2462 65.145 51.0096 67.0142 46.7279 67.0142V67.0168ZM69.7544 64.6948H75.7918C75.703 65.1144 75.5178 65.5075 75.2508 65.8429C73.9992 66.8641 72.4017 67.361 70.7926 67.2296C69.9827 67.3164 69.1636 67.2278 68.3909 66.9699C67.6181 66.7119 66.9098 66.2906 66.3138 65.7345C65.7034 64.8378 65.4134 63.761 65.4907 62.6785C65.392 61.5443 65.7073 60.4127 66.3782 59.4935C67.222 58.5389 68.6505 58.1274 70.7501 58.1274C72.0861 58.0166 73.4203 58.3602 74.5372 59.1026C74.8892 59.3827 75.1524 59.7591 75.2946 60.1862H80.8941C80.8534 59.4825 80.6844 58.7922 80.3956 58.1493C79.0546 55.4184 75.9374 53.793 70.6368 53.793C66.0266 53.793 62.9325 55.2017 61.2232 57.3263C60.0942 58.8606 59.5147 60.7312 59.5782 62.636C59.5052 64.5838 60.0697 66.5022 61.1858 68.0991C62.8745 70.2921 65.8823 71.3705 69.4968 71.3705C71.8998 71.5384 74.2864 70.8644 76.2478 69.4639L76.3998 71.11H81.0512V61.0325H69.7544V64.6948ZM94.2532 53.7066C86.7666 53.7066 82.8276 57.2605 82.8276 62.4786C82.8276 68.3739 86.9599 71.3641 94.2532 71.3641C102.282 71.3641 105.658 67.8966 105.658 62.4786C105.658 56.9806 101.849 53.7079 94.2532 53.7079V53.7066ZM94.2326 58.1274C94.7289 58.1259 95.2249 58.1544 95.7178 58.2125L89.1857 64.758C88.8851 64.0629 88.7388 63.3107 88.7568 62.5534C88.7516 59.8844 90.099 58.1287 94.2326 58.1287V58.1274ZM94.2532 67.0129C93.7491 67.0151 93.2453 66.9858 92.7448 66.9252L99.3362 60.323C99.6462 61.0235 99.7946 61.785 99.7703 62.5508C99.7728 65.145 98.5414 67.0142 94.2532 67.0142V67.0129Z" fill="#515151"/>
</svg>
