<svg width="136" height="269" viewBox="0 0 136 269" fill="none" xmlns="http://www.w3.org/2000/svg">
<g opacity="0.5">
<path fill-rule="evenodd" clip-rule="evenodd" d="M3.32045 267.488C0.816178 265.736 -0.00453132 262.4 1.40061 259.686L48.7673 168.182C50.3161 165.19 53.9971 164.02 56.9891 165.569C59.981 167.118 61.151 170.799 59.6022 173.791L33.2076 224.78L117.879 132.703L53.1173 121.193C49.8002 120.604 47.5891 117.437 48.1786 114.12C48.7681 110.802 51.9351 108.591 55.2522 109.181L130.967 122.637C133.16 123.027 134.966 124.581 135.679 126.692C136.392 128.802 135.898 131.133 134.39 132.773L11.3084 266.619C9.23943 268.869 5.82474 269.241 3.32045 267.488Z" fill="white"/>
<path fill-rule="evenodd" clip-rule="evenodd" d="M132.68 1.10242C135.184 2.85493 136.005 6.19027 134.599 8.90473L87.2327 100.409C85.6839 103.4 82.0029 104.57 79.0109 103.022C76.019 101.473 74.849 97.7918 76.3978 94.7999L102.792 43.8103L18.1208 135.888L82.8827 147.397C86.1998 147.987 88.4109 151.154 87.8214 154.471C87.2319 157.788 84.0649 159.999 80.7478 159.41L5.03294 145.953C2.83983 145.563 1.03353 144.009 0.320817 141.899C-0.391894 139.789 0.102311 137.458 1.61005 135.818L124.692 1.97123C126.761 -0.278689 130.175 -0.650088 132.68 1.10242Z" fill="white"/>
</g>
</svg>
